SplineFontDB: 3.2
FontName: BertiogaSans-ExtraBoldItalic
FullName: Bertioga Sans ExtraBold Italic
FamilyName: Bertioga Sans ExtraBold
Weight: Heavy
Copyright: Copyright 2020 The Arimo Project Authors (https://github.com/googlefonts/arimo)\nCopyright 2020 The Libra Sans Project Authors (https://github.com/stefanpeev/libra-sans)\nCopyright 2024 The Bertioga Sans Project Authors (https://github.com/cssobral2013/bertioga-sans)
UComments: "2024-2-22: Created with FontForge (http://fontforge.org)"
Version: 001.000
ItalicAngle: -12
UnderlinePosition: -100
UnderlineWidth: 50
Ascent: 1638
Descent: 410
InvalidEm: 0
LayerCount: 2
Layer: 0 1 "Back" 1
Layer: 1 1 "Fore" 0
XUID: [1021 531 -1996577725 5692113]
StyleMap: 0x0001
FSType: 0
OS2Version: 4
OS2_WeightWidthSlopeOnly: 0
OS2_UseTypoMetrics: 1
CreationTime: 1708631795
ModificationTime: 1708632185
PfmFamily: 17
TTFWeight: 800
TTFWidth: 5
LineGap: 67
VLineGap: 0
Panose: 2 0 9 4 2 2 2 2 2 4
OS2TypoAscent: 1854
OS2TypoAOffset: 0
OS2TypoDescent: -434
OS2TypoDOffset: 0
OS2TypoLinegap: 67
OS2WinAscent: 2136
OS2WinAOffset: 0
OS2WinDescent: 797
OS2WinDOffset: 0
HheadAscent: 1854
HheadAOffset: 0
HheadDescent: -434
HheadDOffset: 0
OS2SubXSize: 1331
OS2SubYSize: 1433
OS2SubXOff: 0
OS2SubYOff: 286
OS2SupXSize: 1331
OS2SupYSize: 1433
OS2SupXOff: 0
OS2SupYOff: 983
OS2StrikeYSize: 102
OS2StrikeYPos: 530
OS2CapHeight: 1409
OS2XHeight: 1082
OS2Vendor: 'PfEd'
OS2CodePages: e00001bf.dff70000
OS2UnicodeRanges: e0000aff.500078ff.00000029.00000000
Lookup: 4 1 0 "dligDiscretionaryLigaturesinHebrewlookup1" { "dligDiscretionaryLigaturesinHebrewlookup1 subtable"  } ['dlig' ('hebr' <'dflt' > ) ]
Lookup: 4 0 0 "ccmpGlyphCompositionDecompositionlookup2" { "ccmpGlyphCompositionDecompositionlookup2 subtable"  } ['ccmp' ('latn' <'dflt' 'MAH ' > 'grek' <'dflt' > 'cyrl' <'dflt' > ) ]

StartChar: .notdef
Encoding: 65536 -1 0
Width: 1536
GlyphClass: 2
Flags: HW
LayerCount: 2
Fore
SplineSet
1330 1409 m 1,0,0
 1330 0 l 1,0,0
 205 0 l 1,0,0
 205 1409 l 1,0,0
 1330 1409 l 1,0,0
281 76 m 1,0,0
 1254 76 l 1,0,0
 1254 1333 l 1,0,0
 281 1333 l 1,0,0
 281 76 l 1,0,0
EndSplineSet
EndChar

StartChar: exclam
Encoding: 33 33 4
Width: 719
GlyphClass: 2
Flags: HW
LayerCount: 2
Fore
SplineSet
679.34 1409 m 1,0,0
 454.02 435.57 l 1,0,0
 196.96 435.57 l 1,0,0
 353 1409 l 1,0,0
 679.34 1409 l 1,0,0
454.64 292.77 m 1,0,0
 398.68 0 l 1,0,0
 79.66 0 l 1,0,0
 135.62 292.77 l 1,0,0
 454.64 292.77 l 1,0,0
EndSplineSet
EndChar

StartChar: quotedbl
Encoding: 34 34 5
Width: 1051
GlyphClass: 2
Flags: HW
LayerCount: 2
Fore
SplineSet
1054.37 1409 m 1,0,0
 919.11 875.56 l 1,0,0
 674.7 875.56 l 1,0,0
 749.34 1409 l 1,0,0
 1054.37 1409 l 1,0,0
606.9 1409 m 1,0,0
 474.3 875.56 l 1,0,0
 229.56 875.56 l 1,0,0
 304.53 1409 l 1,0,0
 606.9 1409 l 1,0,0
EndSplineSet
EndChar

StartChar: numbersign
Encoding: 35 35 6
Width: 1139
GlyphClass: 2
Flags: HW
LayerCount: 2
Fore
SplineSet
381.92 372.09 m 1,0,0
 303.24 0 l 1,0,0
 136.05 0 l 1,0,0
 213.4 372.09 l 1,0,0
 73.58 372.09 l 1,0,0
 73.58 534.62 l 1,0,0
 249.37 534.62 l 1,0,0
 316.73 854.41 l 1,0,0
 124.58 854.41 l 1,0,0
 124.58 1015.61 l 1,0,0
 350.7 1015.61 l 1,0,0
 433.05 1393.02 l 1,0,0
 600.24 1393.02 l 1,0,0
 520.22 1015.61 l 1,0,0
 808.74 1015.61 l 1,0,0
 891.42 1393.02 l 1,0,0
 1062.6 1393.02 l 1,0,0
 979.92 1015.61 l 1,0,0
 1128.41 1015.61 l 1,0,0
 1128.41 854.41 l 1,0,0
 943.29 854.41 l 1,0,0
 877.26 534.62 l 1,0,0
 1077.41 534.62 l 1,0,0
 1077.41 372.09 l 1,0,0
 843.62 372.09 l 1,0,0
 763.6 0 l 1,0,0
 592.42 0 l 1,0,0
 670.44 372.09 l 1,0,0
 381.92 372.09 l 1,0,0
417.56 534.62 m 1,0,0
 709.07 534.62 l 1,0,0
 776.43 854.41 l 1,0,0
 486.92 854.41 l 1,0,0
 417.56 534.62 l 1,0,0
EndSplineSet
EndChar

StartChar: dollar
Encoding: 36 36 7
Width: 1139
GlyphClass: 2
Flags: HW
LayerCount: 2
Fore
SplineSet
1082.64 490.17 m 0,0,0
 1082.64 267.93 1082.64 267.93 940.485 150.46 c 0,0,0
 798.33 32.99 798.33 32.99 508.08 21 c 1,0,0
 474.42 -155.96 l 1,0,0
 363.08 -155.96 l 1,0,0
 395.08 23 l 1,0,0
 227.33 18.38 227.33 18.38 111.855 113.035 c 0,0,0
 -3.62 207.69 -3.62 207.69 -10.67 362.7 c 1,0,0
 284 406.35 l 1,0,0
 285.06 327.26 285.06 327.26 325.64 287.545 c 0,0,0
 366.22 247.83 366.22 247.83 441.7 251.13 c 1,0,0
 507.11 604.48 l 1,0,0
 355.45 640.16 355.45 640.16 252.86 724.73 c 0,0,0
 193.16 776.38 193.16 776.38 162.475 841.545 c 0,0,0
 131.79 906.71 131.79 906.71 131.79 978.1 c 0,0,0
 131.79 1104.73 131.79 1104.73 194.13 1198.37 c 0,0,0
 255.14 1290.68 255.14 1290.68 381.615 1343.99 c 0,0,0
 508.09 1397.3 508.09 1397.3 665.73 1396.97 c 1,0,0
 689.4 1521.32 l 1,0,0
 798.08 1516 l 1,0,0
 771.08 1388.31 l 1,0,0
 935.06 1394.58 935.06 1394.58 1039.53 1314.26 c 0,0,0
 1144 1233.94 1144 1233.94 1152.71 1089.66 c 1,0,0
 857.06 1028.7 l 1,0,0
 833.34 1183.73 833.34 1183.73 729.45 1174.82 c 1,0,0
 668.72 850.86 l 1,0,0
 882.01 801.85 882.01 801.85 982.325 714.505 c 0,0,0
 1082.64 627.16 1082.64 627.16 1082.64 490.17 c 0,0,0
428.17 1002.04 m 0,0,0
 428.17 958.98 428.17 958.98 456.545 929.945 c 0,0,0
 484.92 900.91 484.92 900.91 560.72 875.54 c 1,0,0
 623.1 1178.82 l 1,0,0
 539.28 1180.47 539.28 1180.47 483.725 1128.79 c 0,0,0
 428.17 1077.11 428.17 1077.11 428.17 1002.04 c 0,0,0
784.59 413 m 0,0,0
 784.59 489.67 784.59 489.67 742.735 526.87 c 0,0,0
 700.88 564.07 700.88 564.07 616.44 580.13 c 1,0,0
 549.05 251.46 l 1,0,0
 649.53 248.82 649.53 248.82 717.06 293.695 c 0,0,0
 784.59 338.57 784.59 338.57 784.59 413 c 0,0,0
EndSplineSet
EndChar

StartChar: percent
Encoding: 37 37 8
Width: 1821
GlyphClass: 2
Flags: HW
LayerCount: 2
Fore
SplineSet
546.33 1421 m 0,0,0
 704.58 1421 704.58 1421 788.205 1341.335 c 0,0,0
 871.83 1261.67 871.83 1261.67 871.83 1113 c 0,0,0
 871.83 1035.64 871.83 1035.64 842.53 933.02 c 0,0,0
 828.2 865.02 828.2 865.02 805.865 810.495 c 0,0,0
 783.53 755.97 783.53 755.97 753.52 712.95 c 0,0,0
 624.9 524 624.9 524 407.33 524 c 0,0,0
 259.39 524 259.39 524 180.085 608.495 c 0,0,0
 100.78 692.99 100.78 692.99 100.78 841 c 0,0,0
 100.78 911.19 100.78 911.19 117.19 976.72 c 1,0,0
 197.56 1421 197.56 1421 546.33 1421 c 0,0,0
506.13 0 m 1,0,0
 298.57 0 l 1,0,0
 1351.57 1409 l 1,0,0
 1561.13 1409 l 1,0,0
 506.13 0 l 1,0,0
545.33 1255.81 m 0,0,0
 514.24 1255.81 514.24 1255.81 488.53 1246.09 c 0,0,0
 462.82 1236.37 462.82 1236.37 442.79 1218.25 c 0,0,0
 409.82 1179.57 409.82 1179.57 386.17 1105.095 c 0,0,0
 362.52 1030.62 362.52 1030.62 350.525 953.48 c 0,0,0
 338.53 876.34 338.53 876.34 338.53 827 c 0,0,0
 338.53 700.84 338.53 700.84 411.33 700.84 c 0,0,0
 476.38 700.84 476.38 700.84 518.08 745.23 c 0,0,0
 547.09 774.26 547.09 774.26 567.6 821.975 c 0,0,0
 588.11 869.69 588.11 869.69 602.11 942.69 c 1,0,0
 633.08 1053 633.08 1053 633.08 1131 c 0,0,0
 633.08 1255.81 633.08 1255.81 545.33 1255.81 c 0,0,0
1447.4 881.01 m 0,0,0
 1605.65 881.01 1605.65 881.01 1689.94 801.345 c 0,0,0
 1774.23 721.68 1774.23 721.68 1774.23 573.01 c 0,0,0
 1774.23 494.99 1774.23 494.99 1745.26 394.68 c 0,0,0
 1730.93 326.35 1730.93 326.35 1708.595 271.33 c 0,0,0
 1686.26 216.31 1686.26 216.31 1655.92 172.96 c 0,0,0
 1527.3 -15.99 1527.3 -15.99 1309.73 -15.99 c 0,0,0
 1161.79 -15.99 1161.79 -15.99 1082.485 68.505 c 0,0,0
 1003.18 153 1003.18 153 1003.18 301.01 c 0,0,0
 1003.18 371.2 1003.18 371.2 1019.59 436.73 c 1,0,0
 1099.96 881.01 1099.96 881.01 1447.4 881.01 c 0,0,0
1447.73 715.82 m 0,0,0
 1417.97 715.82 1417.97 715.82 1391.595 706.1 c 0,0,0
 1365.22 696.38 1365.22 696.38 1345.19 678.26 c 0,0,0
 1312.22 639.58 1312.22 639.58 1289.235 565.105 c 0,0,0
 1266.25 490.63 1266.25 490.63 1253.59 413.49 c 0,0,0
 1240.93 336.35 1240.93 336.35 1240.93 287.01 c 0,0,0
 1240.93 160.85 1240.93 160.85 1313.73 160.85 c 0,0,0
 1382.77 160.85 1382.77 160.85 1425.8 211.89 c 0,0,0
 1452.82 240.59 1452.82 240.59 1471.17 285.49 c 0,0,0
 1489.52 330.39 1489.52 330.39 1503.85 398.41 c 1,0,0
 1535.48 511.36 1535.48 511.36 1535.48 591.01 c 0,0,0
 1535.48 715.82 1535.48 715.82 1447.73 715.82 c 0,0,0
EndSplineSet
EndChar

StartChar: ampersand
Encoding: 38 38 9
Width: 1516
GlyphClass: 2
Flags: HW
LayerCount: 2
Fore
SplineSet
1355.73 674.69 m 1,0,0
 1318.98 588.18 1318.98 588.18 1243.155 476.66 c 0,0,0
 1167.33 365.14 1167.33 365.14 1082.02 278.49 c 1,0,0
 1119.36 248.47 1119.36 248.47 1163.21 233.955 c 0,0,0
 1207.06 219.44 1207.06 219.44 1265.03 219.44 c 0,0,0
 1330.02 219.44 1330.02 219.44 1375.7 235.44 c 1,0,0
 1328.12 10 l 1,0,0
 1261.14 -12 1261.14 -12 1184.5 -12 c 0,0,0
 1002.25 -12 1002.25 -12 868.28 103.35 c 1,0,0
 833.28 74.36 833.28 74.36 804.26 56.02 c 0,0,0
 775.24 37.68 775.24 37.68 753.53 28 c 0,0,0
 704.17 6.66 704.17 6.66 633.85 -6.67 c 0,0,0
 563.53 -20 563.53 -20 471.92 -20 c 0,0,0
 266.96 -20 266.96 -20 160.62 75.18 c 0,0,0
 54.28 170.36 54.28 170.36 54.28 354.99 c 0,0,0
 54.28 457.33 54.28 457.33 104.255 544.31 c 0,0,0
 154.23 631.29 154.23 631.29 249.06 699.615 c 0,0,0
 343.89 767.94 343.89 767.94 479.29 812.65 c 1,0,0
 463.96 857.02 463.96 857.02 452.97 921.67 c 0,0,0
 441.98 986.32 441.98 986.32 441.98 1037.33 c 0,0,0
 441.98 1209 441.98 1209 558.46 1313 c 0,0,0
 674.94 1417 674.94 1417 879.55 1417 c 0,0,0
 1045.48 1417 1045.48 1417 1134.64 1350.985 c 0,0,0
 1223.8 1284.97 1223.8 1284.97 1223.8 1161.65 c 0,0,0
 1223.8 1078.9 1223.8 1078.9 1190.845 1014.18 c 0,0,0
 1157.89 949.46 1157.89 949.46 1112.81 898.38 c 0,0,0
 1065.85 864.1 1065.85 864.1 978.99 820.18 c 0,0,0
 892.13 776.26 892.13 776.26 765.7 724.69 c 1,0,0
 810.35 603.38 810.35 603.38 842.905 543.435 c 0,0,0
 875.46 483.49 875.46 483.49 922.52 421.4 c 1,0,0
 991.83 493.39 991.83 493.39 1050.825 583.4 c 0,0,0
 1109.82 673.41 1109.82 673.41 1150.58 766.93 c 1,0,0
 1355.73 674.69 l 1,0,0
691.75 1041 m 0,0,0
 691.75 962.33 691.75 962.33 712.08 906.89 c 1,0,0
 780.44 933.23 780.44 933.23 821.51 953.245 c 0,0,0
 862.58 973.26 862.58 973.26 878.67 983.98 c 0,0,0
 928.34 1015.98 928.34 1015.98 952.52 1053.655 c 0,0,0
 976.7 1091.33 976.7 1091.33 976.7 1140.02 c 0,0,0
 976.7 1186.4 976.7 1186.4 947.16 1208.615 c 0,0,0
 917.62 1230.83 917.62 1230.83 864.57 1230.83 c 0,0,0
 788.48 1230.83 788.48 1230.83 740.115 1179.955 c 0,0,0
 691.75 1129.08 691.75 1129.08 691.75 1041 c 0,0,0
506.53 189.47 m 0,0,0
 563.26 189.47 563.26 189.47 620.97 210.98 c 0,0,0
 678.68 232.49 678.68 232.49 715.76 261.21 c 1,0,0
 657.39 340.57 657.39 340.57 613 427.16 c 0,0,0
 568.61 513.75 568.61 513.75 532.59 616.48 c 1,0,0
 423.11 563.78 423.11 563.78 380.22 499.925 c 0,0,0
 337.33 436.07 337.33 436.07 337.33 361.98 c 0,0,0
 337.33 285.56 337.33 285.56 383.885 237.515 c 0,0,0
 430.44 189.47 430.44 189.47 506.53 189.47 c 0,0,0
EndSplineSet
EndChar

StartChar: quotesingle
Encoding: 39 39 10
Width: 518
GlyphClass: 2
Flags: HW
LayerCount: 2
Fore
SplineSet
574.02 1409 m 1,0,0
 441.42 875.56 l 1,0,0
 196.68 875.56 l 1,0,0
 272.98 1409 l 1,0,0
 574.02 1409 l 1,0,0
EndSplineSet
EndChar

StartChar: parenleft
Encoding: 40 40 11
Width: 682
GlyphClass: 2
Flags: HW
LayerCount: 2
Fore
SplineSet
880.27 1484 m 1,0,0
 374.09 986.97 374.09 986.97 374.09 285.94 c 0,0,0
 374.09 -116.36 374.09 -116.36 501.29 -425.33 c 1,0,0
 192.96 -425.33 l 1,0,0
 66.74 -103.73 66.74 -103.73 66.74 301.94 c 0,0,0
 66.74 661.97 66.74 661.97 192.8 963.65 c 0,0,0
 318.86 1265.33 318.86 1265.33 563.96 1484 c 1,0,0
 880.27 1484 l 1,0,0
EndSplineSet
EndChar

StartChar: parenright
Encoding: 41 41 12
Width: 682
GlyphClass: 2
Flags: HW
LayerCount: 2
Fore
SplineSet
-173.73 -425.33 m 1,0,0
 333.78 88.99 333.78 88.99 333.78 812.63 c 0,0,0
 333.78 974.71 333.78 974.71 297.575 1158.68 c 0,0,0
 261.37 1342.65 261.37 1342.65 203.92 1484 c 1,0,0
 498.95 1484 l 1,0,0
 642.46 1155.75 642.46 1155.75 642.46 796.63 c 0,0,0
 642.46 420.64 642.46 420.64 513.74 108.32 c 0,0,0
 385.02 -204 385.02 -204 142.58 -425.33 c 1,0,0
 -173.73 -425.33 l 1,0,0
EndSplineSet
EndChar

StartChar: asterisk
Encoding: 42 42 13
Width: 797
GlyphClass: 2
Flags: HW
LayerCount: 2
Fore
SplineSet
832.14 769.98 m 1,0,0
 626.69 632.81 l 1,0,0
 482.01 882.83 l 1,0,0
 335.32 632.15 l 1,0,0
 127.21 771.98 l 1,0,0
 317.54 970.77 l 1,0,0
 77.44 1027.81 l 1,0,0
 153.03 1245.6 l 1,0,0
 382.79 1142.59 l 1,0,0
 362.81 1409 l 1,0,0
 603.88 1409 l 1,0,0
 584.23 1141.93 l 1,0,0
 809.66 1246.26 l 1,0,0
 885.25 1027.81 l 1,0,0
 645.81 970.77 l 1,0,0
 832.14 769.98 l 1,0,0
EndSplineSet
EndChar

StartChar: plus
Encoding: 43 43 14
Width: 1196
GlyphClass: 2
Flags: HW
LayerCount: 2
Fore
SplineSet
766.17 556.13 m 1,0,0
 766.17 154.73 l 1,0,0
 514.1 154.73 l 1,0,0
 514.1 556.13 l 1,0,0
 123.35 556.13 l 1,0,0
 123.35 805.87 l 1,0,0
 514.1 805.87 l 1,0,0
 514.1 1207.27 l 1,0,0
 766.17 1207.27 l 1,0,0
 766.17 805.87 l 1,0,0
 1160.91 805.87 l 1,0,0
 1160.91 556.13 l 1,0,0
 766.17 556.13 l 1,0,0
EndSplineSet
EndChar

StartChar: comma
Encoding: 44 44 15
Width: 569
GlyphClass: 2
Flags: HW
LayerCount: 2
Fore
SplineSet
362.84 70.95 m 2,0,0
 338.19 -57.3 338.19 -57.3 291.89 -154.245 c 0,0,0
 245.59 -251.19 245.59 -251.19 166.65 -335.15 c 1,0,0
 -38.81 -335.15 l 1,0,0
 45.13 -253.85 45.13 -253.85 101.745 -165.24 c 0,0,0
 158.36 -76.63 158.36 -76.63 172.69 0 c 1,0,0
 30.16 0 l 1,0,0
 94.77 333.38 l 1,0,0
 414.79 333.38 l 1,0,0
 362.84 70.95 l 2,0,0
EndSplineSet
EndChar

StartChar: hyphen
Encoding: 45 45 16
Width: 682
GlyphClass: 2
Flags: HW
LayerCount: 2
Fore
SplineSet
618.71 662.57 m 1,0,0
 566.43 390.85 l 1,0,0
 39.83 390.85 l 1,0,0
 92.11 662.57 l 1,0,0
 618.71 662.57 l 1,0,0
EndSplineSet
EndChar

StartChar: period
Encoding: 46 46 17
Width: 569
GlyphClass: 2
Flags: HW
LayerCount: 2
Fore
SplineSet
419.08 333.38 m 1,0,0
 354.8 0 l 1,0,0
 34.78 0 l 1,0,0
 99.06 333.38 l 1,0,0
 419.08 333.38 l 1,0,0
EndSplineSet
EndChar

StartChar: slash
Encoding: 47 47 18
Width: 569
GlyphClass: 2
Flags: HW
LayerCount: 2
Fore
SplineSet
750.32 1484 m 1,0,0
 205.93 -47.93 l 1,0,0
 -62.8 -47.93 l 1,0,0
 485.92 1484 l 1,0,0
 750.32 1484 l 1,0,0
EndSplineSet
EndChar

StartChar: zero
Encoding: 48 48 19
Width: 1139
GlyphClass: 2
Flags: HW
LayerCount: 2
Fore
SplineSet
721.36 1430 m 0,0,0
 922.98 1430 922.98 1430 1020.495 1315.645 c 0,0,0
 1118.01 1201.29 1118.01 1201.29 1118.01 964 c 0,0,0
 1118.01 899.52 1118.01 899.52 1093.21 729.68 c 0,0,0
 1023.19 352.69 1023.19 352.69 870.215 166.345 c 0,0,0
 717.24 -20 717.24 -20 478.66 -20 c 0,0,0
 272.39 -20 272.39 -20 178.035 93.705 c 0,0,0
 83.68 207.41 83.68 207.41 83.68 450.37 c 0,0,0
 83.68 534.46 83.68 534.46 103.68 660.29 c 0,0,0
 123.68 786.12 123.68 786.12 161.68 915.915 c 0,0,0
 199.68 1045.71 199.68 1045.71 251.35 1141.03 c 0,0,0
 330.02 1283.68 330.02 1283.68 445.69 1356.84 c 0,0,0
 561.36 1430 561.36 1430 721.36 1430 c 0,0,0
498.98 225.42 m 0,0,0
 606.09 225.42 606.09 225.42 667.51 334.08 c 0,0,0
 692.21 377.41 692.21 377.41 714.07 449.225 c 0,0,0
 735.93 521.04 735.93 521.04 754.115 603.53 c 0,0,0
 772.3 686.02 772.3 686.02 785.645 764.37 c 0,0,0
 798.99 842.72 798.99 842.72 805.83 900.95 c 0,0,0
 812.67 959.18 812.67 959.18 812.67 978.32 c 0,0,0
 812.67 1081.45 812.67 1081.45 781.765 1133.515 c 0,0,0
 750.86 1185.58 750.86 1185.58 685.42 1185.58 c 0,0,0
 596.12 1185.58 596.12 1185.58 545.925 1131.815 c 0,0,0
 495.73 1078.05 495.73 1078.05 460.7 957.22 c 0,0,0
 451.27 905.55 451.27 905.55 439.37 823.04 c 0,0,0
 427.47 740.53 427.47 740.53 416.095 654.32 c 0,0,0
 404.72 568.11 404.72 568.11 396.87 500.345 c 0,0,0
 389.02 432.58 389.02 432.58 389.02 407.41 c 0,0,0
 389.02 316.25 389.02 316.25 415.27 270.835 c 0,0,0
 441.52 225.42 441.52 225.42 498.98 225.42 c 0,0,0
EndSplineSet
EndChar

StartChar: one
Encoding: 49 49 20
Width: 1139
GlyphClass: 2
Flags: HW
LayerCount: 2
Fore
SplineSet
1049.79 256.74 m 1,0,0
 1001.17 0 l 1,0,0
 26.4 0 l 1,0,0
 73.69 256.74 l 1,0,0
 419.39 256.74 l 1,0,0
 588.82 1128.57 l 1,0,0
 201.22 917.54 l 1,0,0
 252.18 1180 l 1,0,0
 654.45 1409 l 1,0,0
 958.77 1409 l 1,0,0
 733.39 256.74 l 1,0,0
 1049.79 256.74 l 1,0,0
EndSplineSet
EndChar

StartChar: two
Encoding: 50 50 21
Width: 1139
GlyphClass: 2
Flags: HW
LayerCount: 2
Fore
SplineSet
1012.84 256.74 m 1,0,0
 963.89 0 l 1,0,0
 -38.6 0 l 1,0,0
 2.69 217.44 l 1,0,0
 17.79 243.94 17.79 243.94 32.59 271.72 c 0,0,0
 47.39 299.5 47.39 299.5 65.53 326.25 c 0,0,0
 106.22 376.89 106.22 376.89 149.405 422.03 c 0,0,0
 192.59 467.17 192.59 467.17 271.185 529.095 c 0,0,0
 349.78 591.02 349.78 591.02 493.54 692.84 c 0,0,0
 568.53 747.15 568.53 747.15 615.07 784.835 c 0,0,0
 661.61 822.52 661.61 822.52 682.01 841.6 c 0,0,0
 738.32 896.59 738.32 896.59 768.645 951.105 c 0,0,0
 798.97 1005.62 798.97 1005.62 798.97 1063 c 0,0,0
 798.97 1125.09 798.97 1125.09 765.73 1153.005 c 0,0,0
 732.49 1180.92 732.49 1180.92 659.74 1180.92 c 0,0,0
 578.67 1180.92 578.67 1180.92 533.58 1142.035 c 0,0,0
 488.49 1103.15 488.49 1103.15 464.79 1014.74 c 1,0,0
 167.11 1081 l 1,0,0
 219.78 1262.97 219.78 1262.97 349.1 1346.485 c 0,0,0
 478.42 1430 478.42 1430 682.71 1430 c 0,0,0
 828.65 1430 828.65 1430 925.97 1392.815 c 0,0,0
 1023.29 1355.63 1023.29 1355.63 1072.13 1279.455 c 0,0,0
 1120.97 1203.28 1120.97 1203.28 1120.97 1084.65 c 0,0,0
 1120.97 991.62 1120.97 991.62 1081.94 908.25 c 0,0,0
 1055.92 852.23 1055.92 852.23 1014.385 800.21 c 0,0,0
 972.85 748.19 972.85 748.19 898.645 686.51 c 0,0,0
 824.44 624.83 824.44 624.83 702.4 540.49 c 0,0,0
 575.35 451.48 575.35 451.48 500.81 386.12 c 0,0,0
 426.27 320.76 426.27 320.76 382.93 256.74 c 1,0,0
 1012.84 256.74 l 1,0,0
EndSplineSet
EndChar

StartChar: three
Encoding: 51 51 22
Width: 1139
GlyphClass: 2
Flags: HW
LayerCount: 2
Fore
SplineSet
524.77 840.22 m 2,0,0
 662.55 840.22 662.55 840.22 730.44 893.27 c 0,0,0
 798.33 946.32 798.33 946.32 798.33 1041.1 c 0,0,0
 798.33 1106.17 798.33 1106.17 767.09 1143.545 c 0,0,0
 735.85 1180.92 735.85 1180.92 662.78 1180.92 c 0,0,0
 578.36 1180.92 578.36 1180.92 528.105 1139.87 c 0,0,0
 477.85 1098.82 477.85 1098.82 454.49 1013.09 c 1,0,0
 158.12 1077.63 l 1,0,0
 206.81 1252.99 206.81 1252.99 334.325 1341.495 c 0,0,0
 461.84 1430 461.84 1430 674.11 1430 c 0,0,0
 882.39 1430 882.39 1430 998.37 1339.33 c 0,0,0
 1114.35 1248.66 1114.35 1248.66 1114.35 1086 c 0,0,0
 1114.35 929.01 1114.35 929.01 1017.185 834.505 c 0,0,0
 920.02 740 920.02 740 755.66 727.64 c 1,0,0
 754.66 723.64 l 1,0,0
 890.98 704.29 890.98 704.29 960.655 625.79 c 0,0,0
 1030.33 547.29 1030.33 547.29 1030.33 421.63 c 0,0,0
 1030.33 297.63 1030.33 297.63 963.68 195.64 c 0,0,0
 897.36 91.99 897.36 91.99 778.205 35.995 c 0,0,0
 659.05 -20 659.05 -20 506.05 -20 c 0,0,0
 365.75 -20 365.75 -20 262.76 12.03 c 0,0,0
 19.2 89.73 19.2 89.73 5.44 344.65 c 1,0,0
 326.38 379.35 l 1,0,0
 331.11 297.93 331.11 297.93 371.23 264.67 c 0,0,0
 411.35 231.41 411.35 231.41 518.39 231.41 c 0,0,0
 610.18 231.41 610.18 231.41 661.75 281.305 c 0,0,0
 713.32 331.2 713.32 331.2 713.32 419.96 c 0,0,0
 713.32 506.69 713.32 506.69 664.92 548.24 c 0,0,0
 616.52 589.79 616.52 589.79 512.79 589.79 c 2,0,0
 411.4 589.79 l 1,0,0
 460.02 840.22 l 1,0,0
 524.77 840.22 l 2,0,0
EndSplineSet
EndChar

StartChar: four
Encoding: 52 52 23
Width: 1139
GlyphClass: 2
Flags: HW
LayerCount: 2
Fore
SplineSet
883.24 275.11 m 1,0,0
 831.88 0 l 1,0,0
 534.84 0 l 1,0,0
 586.2 275.11 l 1,0,0
 -49.51 275.11 l 1,0,0
 -3.89 504.22 l 1,0,0
 679.45 1409 l 1,0,0
 1105.88 1409 l 1,0,0
 929.86 507.55 l 1,0,0
 1117.86 507.55 l 1,0,0
 1071.24 275.11 l 1,0,0
 883.24 275.11 l 1,0,0
791.42 1222.17 m 1,0,0
 770.07 1181.52 770.07 1181.52 740.405 1135.885 c 0,0,0
 710.74 1090.25 710.74 1090.25 673.76 1040.29 c 2,0,0
 269.56 507.55 l 1,0,0
 632.82 507.55 l 1,0,0
 734.16 1024.29 l 2,0,0
 743.49 1071.6 743.49 1071.6 757.97 1121.07 c 0,0,0
 772.45 1170.54 772.45 1170.54 791.42 1222.17 c 1,0,0
EndSplineSet
EndChar

StartChar: five
Encoding: 53 53 24
Width: 1139
GlyphClass: 2
Flags: HW
LayerCount: 2
Fore
SplineSet
1002.58 248.53 m 0,0,0
 931.59 118.93 931.59 118.93 794.14 49.465 c 0,0,0
 656.69 -20 656.69 -20 479.73 -20 c 0,0,0
 276.11 -20 276.11 -20 155.125 70.48 c 0,0,0
 34.14 160.96 34.14 160.96 11.42 335.6 c 1,0,0
 334.02 381.26 l 1,0,0
 347.73 295.19 347.73 295.19 384.835 263.63 c 0,0,0
 421.94 232.07 421.94 232.07 508.35 232.07 c 0,0,0
 619.82 232.07 619.82 232.07 685.215 302.96 c 0,0,0
 750.61 373.85 750.61 373.85 750.61 486 c 0,0,0
 750.61 585.39 750.61 585.39 707.545 638.77 c 0,0,0
 664.48 692.15 664.48 692.15 583.06 692.15 c 0,0,0
 473.26 692.15 473.26 692.15 407.46 604.45 c 1,0,0
 101.12 604.45 l 1,0,0
 307.09 1409 l 1,0,0
 1169.27 1409 l 1,0,0
 1121.65 1152.26 l 1,0,0
 541.84 1152.26 l 1,0,0
 463.75 855.55 l 1,0,0
 503.11 892.23 503.11 892.23 564.47 918.89 c 0,0,0
 625.83 945.55 625.83 945.55 711.49 945.55 c 0,0,0
 872.88 945.55 872.88 945.55 970.585 830.405 c 0,0,0
 1068.29 715.26 1068.29 715.26 1068.29 521.96 c 0,0,0
 1068.29 367.22 1068.29 367.22 1002.58 248.53 c 0,0,0
EndSplineSet
EndChar

StartChar: six
Encoding: 54 54 25
Width: 1139
GlyphClass: 2
Flags: HW
LayerCount: 2
Fore
SplineSet
532.67 -20 m 0,0,0
 388.71 -20 388.71 -20 289.555 39.67 c 0,0,0
 190.4 99.34 190.4 99.34 139.4 214.325 c 0,0,0
 88.4 329.31 88.4 329.31 88.4 494.59 c 0,0,0
 88.4 773.83 88.4 773.83 172.4 984.89 c 0,0,0
 255.4 1196.95 255.4 1196.95 406.385 1313.475 c 0,0,0
 557.37 1430 557.37 1430 739.72 1430 c 0,0,0
 929.62 1430 929.62 1430 1035.43 1342.54 c 0,0,0
 1141.24 1255.08 1141.24 1255.08 1153.63 1091.15 c 1,0,0
 854.63 1048.5 l 1,0,0
 844.26 1118.86 844.26 1118.86 813.86 1150.89 c 0,0,0
 783.46 1182.92 783.46 1182.92 722.41 1182.92 c 0,0,0
 623.58 1182.92 623.58 1182.92 548.48 1078.15 c 0,0,0
 473.38 973.38 473.38 973.38 438.67 752.6 c 1,0,0
 489.36 818.66 489.36 818.66 567.56 862.17 c 0,0,0
 645.76 905.68 645.76 905.68 745.46 905.68 c 0,0,0
 853.81 905.68 853.81 905.68 930.5 861.67 c 0,0,0
 1007.19 817.66 1007.19 817.66 1047.71 733.99 c 0,0,0
 1088.23 650.32 1088.23 650.32 1088.23 533 c 0,0,0
 1088.23 381 1088.23 381 1016.91 254.33 c 0,0,0
 945.92 126.66 945.92 126.66 819.11 53.33 c 0,0,0
 692.3 -20 692.3 -20 532.67 -20 c 0,0,0
395.73 431.64 m 0,0,0
 395.73 335.22 395.73 335.22 438.46 279.985 c 0,0,0
 481.19 224.75 481.19 224.75 564.6 224.75 c 0,0,0
 629.67 224.75 629.67 224.75 675.405 256.965 c 0,0,0
 721.14 289.18 721.14 289.18 745.185 349.255 c 0,0,0
 769.23 409.33 769.23 409.33 769.23 491.41 c 0,0,0
 769.23 582.47 769.23 582.47 725.69 629.355 c 0,0,0
 682.15 676.24 682.15 676.24 608.72 676.24 c 0,0,0
 548.97 676.24 548.97 676.24 500.23 644.88 c 0,0,0
 450.49 613.85 450.49 613.85 423.11 557.13 c 0,0,0
 395.73 500.41 395.73 500.41 395.73 431.64 c 0,0,0
EndSplineSet
EndChar

StartChar: seven
Encoding: 55 55 26
Width: 1139
GlyphClass: 2
Flags: HW
LayerCount: 2
Fore
SplineSet
484.21 0 m 1,0,0
 149.91 0 l 1,0,0
 189.86 208.4 189.86 208.4 270.57 380.545 c 0,0,0
 351.28 552.69 351.28 552.69 462.44 708.53 c 0,0,0
 511.09 771.27 511.09 771.27 564.245 832.835 c 0,0,0
 617.4 894.4 617.4 894.4 671.27 951.835 c 0,0,0
 725.14 1009.27 725.14 1009.27 774.43 1060.115 c 0,0,0
 823.72 1110.96 823.72 1110.96 862.31 1152.26 c 1,0,0
 120.23 1152.26 l 1,0,0
 170.51 1409 l 1,0,0
 1224.61 1409 l 1,0,0
 1175.33 1160.59 l 1,0,0
 1157.76 1138.65 1157.76 1138.65 1129.14 1105.5 c 0,0,0
 1100.52 1072.35 1100.52 1072.35 1061.51 1025.33 c 0,0,0
 1022.5 980.97 1022.5 980.97 987.16 939.44 c 0,0,0
 951.82 897.91 951.82 897.91 919.15 859.21 c 0,0,0
 873.18 801.89 873.18 801.89 832.705 748.06 c 0,0,0
 792.23 694.23 792.23 694.23 758.25 645.22 c 0,0,0
 642.74 474.05 642.74 474.05 581.295 322.97 c 0,0,0
 519.85 171.89 519.85 171.89 484.21 0 c 1,0,0
EndSplineSet
EndChar

StartChar: eight
Encoding: 56 56 27
Width: 1139
GlyphClass: 2
Flags: HW
LayerCount: 2
Fore
SplineSet
707.99 1429 m 0,0,0
 909.63 1429 909.63 1429 1024.3 1337.5 c 0,0,0
 1138.97 1246 1138.97 1246 1138.97 1091 c 0,0,0
 1138.97 951 1138.97 951 1053.8 858.32 c 0,0,0
 968.63 765.64 968.63 765.64 824.29 746.3 c 1,0,0
 823.29 742.3 l 1,0,0
 934.62 709.3 934.62 709.3 994.45 626.98 c 0,0,0
 1054.28 544.66 1054.28 544.66 1054.28 432 c 0,0,0
 1054.28 224 1054.28 224 903.635 102 c 0,0,0
 752.99 -20 752.99 -20 490.69 -20 c 0,0,0
 265.72 -20 265.72 -20 141.905 80.335 c 0,0,0
 18.09 180.67 18.09 180.67 18.09 360 c 0,0,0
 18.09 506.01 18.09 506.01 113.745 602.195 c 0,0,0
 209.4 698.38 209.4 698.38 377.75 730.73 c 1,0,0
 377.75 734.73 l 1,0,0
 285.42 776.72 285.42 776.72 238.745 858.87 c 0,0,0
 192.07 941.02 192.07 941.02 192.07 1052 c 0,0,0
 192.07 1229 192.07 1229 331.38 1329 c 0,0,0
 470.69 1429 470.69 1429 707.99 1429 c 0,0,0
644.7 849.57 m 0,0,0
 725.5 849.57 725.5 849.57 773.4 905.11 c 0,0,0
 821.3 960.65 821.3 960.65 821.3 1056.41 c 0,0,0
 821.3 1135.79 821.3 1135.79 785.725 1173.665 c 0,0,0
 750.15 1211.54 750.15 1211.54 677.68 1211.54 c 0,0,0
 595.22 1211.54 595.22 1211.54 548.15 1159.835 c 0,0,0
 501.08 1108.13 501.08 1108.13 501.08 1015.71 c 0,0,0
 501.08 933.99 501.08 933.99 538.325 891.78 c 0,0,0
 575.57 849.57 575.57 849.57 644.7 849.57 c 0,0,0
559.35 629.44 m 0,0,0
 456.55 629.44 456.55 629.44 399.645 562.4 c 0,0,0
 342.74 495.36 342.74 495.36 342.74 383.93 c 0,0,0
 342.74 294.54 342.74 294.54 389.475 246.335 c 0,0,0
 436.21 198.13 436.21 198.13 520.33 198.13 c 0,0,0
 615.13 198.13 615.13 198.13 672.715 265.51 c 0,0,0
 730.3 332.89 730.3 332.89 730.3 446.64 c 0,0,0
 730.3 536.36 730.3 536.36 685.055 582.9 c 0,0,0
 639.81 629.44 639.81 629.44 559.35 629.44 c 0,0,0
EndSplineSet
EndChar

StartChar: nine
Encoding: 57 57 28
Width: 1139
GlyphClass: 2
Flags: HW
LayerCount: 2
Fore
SplineSet
790.27 642.77 m 1,0,0
 725.93 573.69 725.93 573.69 655.395 541.975 c 0,0,0
 584.86 510.26 584.86 510.26 480.53 510.26 c 0,0,0
 382.81 510.26 382.81 510.26 304.45 555.61 c 0,0,0
 229.08 601.29 229.08 601.29 185.4 689.3 c 0,0,0
 141.72 777.31 141.72 777.31 141.72 896.96 c 0,0,0
 141.72 1044.97 141.72 1044.97 214.37 1169.31 c 0,0,0
 287.02 1293.98 287.02 1293.98 414.5 1361.99 c 0,0,0
 541.98 1430 541.98 1430 695.3 1430 c 0,0,0
 830.29 1430 830.29 1430 930.105 1371.835 c 0,0,0
 1029.92 1313.67 1029.92 1313.67 1085.405 1207.005 c 0,0,0
 1140.89 1100.34 1140.89 1100.34 1140.89 957 c 0,0,0
 1140.89 839.37 1140.89 839.37 1117.24 708.42 c 0,0,0
 1093.59 577.47 1093.59 577.47 1049.29 454.185 c 0,0,0
 1004.99 330.9 1004.99 330.9 941.71 234.93 c 0,0,0
 888.35 156.81 888.35 156.81 819.99 100.42 c 0,0,0
 750.63 42.03 750.63 42.03 668.27 11.015 c 0,0,0
 585.91 -20 585.91 -20 487.58 -20 c 0,0,0
 296.34 -20 296.34 -20 180.225 71.61 c 0,0,0
 64.11 163.22 64.11 163.22 40.74 328.82 c 1,0,0
 353.02 377.81 l 1,0,0
 363.72 300.79 363.72 300.79 403.435 264.1 c 0,0,0
 443.15 227.41 443.15 227.41 510.21 227.41 c 0,0,0
 612.35 227.41 612.35 227.41 681.955 329.35 c 0,0,0
 751.56 431.29 751.56 431.29 790.27 642.77 c 1,0,0
831.9 1006.36 m 0,0,0
 831.9 1082.14 831.9 1082.14 788.17 1133.86 c 0,0,0
 744.44 1185.58 744.44 1185.58 678 1185.58 c 0,0,0
 575.22 1185.58 575.22 1185.58 517.8 1109.5 c 0,0,0
 460.38 1033.42 460.38 1033.42 460.38 906.93 c 0,0,0
 460.38 834.14 460.38 834.14 503.43 786.425 c 0,0,0
 546.48 738.71 546.48 738.71 621.23 738.71 c 0,0,0
 702.93 738.71 702.93 738.71 755.67 783.06 c 0,0,0
 831.9 853.81 831.9 853.81 831.9 1006.36 c 0,0,0
EndSplineSet
EndChar

StartChar: colon
Encoding: 58 58 29
Width: 719
GlyphClass: 2
Flags: HW
LayerCount: 2
Fore
SplineSet
608.03 1018.16 m 1,0,0
 548.41 711.41 l 1,0,0
 229.72 711.41 l 1,0,0
 289.34 1018.16 l 1,0,0
 608.03 1018.16 l 1,0,0
469.95 305.42 m 1,0,0
 410.33 0 l 1,0,0
 91.64 0 l 1,0,0
 151.26 305.42 l 1,0,0
 469.95 305.42 l 1,0,0
EndSplineSet
EndChar

StartChar: semicolon
Encoding: 59 59 30
Width: 719
GlyphClass: 2
Flags: HW
LayerCount: 2
Fore
SplineSet
603.74 1018.16 m 1,0,0
 543.79 711.41 l 1,0,0
 225.1 711.41 l 1,0,0
 285.05 1018.16 l 1,0,0
 603.74 1018.16 l 1,0,0
419.7 70.95 m 2,0,0
 395.05 -57.3 395.05 -57.3 349.415 -153.58 c 0,0,0
 303.78 -249.86 303.78 -249.86 222.18 -335.15 c 1,0,0
 18.05 -335.15 l 1,0,0
 101.99 -253.85 101.99 -253.85 158.605 -165.24 c 0,0,0
 215.22 -76.63 215.22 -76.63 229.55 0 c 1,0,0
 87.02 0 l 1,0,0
 146.97 305.42 l 1,0,0
 465.66 305.42 l 1,0,0
 419.7 70.95 l 2,0,0
EndSplineSet
EndChar

StartChar: less
Encoding: 60 60 31
Width: 1196
GlyphClass: 2
Flags: HW
LayerCount: 2
Fore
SplineSet
1159.25 366.85 m 1,0,0
 1159.25 115.43 l 1,0,0
 121.69 497.85 l 1,0,0
 121.69 858.46 l 1,0,0
 1159.25 1240.55 l 1,0,0
 1159.25 988.13 l 1,0,0
 334.5 676.66 l 1,0,0
 1159.25 366.85 l 1,0,0
EndSplineSet
EndChar

StartChar: equal
Encoding: 61 61 32
Width: 1196
GlyphClass: 2
Flags: HW
LayerCount: 2
Fore
SplineSet
1158.25 1085.13 m 1,0,0
 1158.25 837.38 l 1,0,0
 120.69 837.38 l 1,0,0
 120.69 1085.13 l 1,0,0
 1158.25 1085.13 l 1,0,0
1158.25 518.6 m 1,0,0
 1158.25 273.51 l 1,0,0
 120.69 273.51 l 1,0,0
 120.69 518.6 l 1,0,0
 1158.25 518.6 l 1,0,0
EndSplineSet
EndChar

StartChar: greater
Encoding: 62 62 33
Width: 1196
GlyphClass: 2
Flags: HW
LayerCount: 2
Fore
SplineSet
1159.25 497.85 m 1,0,0
 121.69 115.43 l 1,0,0
 121.69 366.85 l 1,0,0
 945.11 676.66 l 1,0,0
 121.69 988.13 l 1,0,0
 121.69 1240.55 l 1,0,0
 1159.25 858.46 l 1,0,0
 1159.25 497.85 l 1,0,0
EndSplineSet
EndChar

StartChar: question
Encoding: 63 63 34
Width: 1287
GlyphClass: 2
Flags: HW
LayerCount: 2
Fore
SplineSet
759.52 1430 m 0,0,0
 906.15 1430 906.15 1430 1012.46 1388.49 c 0,0,0
 1118.77 1346.98 1118.77 1346.98 1176.425 1268.475 c 0,0,0
 1234.08 1189.97 1234.08 1189.97 1234.08 1075.66 c 0,0,0
 1234.08 1047.82 1234.08 1047.82 1232.175 1016.56 c 0,0,0
 1230.27 985.3 1230.27 985.3 1220.84 955.25 c 0,0,0
 1198.15 903.96 1198.15 903.96 1161.645 857.175 c 0,0,0
 1125.14 810.39 1125.14 810.39 1054.05 758.295 c 0,0,0
 982.96 706.2 982.96 706.2 856.51 636.98 c 0,0,0
 825.43 615.28 825.43 615.28 804.045 599.575 c 0,0,0
 782.66 583.87 782.66 583.87 773.28 575.15 c 0,0,0
 745.28 549.14 745.28 549.14 726.79 517.81 c 0,0,0
 708.3 486.48 708.3 486.48 702.63 442.17 c 1,0,0
 405.27 442.17 l 1,0,0
 419.27 518.18 419.27 518.18 449.28 575.52 c 0,0,0
 469.29 612.86 469.29 612.86 495.63 645.36 c 0,0,0
 521.97 677.86 521.97 677.86 566.82 713.53 c 0,0,0
 611.67 749.2 611.67 749.2 686.04 796.54 c 0,0,0
 760.32 843.83 760.32 843.83 808.295 879.305 c 0,0,0
 856.27 914.78 856.27 914.78 884.59 949.08 c 0,0,0
 905.32 975.45 905.32 975.45 912.36 1000.18 c 0,0,0
 919.4 1024.91 919.4 1024.91 919.4 1055.99 c 0,0,0
 919.4 1107.44 919.4 1107.44 879.65 1142.835 c 0,0,0
 839.9 1178.23 839.9 1178.23 743.85 1178.23 c 0,0,0
 639.76 1178.23 639.76 1178.23 576.69 1137.49 c 0,0,0
 513.62 1096.75 513.62 1096.75 491.58 1008 c 1,0,0
 192.25 1048 l 1,0,0
 249.93 1237.68 249.93 1237.68 391.085 1333.84 c 0,0,0
 532.24 1430 532.24 1430 759.52 1430 c 0,0,0
688.61 292.77 m 1,0,0
 632.32 0 l 1,0,0
 312.3 0 l 1,0,0
 368.59 292.77 l 1,0,0
 688.61 292.77 l 1,0,0
EndSplineSet
EndChar

StartChar: at
Encoding: 64 64 35
Width: 1969
GlyphClass: 2
Flags: HW
LayerCount: 2
Fore
SplineSet
1903.08 755 m 0,0,0
 1903.08 574.32 1903.08 574.32 1838.1 424.32 c 0,0,0
 1772.12 274.65 1772.12 274.65 1656.985 189.325 c 0,0,0
 1541.85 104 1541.85 104 1410.86 104 c 0,0,0
 1321.83 104 1321.83 104 1273.485 149.5 c 0,0,0
 1225.14 195 1225.14 195 1225.14 274.68 c 0,0,0
 1224.81 294.34 1224.81 294.34 1226.64 310.345 c 0,0,0
 1228.47 326.35 1228.47 326.35 1232.13 340.69 c 1,0,0
 1226.13 340.69 l 1,0,0
 1181.41 241.63 1181.41 241.63 1082.58 172.815 c 0,0,0
 983.75 104 983.75 104 884.05 104 c 0,0,0
 727.05 104 727.05 104 640.55 205.335 c 0,0,0
 554.05 306.67 554.05 306.67 554.05 489 c 0,0,0
 554.05 650.67 554.05 650.67 619.05 795.33 c 0,0,0
 684.05 938.99 684.05 938.99 797.555 1019.995 c 0,0,0
 911.06 1101 911.06 1101 1053.39 1101 c 0,0,0
 1240.8 1101 1240.8 1101 1305.18 929.64 c 1,0,0
 1311.18 929.64 l 1,0,0
 1350.18 1079 l 1,0,0
 1506.18 1079 l 1,0,0
 1388.85 573 l 2,0,0
 1351.85 400.03 1351.85 400.03 1351.85 337.29 c 0,0,0
 1351.85 286.3 1351.85 286.3 1376.34 266.125 c 0,0,0
 1400.83 245.95 1400.83 245.95 1428.86 245.95 c 0,0,0
 1508.53 245.95 1508.53 245.95 1583.51 316.28 c 0,0,0
 1658.16 385.28 1658.16 385.28 1701.98 500.295 c 0,0,0
 1745.8 615.31 1745.8 615.31 1745.8 753 c 0,0,0
 1745.8 928.34 1745.8 928.34 1670.13 1060.36 c 0,0,0
 1594.46 1193.04 1594.46 1193.04 1450.125 1265.545 c 0,0,0
 1305.79 1338.05 1305.79 1338.05 1115.78 1338.05 c 0,0,0
 876.11 1338.05 876.11 1338.05 694.43 1233.71 c 0,0,0
 512.42 1129.37 512.42 1129.37 408.415 932.525 c 0,0,0
 304.41 735.68 304.41 735.68 304.41 491 c 0,0,0
 304.41 297 304.41 297 384.74 148.34 c 0,0,0
 465.4 0.34 465.4 0.34 607.25 -74.005 c 0,0,0
 749.1 -148.35 749.1 -148.35 941.78 -148.35 c 0,0,0
 1227.85 -148.35 1227.85 -148.35 1526.16 4.34 c 1,0,0
 1590.47 -120.96 l 1,0,0
 1414.88 -218.6 1414.88 -218.6 1257.35 -258.115 c 0,0,0
 1099.82 -297.63 1099.82 -297.63 932.47 -297.63 c 0,0,0
 697.79 -297.63 697.79 -297.63 518.79 -201.3 c 0,0,0
 338.79 -106.3 338.79 -106.3 237.135 75.355 c 0,0,0
 135.48 257.01 135.48 257.01 135.48 491 c 0,0,0
 135.48 775.32 135.48 775.32 263.14 1003.99 c 0,0,0
 389.47 1232.99 389.47 1232.99 613.295 1358.495 c 0,0,0
 837.12 1484 837.12 1484 1113.78 1484 c 0,0,0
 1357.44 1484 1357.44 1484 1536.43 1394 c 0,0,0
 1715.42 1303 1715.42 1303 1809.25 1138 c 0,0,0
 1903.08 973 1903.08 973 1903.08 755 c 0,0,0
1242.55 752.32 m 0,0,0
 1242.55 845.01 1242.55 845.01 1185.195 904.185 c 0,0,0
 1127.84 963.36 1127.84 963.36 1039.12 963.36 c 0,0,0
 947.43 963.36 947.43 963.36 874.75 901.69 c 0,0,0
 801.07 839.02 801.07 839.02 760.725 724.355 c 0,0,0
 720.38 609.69 720.38 609.69 720.38 491 c 0,0,0
 720.38 378.98 720.38 378.98 769.21 313.64 c 0,0,0
 818.04 248.3 818.04 248.3 918.37 248.3 c 0,0,0
 979.75 248.3 979.75 248.3 1038.785 290.305 c 0,0,0
 1097.82 332.31 1097.82 332.31 1144.84 411.64 c 0,0,0
 1176.52 464.97 1176.52 464.97 1198.03 530.295 c 0,0,0
 1219.54 595.62 1219.54 595.62 1231.045 655.29 c 0,0,0
 1242.55 714.96 1242.55 714.96 1242.55 752.32 c 0,0,0
EndSplineSet
EndChar

StartChar: A
Encoding: 65 65 36
Width: 1516
GlyphClass: 2
Flags: HW
LayerCount: 2
Fore
SplineSet
480 342.84 m 1,0,0
 299.85 0 l 1,0,0
 -22.53 0 l 1,0,0
 744.34 1409 l 1,0,0
 1135.57 1409 l 1,0,0
 1355.75 0 l 1,0,0
 1031.74 0 l 1,0,0
 983.34 342.84 l 1,0,0
 480 342.84 l 1,0,0
891.18 1167.91 m 1,0,0
 880.19 1129.64 880.19 1129.64 849.91 1064.76 c 0,0,0
 819.63 999.88 819.63 999.88 773.05 908.72 c 2,0,0
 610.55 588.93 l 1,0,0
 961.99 588.93 l 1,0,0
 906.54 1007.6 l 2,0,0
 896.88 1085.5 896.88 1085.5 892.875 1125.495 c 0,0,0
 888.87 1165.49 888.87 1165.49 891.18 1167.91 c 1,0,0
EndSplineSet
EndChar

StartChar: B
Encoding: 66 66 37
Width: 1516
GlyphClass: 2
Flags: HW
LayerCount: 2
Fore
SplineSet
1407.93 428.36 m 0,0,0
 1407.93 218.02 1407.93 218.02 1251.265 109.01 c 0,0,0
 1094.6 0 1094.6 0 768.39 0 c 2,0,0
 27.09 0 l 1,0,0
 301.42 1409 l 1,0,0
 909.84 1409 l 2,0,0
 1174.7 1409 1174.7 1409 1306.505 1327.82 c 0,0,0
 1438.31 1246.64 1438.31 1246.64 1438.31 1081.68 c 0,0,0
 1438.31 805.99 1438.31 805.99 1119.26 736.35 c 1,0,0
 1254.6 713.35 1254.6 713.35 1331.265 630.52 c 0,0,0
 1407.93 547.69 1407.93 547.69 1407.93 428.36 c 0,0,0
521.39 851.23 m 1,0,0
 803.18 851.23 l 2,0,0
 977.19 851.23 977.19 851.23 1045.74 891.125 c 0,0,0
 1114.29 931.02 1114.29 931.02 1114.29 1028.1 c 0,0,0
 1114.29 1103.48 1114.29 1103.48 1060.59 1135.85 c 0,0,0
 1006.89 1168.22 1006.89 1168.22 872.89 1168.22 c 2,0,0
 581.79 1168.22 l 1,0,0
 521.39 851.23 l 1,0,0
402.7 240.78 m 1,0,0
 717.5 240.78 l 2,0,0
 926.17 240.78 926.17 240.78 1001.725 283.69 c 0,0,0
 1077.28 326.6 1077.28 326.6 1077.28 435.35 c 0,0,0
 1077.28 519.74 1077.28 519.74 1013.075 565.1 c 0,0,0
 948.87 610.46 948.87 610.46 793.22 610.46 c 2,0,0
 475.1 610.46 l 1,0,0
 402.7 240.78 l 1,0,0
EndSplineSet
EndChar

StartChar: C
Encoding: 67 67 38
Width: 1479
GlyphClass: 2
Flags: HW
LayerCount: 2
Fore
SplineSet
1127.22 483.19 m 1,0,0
 1381.94 356.95 l 1,0,0
 1283.87 171.61 1283.87 171.61 1115.225 75.805 c 0,0,0
 946.58 -20 946.58 -20 714.63 -20 c 0,0,0
 520.33 -20 520.33 -20 380.68 51.67 c 0,0,0
 239.7 123.67 239.7 123.67 167.705 257.005 c 0,0,0
 95.71 390.34 95.71 390.34 95.71 569 c 0,0,0
 95.71 822.98 95.71 822.98 200.71 1021.98 c 0,0,0
 305.71 1219.65 305.71 1219.65 494.87 1324.825 c 0,0,0
 684.03 1430 684.03 1430 927.33 1430 c 0,0,0
 1161.62 1430 1161.62 1430 1308.46 1328.86 c 0,0,0
 1455.3 1227.72 1455.3 1227.72 1507.29 1022.49 c 1,0,0
 1202.27 946.21 l 1,0,0
 1175.58 1051.56 1175.58 1051.56 1100.675 1112.24 c 0,0,0
 1025.77 1172.92 1025.77 1172.92 918.66 1172.92 c 0,0,0
 697.75 1172.92 697.75 1172.92 566.73 1027.73 c 0,0,0
 502.54 949.04 502.54 949.04 468.105 835.255 c 0,0,0
 433.67 721.47 433.67 721.47 433.67 575.31 c 0,0,0
 433.67 411.22 433.67 411.22 511.415 323.65 c 0,0,0
 589.16 236.08 589.16 236.08 736.94 236.08 c 0,0,0
 864.99 236.08 864.99 236.08 961.735 297.61 c 0,0,0
 1058.48 359.14 1058.48 359.14 1127.22 483.19 c 1,0,0
EndSplineSet
EndChar

StartChar: D
Encoding: 68 68 39
Width: 1479
GlyphClass: 2
Flags: HW
LayerCount: 2
Fore
SplineSet
730.7 1409 m 2,0,0
 957.32 1409 957.32 1409 1111.975 1341.15 c 0,0,0
 1266.63 1273.3 1266.63 1273.3 1345.135 1140.62 c 0,0,0
 1423.64 1007.94 1423.64 1007.94 1423.64 812.28 c 0,0,0
 1423.64 577.94 1423.64 577.94 1325.96 393.96 c 0,0,0
 1228.28 211.64 1228.28 211.64 1042.095 105.82 c 0,0,0
 855.91 0 855.91 0 626.87 0 c 2,0,0
 27.09 0 l 1,0,0
 301.42 1409 l 1,0,0
 730.7 1409 l 2,0,0
405.36 252.75 m 1,0,0
 617.54 252.75 l 2,0,0
 765.66 252.75 765.66 252.75 881.74 318.78 c 0,0,0
 996.16 383.81 996.16 383.81 1058.37 507.365 c 0,0,0
 1120.58 630.92 1120.58 630.92 1120.58 794.33 c 0,0,0
 1120.58 973.43 1120.58 973.43 1021.845 1064.84 c 0,0,0
 923.11 1156.25 923.11 1156.25 734.68 1156.25 c 2,0,0
 580.46 1156.25 l 1,0,0
 405.36 252.75 l 1,0,0
EndSplineSet
EndChar

StartChar: E
Encoding: 69 69 40
Width: 1366
GlyphClass: 2
Flags: HW
LayerCount: 2
Fore
SplineSet
1244.18 251.76 m 1,0,0
 1194.23 0 l 1,0,0
 27.09 0 l 1,0,0
 300.09 1409 l 1,0,0
 1427.56 1409 l 1,0,0
 1378.94 1157.24 l 1,0,0
 580.79 1157.24 l 1,0,0
 518.06 835.58 l 1,0,0
 1254.88 835.58 l 1,0,0
 1206.26 583.16 l 1,0,0
 469.44 583.16 l 1,0,0
 405.03 251.76 l 1,0,0
 1244.18 251.76 l 1,0,0
EndSplineSet
EndChar

StartChar: F
Encoding: 70 70 41
Width: 1251
GlyphClass: 2
Flags: HW
LayerCount: 2
Fore
SplineSet
453.11 499.18 m 1,0,0
 355.08 0 l 1,0,0
 27.09 0 l 1,0,0
 300.09 1409 l 1,0,0
 1277.84 1409 l 1,0,0
 1229.22 1157.24 l 1,0,0
 580.79 1157.24 l 1,0,0
 501.4 750.28 l 1,0,0
 1127.16 750.28 l 1,0,0
 1078.87 499.18 l 1,0,0
 453.11 499.18 l 1,0,0
EndSplineSet
EndChar

StartChar: G
Encoding: 71 71 42
Width: 1593
GlyphClass: 2
Flags: HW
LayerCount: 2
Fore
SplineSet
739.34 -18.67 m 0,0,0
 440.99 -18.67 440.99 -18.67 270.33 140.655 c 0,0,0
 99.67 299.98 99.67 299.98 99.67 586.3 c 0,0,0
 99.67 837.63 99.67 837.63 204.67 1029.64 c 0,0,0
 308.34 1222.65 308.34 1222.65 499.51 1326.325 c 0,0,0
 690.68 1430 690.68 1430 941.34 1430 c 0,0,0
 1171.32 1430 1171.32 1430 1328.615 1320.73 c 0,0,0
 1485.91 1211.46 1485.91 1211.46 1538.25 1019.53 c 1,0,0
 1226.88 933.61 l 1,0,0
 1200.52 1045.95 1200.52 1045.95 1122.14 1109.435 c 0,0,0
 1043.76 1172.92 1043.76 1172.92 924.02 1172.92 c 0,0,0
 775.58 1172.92 775.58 1172.92 663.83 1101.55 c 0,0,0
 552.08 1030.18 552.08 1030.18 492.37 898.945 c 0,0,0
 432.66 767.71 432.66 767.71 432.66 596.95 c 0,0,0
 432.66 429.84 432.66 429.84 520.735 332.96 c 0,0,0
 608.81 236.08 608.81 236.08 769.28 236.08 c 0,0,0
 867.38 236.08 867.38 236.08 961.46 257.625 c 0,0,0
 1055.54 279.17 1055.54 279.17 1120.61 312.28 c 1,0,0
 1164.96 531.7 l 1,0,0
 849.03 531.7 l 1,0,0
 890.34 755.54 l 1,0,0
 1509.95 755.54 l 1,0,0
 1403.3 163.45 l 1,0,0
 1242.02 60.74 1242.02 60.74 1086.845 21.035 c 0,0,0
 931.67 -18.67 931.67 -18.67 739.34 -18.67 c 0,0,0
EndSplineSet
EndChar

StartChar: H
Encoding: 72 72 43
Width: 1479
GlyphClass: 2
Flags: HW
LayerCount: 2
Fore
SplineSet
470.11 587.83 m 1,0,0
 355.08 0 l 1,0,0
 27.09 0 l 1,0,0
 299.76 1409 l 1,0,0
 629.08 1409 l 1,0,0
 522.39 859.55 l 1,0,0
 1101.86 859.55 l 1,0,0
 1208.55 1409 l 1,0,0
 1524.89 1409 l 1,0,0
 1250.89 0 l 1,0,0
 934.55 0 l 1,0,0
 1049.58 587.83 l 1,0,0
 470.11 587.83 l 1,0,0
EndSplineSet
EndChar

StartChar: I
Encoding: 73 73 44
Width: 569
GlyphClass: 2
Flags: HW
LayerCount: 2
Fore
SplineSet
623.14 1409 m 1,0,0
 349.14 0 l 1,0,0
 21.15 0 l 1,0,0
 293.82 1409 l 1,0,0
 623.14 1409 l 1,0,0
EndSplineSet
EndChar

StartChar: J
Encoding: 74 74 45
Width: 1176
GlyphClass: 2
Flags: HW
LayerCount: 2
Fore
SplineSet
512.67 -20 m 0,0,0
 312.44 -20 312.44 -20 194.65 76.99 c 0,0,0
 76.86 173.98 76.86 173.98 34.9 390.88 c 1,0,0
 334.57 457.13 l 1,0,0
 357.57 345.45 357.57 345.45 408.25 290.765 c 0,0,0
 458.93 236.08 458.93 236.08 532.33 236.08 c 0,0,0
 582.7 236.08 582.7 236.08 616.07 259.42 c 0,0,0
 646.8 281.11 646.8 281.11 666.345 317.025 c 0,0,0
 685.89 352.94 685.89 352.94 702.9 440 c 2,0,0
 889.9 1409 l 1,0,0
 1218.22 1409 l 1,0,0
 1025.22 423 l 2,0,0
 979.56 189.69 979.56 189.69 857.58 84.845 c 0,0,0
 735.6 -20 735.6 -20 512.67 -20 c 0,0,0
EndSplineSet
EndChar

StartChar: K
Encoding: 75 75 46
Width: 1516
GlyphClass: 2
Flags: HW
LayerCount: 2
Fore
SplineSet
451.77 507.76 m 1,0,0
 352.42 0 l 1,0,0
 27.09 0 l 1,0,0
 300.09 1409 l 1,0,0
 629.41 1409 l 1,0,0
 501.39 787.16 l 1,0,0
 666.66 922.81 l 1,0,0
 1246.54 1409 l 1,0,0
 1656.46 1409 l 1,0,0
 910.45 797.62 l 1,0,0
 1345.09 0 l 1,0,0
 986.09 0 l 1,0,0
 669.7 628.78 l 1,0,0
 451.77 507.76 l 1,0,0
EndSplineSet
EndChar

StartChar: L
Encoding: 76 76 47
Width: 1287
GlyphClass: 2
Flags: HW
LayerCount: 2
Fore
SplineSet
1175.55 251.76 m 1,0,0
 1125.6 0 l 1,0,0
 27.09 0 l 1,0,0
 300.09 1409 l 1,0,0
 629.41 1409 l 1,0,0
 405.03 251.76 l 1,0,0
 1175.55 251.76 l 1,0,0
EndSplineSet
EndChar

StartChar: M
Encoding: 77 77 48
Width: 1706
GlyphClass: 2
Flags: HW
LayerCount: 2
Fore
SplineSet
482.21 836.18 m 2,0,0
 319.45 0 l 1,0,0
 27.09 0 l 1,0,0
 301.42 1409 l 1,0,0
 748.89 1409 l 1,0,0
 803.56 683.37 l 2,0,0
 810.22 597.87 810.22 597.87 816.225 523.095 c 0,0,0
 822.23 448.32 822.23 448.32 826.25 383.94 c 1,0,0
 841.61 419.65 841.61 419.65 854.975 450.54 c 0,0,0
 868.34 481.43 868.34 481.43 881.04 506.5 c 2,0,0
 1315.67 1409 l 1,0,0
 1753.88 1409 l 1,0,0
 1479.55 0 l 1,0,0
 1187.85 0 l 1,0,0
 1357.21 869.48 l 2,0,0
 1368.56 925.57 1368.56 925.57 1387.72 1007.885 c 0,0,0
 1406.88 1090.2 1406.88 1090.2 1434.18 1198.74 c 1,0,0
 1362.95 1042.64 1362.95 1042.64 1323.815 956.725 c 0,0,0
 1284.68 870.81 1284.68 870.81 1266.67 831.14 c 0,0,0
 1248.66 791.47 1248.66 791.47 1238.64 772.44 c 2,0,0
 871.52 0 l 1,0,0
 633.14 0 l 1,0,0
 569.17 776.43 l 2,0,0
 548.88 965.99 548.88 965.99 539.71 1071.07 c 0,0,0
 530.54 1176.15 530.54 1176.15 529.5 1198.74 c 1,0,0
 512.2 1046.38 512.2 1046.38 500.71 955.99 c 0,0,0
 489.22 865.6 489.22 865.6 482.21 836.18 c 2,0,0
EndSplineSet
EndChar

StartChar: N
Encoding: 78 78 49
Width: 1479
GlyphClass: 2
Flags: HW
LayerCount: 2
Fore
SplineSet
491.14 875.17 m 2,0,0
 319.45 0 l 1,0,0
 27.09 0 l 1,0,0
 301.42 1409 l 1,0,0
 696.96 1409 l 1,0,0
 1022.15 292.42 l 1,0,0
 1037.81 398.06 1037.81 398.06 1045.485 445.785 c 0,0,0
 1053.16 493.51 1053.16 493.51 1061.83 539.18 c 2,0,0
 1233.52 1409 l 1,0,0
 1525.22 1409 l 1,0,0
 1250.89 0 l 1,0,0
 850.01 0 l 1,0,0
 527.82 1104.93 l 1,0,0
 516.82 1025.25 516.82 1025.25 507.65 967.56 c 0,0,0
 498.48 909.87 498.48 909.87 491.14 875.17 c 2,0,0
EndSplineSet
EndChar

StartChar: O
Encoding: 79 79 50
Width: 1593
GlyphClass: 2
Flags: HW
LayerCount: 2
Fore
SplineSet
924.7 1430 m 0,0,0
 1124.33 1430 1124.33 1430 1267.64 1359.665 c 0,0,0
 1410.95 1289.33 1410.95 1289.33 1488.77 1159.995 c 0,0,0
 1566.59 1030.66 1566.59 1030.66 1566.59 851 c 0,0,0
 1567.91 610.27 1567.91 610.27 1463.9 405.29 c 0,0,0
 1358.23 198.65 1358.23 198.65 1168.24 89.325 c 0,0,0
 978.25 -20 978.25 -20 732.94 -20 c 0,0,0
 543.91 -20 543.91 -20 399.59 49.03 c 0,0,0
 251.98 121.36 251.98 121.36 174.175 257.015 c 0,0,0
 96.37 392.67 96.37 392.67 96.37 573 c 0,0,0
 96.37 807.68 96.37 807.68 202.37 1011.67 c 0,0,0
 307.37 1215.66 307.37 1215.66 493.71 1322.83 c 0,0,0
 680.05 1430 680.05 1430 924.7 1430 c 0,0,0
909.05 1170.93 m 0,0,0
 759.26 1170.93 759.26 1170.93 653.84 1100.55 c 0,0,0
 583.45 1053.52 583.45 1053.52 534.08 973.135 c 0,0,0
 484.71 892.75 484.71 892.75 458.525 793.03 c 0,0,0
 432.34 693.31 432.34 693.31 432.34 586.94 c 0,0,0
 432.34 411.19 432.34 411.19 516.895 324.3 c 0,0,0
 601.45 237.41 601.45 237.41 748.59 237.41 c 0,0,0
 897.71 237.41 897.71 237.41 1003.46 308.45 c 0,0,0
 1074.18 355.81 1074.18 355.81 1123.885 435.355 c 0,0,0
 1173.59 514.9 1173.59 514.9 1199.445 614.29 c 0,0,0
 1225.3 713.68 1225.3 713.68 1225.3 820.4 c 0,0,0
 1225.3 986.17 1225.3 986.17 1144.73 1078.55 c 0,0,0
 1064.16 1170.93 1064.16 1170.93 909.05 1170.93 c 0,0,0
EndSplineSet
EndChar

StartChar: P
Encoding: 80 80 51
Width: 1366
GlyphClass: 2
Flags: HW
LayerCount: 2
Fore
SplineSet
849.34 1409 m 2,0,0
 1100.29 1409 1100.29 1409 1237.285 1294.36 c 0,0,0
 1374.28 1179.72 1374.28 1179.72 1374.28 976.11 c 0,0,0
 1374.28 824.79 1374.28 824.79 1304.615 712.805 c 0,0,0
 1234.95 600.82 1234.95 600.82 1108.78 539.665 c 0,0,0
 982.61 478.51 982.61 478.51 811.93 478.51 c 2,0,0
 450.44 478.51 l 1,0,0
 355.08 0 l 1,0,0
 27.09 0 l 1,0,0
 300.09 1409 l 1,0,0
 849.34 1409 l 2,0,0
497.73 730.59 m 1,0,0
 754.39 730.59 l 2,0,0
 897.51 730.59 897.51 730.59 969.07 781.99 c 0,0,0
 1040.63 833.39 1040.63 833.39 1040.63 957.8 c 0,0,0
 1040.63 1054.19 1040.63 1054.19 981.58 1104.555 c 0,0,0
 922.53 1154.92 922.53 1154.92 813.75 1154.92 c 2,0,0
 580.46 1154.92 l 1,0,0
 497.73 730.59 l 1,0,0
EndSplineSet
EndChar

StartChar: Q
Encoding: 81 81 52
Width: 1593
GlyphClass: 2
Flags: HW
LayerCount: 2
Fore
SplineSet
928 1430 m 0,0,0
 1127.63 1430 1127.63 1430 1270.94 1359.665 c 0,0,0
 1414.25 1289.33 1414.25 1289.33 1492.07 1159.995 c 0,0,0
 1569.89 1030.66 1569.89 1030.66 1569.89 851 c 0,0,0
 1571.21 792.21 1571.21 792.21 1549.885 605.57 c 0,0,0
 1528.56 418.93 1528.56 418.93 1344.68 225.81 c 0,0,0
 1172.36 39.28 1172.36 39.28 901.8 -6.68 c 1,0,0
 921.46 -97.09 921.46 -97.09 965.475 -137.295 c 0,0,0
 1009.49 -177.5 1009.49 -177.5 1095.19 -177.5 c 0,0,0
 1177.47 -177.5 1177.47 -177.5 1254.1 -163.17 c 1,0,0
 1200.19 -378.3 l 1,0,0
 1130.51 -404.29 1130.51 -404.29 1031.19 -404.29 c 0,0,0
 819.01 -404.29 819.01 -404.29 704.095 -307.65 c 0,0,0
 589.18 -211.01 589.18 -211.01 566.18 -6.36 c 1,0,0
 451.15 15.94 451.15 15.94 364.285 68.585 c 0,0,0
 277.42 121.23 277.42 121.23 217.73 197.23 c 0,0,0
 99.67 347.24 99.67 347.24 99.67 573 c 0,0,0
 99.67 807.68 99.67 807.68 205.67 1011.67 c 0,0,0
 310.67 1215.66 310.67 1215.66 497.01 1322.83 c 0,0,0
 683.35 1430 683.35 1430 928 1430 c 0,0,0
912.35 1170.93 m 0,0,0
 762.56 1170.93 762.56 1170.93 657.14 1100.55 c 0,0,0
 586.75 1053.52 586.75 1053.52 537.38 973.135 c 0,0,0
 488.01 892.75 488.01 892.75 461.825 793.03 c 0,0,0
 435.64 693.31 435.64 693.31 435.64 586.94 c 0,0,0
 435.64 411.19 435.64 411.19 520.195 324.3 c 0,0,0
 604.75 237.41 604.75 237.41 751.89 237.41 c 0,0,0
 901.01 237.41 901.01 237.41 1006.76 308.45 c 0,0,0
 1077.48 355.81 1077.48 355.81 1127.185 435.355 c 0,0,0
 1176.89 514.9 1176.89 514.9 1202.745 614.29 c 0,0,0
 1228.6 713.68 1228.6 713.68 1228.6 820.4 c 0,0,0
 1228.6 986.17 1228.6 986.17 1148.03 1078.55 c 0,0,0
 1067.46 1170.93 1067.46 1170.93 912.35 1170.93 c 0,0,0
EndSplineSet
EndChar

StartChar: R
Encoding: 82 82 53
Width: 1479
GlyphClass: 2
Flags: HW
LayerCount: 2
Fore
SplineSet
456.11 517.17 m 1,0,0
 356.41 0 l 1,0,0
 27.09 0 l 1,0,0
 301.42 1409 l 1,0,0
 965.29 1409 l 2,0,0
 1127.6 1409 1127.6 1409 1241.26 1361.65 c 0,0,0
 1359.54 1311.66 1359.54 1311.66 1420.355 1217.525 c 0,0,0
 1481.17 1123.39 1481.17 1123.39 1481.17 995.11 c 0,0,0
 1481.17 837.7 1481.17 837.7 1372.505 721.05 c 0,0,0
 1263.84 604.4 1263.84 604.4 1086.09 576.73 c 1,0,0
 1362.07 0 l 1,0,0
 996.47 0 l 1,0,0
 770.76 517.17 l 1,0,0
 456.11 517.17 l 1,0,0
876.95 773.24 m 2,0,0
 1010.07 773.24 1010.07 773.24 1078.795 826.13 c 0,0,0
 1147.52 879.02 1147.52 879.02 1147.52 977.45 c 0,0,0
 1147.52 1064.18 1147.52 1064.18 1087.65 1109.55 c 0,0,0
 1027.78 1154.92 1027.78 1154.92 923.67 1154.92 c 2,0,0
 580.46 1154.92 l 1,0,0
 506.06 773.24 l 1,0,0
 876.95 773.24 l 2,0,0
EndSplineSet
EndChar

StartChar: S
Encoding: 83 83 54
Width: 1366
GlyphClass: 2
Flags: HW
LayerCount: 2
Fore
SplineSet
594.72 -20 m 0,0,0
 321.78 -20 321.78 -20 180.955 76.48 c 0,0,0
 40.13 172.96 40.13 172.96 14.11 373.91 c 1,0,0
 340.07 426.87 l 1,0,0
 359.09 321.81 359.09 321.81 424.825 273.12 c 0,0,0
 490.56 224.43 490.56 224.43 616.7 224.43 c 0,0,0
 774.52 224.43 774.52 224.43 855.57 268.65 c 0,0,0
 936.62 312.87 936.62 312.87 936.62 401.32 c 0,0,0
 936.62 432.41 936.62 432.41 926.24 461.605 c 0,0,0
 915.86 490.8 915.86 490.8 899.06 510.5 c 0,0,0
 870.71 535.81 870.71 535.81 811.375 559.8 c 0,0,0
 752.04 583.79 752.04 583.79 662.05 605.13 c 0,0,0
 474.1 655.12 474.1 655.12 384.44 708.78 c 0,0,0
 295.45 762.77 295.45 762.77 247.295 841.58 c 0,0,0
 199.14 920.39 199.14 920.39 199.14 1035.68 c 0,0,0
 199.14 1152.36 199.14 1152.36 271.3 1241.355 c 0,0,0
 343.46 1330.35 343.46 1330.35 472.79 1380.175 c 0,0,0
 602.12 1430 602.12 1430 773.46 1430 c 0,0,0
 1017.4 1430 1017.4 1430 1165.03 1340.035 c 0,0,0
 1312.66 1250.07 1312.66 1250.07 1345.33 1077.47 c 1,0,0
 1019.38 1005.19 l 1,0,0
 1001.01 1090.24 1001.01 1090.24 931.47 1144.895 c 0,0,0
 861.93 1199.55 861.93 1199.55 752.51 1199.55 c 0,0,0
 649.63 1199.55 649.63 1199.55 586.22 1157.175 c 0,0,0
 522.81 1114.8 522.81 1114.8 522.81 1046.01 c 0,0,0
 522.81 1003.3 522.81 1003.3 548.81 971.785 c 0,0,0
 574.81 940.27 574.81 940.27 622.17 917.92 c 0,0,0
 645.85 905.25 645.85 905.25 692.545 890.405 c 0,0,0
 739.24 875.56 739.24 875.56 808.95 856.55 c 0,0,0
 988.08 806.94 988.08 806.94 1066.06 764.315 c 0,0,0
 1144.04 721.69 1144.04 721.69 1191.03 666.1 c 0,0,0
 1222.5 618.76 1222.5 618.76 1239.57 559.895 c 0,0,0
 1256.64 501.03 1256.64 501.03 1256.64 427.95 c 0,0,0
 1256.64 208.65 1256.64 208.65 1087.01 94.325 c 0,0,0
 917.38 -20 917.38 -20 594.72 -20 c 0,0,0
EndSplineSet
EndChar

StartChar: T
Encoding: 84 84 55
Width: 1251
GlyphClass: 2
Flags: HW
LayerCount: 2
Fore
SplineSet
907.21 1157.24 m 1,0,0
 681.83 0 l 1,0,0
 352.18 0 l 1,0,0
 577.56 1157.24 l 1,0,0
 132.13 1157.24 l 1,0,0
 180.75 1409 l 1,0,0
 1402.59 1409 l 1,0,0
 1353.97 1157.24 l 1,0,0
 907.21 1157.24 l 1,0,0
EndSplineSet
EndChar

StartChar: U
Encoding: 85 85 56
Width: 1479
GlyphClass: 2
Flags: HW
LayerCount: 2
Fore
SplineSet
677.94 -20 m 0,0,0
 403.71 -20 403.71 -20 255.745 96.51 c 0,0,0
 107.78 213.02 107.78 213.02 107.78 431 c 0,0,0
 107.78 475 107.78 475 115.28 536.5 c 0,0,0
 122.78 598 122.78 598 130.78 635 c 2,0,0
 278.12 1409 l 1,0,0
 607.44 1409 l 1,0,0
 457.41 609.89 l 2,0,0
 439.08 523.88 439.08 523.88 439.08 428.32 c 0,0,0
 439.08 336.21 439.08 336.21 507.295 286.145 c 0,0,0
 575.51 236.08 575.51 236.08 693.94 236.08 c 0,0,0
 850.03 236.08 850.03 236.08 925.63 303.665 c 0,0,0
 1001.23 371.25 1001.23 371.25 1033.91 541 c 2,0,0
 1201.91 1409 l 1,0,0
 1531.56 1409 l 1,0,0
 1360.23 530 l 2,0,0
 1304.9 246.36 1304.9 246.36 1140.89 113.18 c 0,0,0
 976.88 -20 976.88 -20 677.94 -20 c 0,0,0
EndSplineSet
EndChar

StartChar: V
Encoding: 86 86 57
Width: 1366
GlyphClass: 2
Flags: HW
LayerCount: 2
Fore
SplineSet
1503.72 1409 m 1,0,0
 756.8 0 l 1,0,0
 371.27 0 l 1,0,0
 169.02 1409 l 1,0,0
 510.65 1409 l 1,0,0
 596.93 532.71 l 2,0,0
 604.6 456.08 604.6 456.08 609.11 387.595 c 0,0,0
 613.62 319.11 613.62 319.11 614.64 261.1 c 1,0,0
 634.34 311.13 634.34 311.13 649.22 345.7 c 0,0,0
 664.1 380.27 664.1 380.27 671.83 401.04 c 2,0,0
 1162.72 1409 l 1,0,0
 1503.72 1409 l 1,0,0
EndSplineSet
EndChar

StartChar: W
Encoding: 87 87 58
Width: 1933
GlyphClass: 2
Flags: HW
LayerCount: 2
Fore
SplineSet
970.31 871.06 m 2,0,0
 611.16 0 l 1,0,0
 212.6 0 l 1,0,0
 141.09 1409 l 1,0,0
 448.48 1409 l 1,0,0
 470.29 620.4 l 2,0,0
 473.63 534.09 473.63 534.09 474.305 447.755 c 0,0,0
 474.98 361.42 474.98 361.42 474.32 274.4 c 1,0,0
 505.01 353.77 505.01 353.77 538.84 437.915 c 0,0,0
 572.67 522.06 572.67 522.06 607.98 612.31 c 2,0,0
 933.94 1409 l 1,0,0
 1293.83 1409 l 1,0,0
 1310.31 558.6 l 2,0,0
 1311.99 482.93 1311.99 482.93 1313.83 411.88 c 0,0,0
 1315.67 340.83 1315.67 340.83 1319.33 274.4 c 1,0,0
 1325.41 296.22 1325.41 296.22 1344.58 347.22 c 0,0,0
 1363.75 398.22 1363.75 398.22 1393.38 474.78 c 2,0,0
 1753.35 1409 l 1,0,0
 2074.05 1409 l 1,0,0
 1452.55 0 l 1,0,0
 1060.64 0 l 1,0,0
 1048.16 784.61 l 2,0,0
 1049.13 914.83 l 0,0,0
 1049.12 989.18 1049.12 989.18 1046.79 1082.01 c 1,0,0
 1019.43 1008.61 1019.43 1008.61 1000.725 956.205 c 0,0,0
 982.02 903.8 982.02 903.8 970.31 871.06 c 2,0,0
EndSplineSet
EndChar

StartChar: X
Encoding: 88 88 59
Width: 1366
GlyphClass: 2
Flags: HW
LayerCount: 2
Fore
SplineSet
904.57 0 m 1,0,0
 668.07 507.58 l 1,0,0
 235.84 0 l 1,0,0
 -112.15 0 l 1,0,0
 539.19 732.7 l 1,0,0
 201.85 1409 l 1,0,0
 547.15 1409 l 1,0,0
 755.97 964.4 l 1,0,0
 1133.88 1409 l 1,0,0
 1480.54 1409 l 1,0,0
 880.54 731.67 l 1,0,0
 1247.21 0 l 1,0,0
 904.57 0 l 1,0,0
EndSplineSet
EndChar

StartChar: Y
Encoding: 89 89 60
Width: 1366
GlyphClass: 2
Flags: HW
LayerCount: 2
Fore
SplineSet
852.83 576.02 m 1,0,0
 741.16 0 l 1,0,0
 412.84 0 l 1,0,0
 523.85 576.02 l 1,0,0
 158.47 1409 l 1,0,0
 482.15 1409 l 1,0,0
 725.64 826.77 l 1,0,0
 1171.26 1409 l 1,0,0
 1530.23 1409 l 1,0,0
 852.83 576.02 l 1,0,0
EndSplineSet
EndChar

StartChar: Z
Encoding: 90 90 61
Width: 1251
GlyphClass: 2
Flags: HW
LayerCount: 2
Fore
SplineSet
1131.95 255.75 m 1,0,0
 1082 0 l 1,0,0
 -50.64 0 l 1,0,0
 -6.35 230.78 l 1,0,0
 878.74 1153.25 l 1,0,0
 249.4 1153.25 l 1,0,0
 299.35 1409 l 1,0,0
 1317.31 1409 l 1,0,0
 1273.02 1182.22 l 1,0,0
 383.94 255.75 l 1,0,0
 1131.95 255.75 l 1,0,0
EndSplineSet
EndChar

StartChar: bracketleft
Encoding: 91 91 62
Width: 719
GlyphClass: 2
Flags: HW
LayerCount: 2
Fore
SplineSet
567.56 -213.54 m 1,0,0
 526.6 -425 l 1,0,0
 -58.95 -425 l 1,0,0
 311.05 1484 l 1,0,0
 897.6 1484 l 1,0,0
 856.64 1273.87 l 1,0,0
 566.45 1273.87 l 1,0,0
 277.37 -213.54 l 1,0,0
 567.56 -213.54 l 1,0,0
EndSplineSet
EndChar

StartChar: backslash
Encoding: 92 92 63
Width: 569
GlyphClass: 2
Flags: HW
LayerCount: 2
Fore
SplineSet
367.15 1485.33 m 1,0,0
 551.8 -47.93 l 1,0,0
 278.77 -47.93 l 1,0,0
 99.45 1485.33 l 1,0,0
 367.15 1485.33 l 1,0,0
EndSplineSet
EndChar

StartChar: bracketright
Encoding: 93 93 64
Width: 719
GlyphClass: 2
Flags: HW
LayerCount: 2
Fore
SplineSet
780.9 1484 m 1,0,0
 409.9 -425 l 1,0,0
 -175.65 -425 l 1,0,0
 -134.69 -213.54 l 1,0,0
 157.16 -213.54 l 1,0,0
 446.24 1273.87 l 1,0,0
 153.39 1273.87 l 1,0,0
 194.35 1484 l 1,0,0
 780.9 1484 l 1,0,0
EndSplineSet
EndChar

StartChar: asciicircum
Encoding: 94 94 65
Width: 1273
GlyphClass: 2
Flags: HW
LayerCount: 2
Fore
SplineSet
678.24 1252.8 m 1,0,0
 348.3 461.53 l 1,0,0
 99.85 461.53 l 1,0,0
 498.44 1409 l 1,0,0
 859.71 1409 l 1,0,0
 1260.3 461.53 l 1,0,0
 1009.85 461.53 l 1,0,0
 678.24 1252.8 l 1,0,0
EndSplineSet
EndChar

StartChar: underscore
Encoding: 95 95 66
Width: 1139
GlyphClass: 2
Flags: HW
LayerCount: 2
Fore
SplineSet
1069.87 -171.34 m 1,0,0
 1069.87 -250 l 1,0,0
 -106.8 -250 l 1,0,0
 -106.8 -171.34 l 1,0,0
 1069.87 -171.34 l 1,0,0
EndSplineSet
EndChar

StartChar: grave
Encoding: 96 96 67
Width: 682
GlyphClass: 2
Flags: HW
LayerCount: 2
Fore
SplineSet
831.51 1211.69 m 1,0,0
 824.52 1177.06 l 1,0,0
 656.72 1177.06 l 1,0,0
 341.47 1452.4 l 1,0,0
 350.46 1500.02 l 1,0,0
 625.29 1500.02 l 1,0,0
 831.51 1211.69 l 1,0,0
EndSplineSet
EndChar

StartChar: a
Encoding: 97 97 68
Width: 1139
GlyphClass: 2
Flags: HW
LayerCount: 2
Fore
SplineSet
880.45 -10 m 0,0,0
 823.11 -10 823.11 -10 778.965 2.67 c 0,0,0
 734.82 15.34 734.82 15.34 707.01 42.175 c 0,0,0
 679.2 69.01 679.2 69.01 668.715 110.175 c 0,0,0
 658.23 151.34 658.23 151.34 667.55 207 c 1,0,0
 661.55 207 l 1,0,0
 627.21 153.66 627.21 153.66 591.535 111.16 c 0,0,0
 555.86 68.66 555.86 68.66 514.515 39.495 c 0,0,0
 473.17 10.33 473.17 10.33 421.66 -4.835 c 0,0,0
 370.15 -20 370.15 -20 302.48 -20 c 0,0,0
 235.48 -20 235.48 -20 179.31 1 c 0,0,0
 123.14 22 123.14 22 82.635 60.5 c 0,0,0
 42.13 99 42.13 99 20.125 154 c 0,0,0
 -1.88 209 -1.88 209 -1.88 278 c 0,0,0
 -1.88 377.68 -1.88 377.68 30.635 444.685 c 0,0,0
 63.15 511.69 63.15 511.69 118.835 553.69 c 0,0,0
 174.52 595.69 174.52 595.69 247.045 617.02 c 0,0,0
 319.57 638.35 319.57 638.35 399.255 647.845 c 0,0,0
 478.94 657.34 478.94 657.34 559.455 658.17 c 0,0,0
 639.97 659 639.97 659 711.97 660 c 1,0,0
 719.3 692.33 719.3 692.33 726.465 726.325 c 0,0,0
 733.63 760.32 733.63 760.32 733.63 792.32 c 0,0,0
 733.63 819.04 733.63 819.04 727.775 839.905 c 0,0,0
 721.92 860.77 721.92 860.77 710.05 874.955 c 0,0,0
 698.18 889.14 698.18 889.14 678.305 896.48 c 0,0,0
 658.43 903.82 658.43 903.82 630.72 903.82 c 0,0,0
 595.35 903.82 595.35 903.82 565.32 897.15 c 0,0,0
 535.29 890.48 535.29 890.48 512.595 874.97 c 0,0,0
 489.9 859.46 489.9 859.46 473.545 834.44 c 0,0,0
 457.19 809.42 457.19 809.42 449.17 771.72 c 1,0,0
 158.12 803.38 l 1,0,0
 176.14 890.37 176.14 890.37 223.465 947.695 c 0,0,0
 270.79 1005.02 270.79 1005.02 336.275 1039.015 c 0,0,0
 401.76 1073.01 401.76 1073.01 478.58 1087.505 c 0,0,0
 555.4 1102 555.4 1102 634.07 1102 c 0,0,0
 713.38 1102 713.38 1102 787.195 1091.485 c 0,0,0
 861.01 1080.97 861.01 1080.97 918.33 1049.96 c 0,0,0
 975.65 1018.95 975.65 1018.95 1009.81 960.955 c 0,0,0
 1043.97 902.96 1043.97 902.96 1043.97 807 c 0,0,0
 1043.97 769.66 1043.97 769.66 1035.145 728.665 c 0,0,0
 1026.32 687.67 1026.32 687.67 1018.32 650 c 2,0,0
 948.31 305.25 l 2,0,0
 944.64 289.9 944.64 289.9 942.97 271.725 c 0,0,0
 941.3 253.55 941.3 253.55 941.3 238.53 c 0,0,0
 941.3 203.52 941.3 203.52 964.63 189.845 c 0,0,0
 987.96 176.17 987.96 176.17 1019.64 176.17 c 0,0,0
 1035.97 176.17 1035.97 176.17 1051.635 177.505 c 0,0,0
 1067.3 178.84 1067.3 178.84 1082.3 183.17 c 1,0,0
 1068.3 13.98 l 1,0,0
 1023 -4.66 1023 -4.66 976.37 -7.33 c 0,0,0
 929.74 -10 929.74 -10 880.45 -10 c 0,0,0
316.8 337.87 m 0,0,0
 316.8 305.19 316.8 305.19 325.81 279.01 c 0,0,0
 334.82 252.83 334.82 252.83 351.835 234.155 c 0,0,0
 368.85 215.48 368.85 215.48 394.865 205.475 c 0,0,0
 420.88 195.47 420.88 195.47 453.56 195.47 c 0,0,0
 494.29 195.47 494.29 195.47 523.37 208.325 c 0,0,0
 552.45 221.18 552.45 221.18 574.02 242.225 c 0,0,0
 595.59 263.27 595.59 263.27 609.975 291.335 c 0,0,0
 624.36 319.4 624.36 319.4 634.37 349.82 c 2,0,0
 678.66 492.11 l 1,0,0
 525.24 492.44 l 2,0,0
 492.15 492.44 492.15 492.44 454.905 484.27 c 0,0,0
 417.66 476.1 417.66 476.1 387.1 457.08 c 0,0,0
 356.54 438.06 356.54 438.06 336.67 409.01 c 0,0,0
 316.8 379.96 316.8 379.96 316.8 337.87 c 0,0,0
EndSplineSet
EndChar

StartChar: b
Encoding: 98 98 69
Width: 1287
GlyphClass: 2
Flags: HW
LayerCount: 2
Fore
SplineSet
891.63 1102 m 0,0,0
 1051.29 1102 1051.29 1102 1140.785 1007.5 c 0,0,0
 1230.28 913 1230.28 913 1230.28 748 c 0,0,0
 1230.28 643.01 1230.28 643.01 1214.615 546.505 c 0,0,0
 1198.95 450 1198.95 450 1167.95 355 c 0,0,0
 1105.62 162.34 1105.62 162.34 992.955 71.17 c 0,0,0
 880.29 -20 880.29 -20 705.96 -20 c 0,0,0
 580.3 -20 580.3 -20 502.635 32 c 0,0,0
 424.97 84 424.97 84 392.97 178 c 1,0,0
 389.97 178 l 1,0,0
 380.65 135.72 380.65 135.72 373.815 110.365 c 0,0,0
 366.98 85.01 366.98 85.01 362.97 69.64 c 0,0,0
 358.3 56.28 358.3 56.28 352.47 39.115 c 0,0,0
 346.64 21.95 346.64 21.95 340.32 0 c 1,0,0
 36.98 0 l 1,0,0
 41.98 15 41.98 15 57.145 82 c 0,0,0
 72.31 149 72.31 149 85.98 223 c 2,0,0
 332.31 1484 l 1,0,0
 646.64 1484 l 1,0,0
 562.31 1055.68 l 2,0,0
 554.32 1020.71 554.32 1020.71 547.15 984.38 c 0,0,0
 539.98 948.05 539.98 948.05 530.97 910.36 c 1,0,0
 534.97 910.36 l 1,0,0
 585.36 990.73 585.36 990.73 677.665 1046.365 c 0,0,0
 769.97 1102 769.97 1102 891.63 1102 c 0,0,0
749.19 888.52 m 0,0,0
 641.98 888.52 641.98 888.52 573.24 820.95 c 0,0,0
 533.6 778.6 533.6 778.6 505.45 712.77 c 0,0,0
 477.3 646.94 477.3 646.94 459.31 553.67 c 0,0,0
 442.97 458.99 442.97 458.99 442.97 408.92 c 0,0,0
 442.97 307.86 442.97 307.86 492.505 250.33 c 0,0,0
 542.04 192.8 542.04 192.8 631.1 192.8 c 0,0,0
 724.51 192.8 724.51 192.8 776.56 251.51 c 0,0,0
 803.25 280.2 803.25 280.2 825.765 334.555 c 0,0,0
 848.28 388.91 848.28 388.91 865.62 453.77 c 0,0,0
 882.96 518.63 882.96 518.63 892.795 580.83 c 0,0,0
 902.63 643.03 902.63 643.03 902.63 686.74 c 0,0,0
 902.63 785.8 902.63 785.8 870.925 837.16 c 0,0,0
 839.22 888.52 839.22 888.52 749.19 888.52 c 0,0,0
EndSplineSet
EndChar

StartChar: c
Encoding: 99 99 70
Width: 1176
GlyphClass: 2
Flags: HW
LayerCount: 2
Fore
SplineSet
558.11 189.83 m 0,0,0
 634.51 189.83 634.51 189.83 682.57 240.68 c 0,0,0
 730.63 291.53 730.63 291.53 759.33 390.57 c 1,0,0
 1068.28 340.24 l 1,0,0
 967.56 -20 967.56 -20 538.15 -20 c 0,0,0
 308.91 -20 308.91 -20 185.295 93.655 c 0,0,0
 61.68 207.31 61.68 207.31 61.68 408.3 c 0,0,0
 61.68 602.65 61.68 602.65 142.66 772.32 c 0,0,0
 223.97 942.99 223.97 942.99 359.43 1022.495 c 0,0,0
 494.89 1102 494.89 1102 698.15 1102 c 0,0,0
 893.75 1102 893.75 1102 1011.535 1003.035 c 0,0,0
 1129.32 904.07 1129.32 904.07 1144.64 726.81 c 1,0,0
 825.33 704.47 l 1,0,0
 820.66 798.81 820.66 798.81 782.62 845.325 c 0,0,0
 744.58 891.84 744.58 891.84 670.87 891.84 c 0,0,0
 577.07 891.84 577.07 891.84 523.17 824.28 c 0,0,0
 469.27 756.72 469.27 756.72 417.3 571.04 c 1,0,0
 405.97 510.07 405.97 510.07 399.64 470.875 c 0,0,0
 393.31 431.68 393.31 431.68 393.31 412.94 c 0,0,0
 393.31 189.83 393.31 189.83 558.11 189.83 c 0,0,0
EndSplineSet
EndChar

StartChar: d
Encoding: 100 100 71
Width: 1287
GlyphClass: 2
Flags: HW
LayerCount: 2
Fore
SplineSet
389.03 -21 m 0,0,0
 236.02 -21 236.02 -21 145.195 83.475 c 0,0,0
 54.37 187.95 54.37 187.95 54.37 360.93 c 0,0,0
 54.37 549.63 54.37 549.63 119.03 728.33 c 0,0,0
 183.69 908.69 183.69 908.69 300.675 1005.51 c 0,0,0
 417.66 1102.33 417.66 1102.33 577.36 1102.33 c 0,0,0
 707.01 1102.33 707.01 1102.33 785.84 1053.655 c 0,0,0
 864.67 1004.98 864.67 1004.98 892.68 904.33 c 1,0,0
 897.68 904.33 l 1,0,0
 898.03 917.4 898.03 917.4 903.7 957.235 c 0,0,0
 909.37 997.07 909.37 997.07 923.02 1066.33 c 2,0,0
 1007.68 1484 l 1,0,0
 1316.69 1484 l 1,0,0
 1081 233.64 l 2,0,0
 1072.32 182.26 1072.32 182.26 1066.145 123.6 c 0,0,0
 1059.97 64.94 1059.97 64.94 1054.97 0 c 1,0,0
 738 0 l 1,0,0
 738 66.96 738 66.96 751.02 160 c 1,0,0
 747.35 160 l 1,0,0
 677.01 67.66 677.01 67.66 594.015 23.33 c 0,0,0
 511.02 -21 511.02 -21 389.03 -21 c 0,0,0
535.46 189.82 m 0,0,0
 680.91 189.82 680.91 189.82 756.63 323.56 c 0,0,0
 782.98 369.58 782.98 369.58 801.16 432.11 c 0,0,0
 819.34 494.64 819.34 494.64 829.845 558.675 c 0,0,0
 840.35 622.71 840.35 622.71 840.35 673.41 c 0,0,0
 840.35 791.76 840.35 791.76 798.795 841.31 c 0,0,0
 757.24 890.86 757.24 890.86 669.51 890.86 c 0,0,0
 575.44 890.86 575.44 890.86 512.42 822.85 c 0,0,0
 470.74 777.51 470.74 777.51 443.22 706.455 c 0,0,0
 415.7 635.4 415.7 635.4 401.52 555.17 c 0,0,0
 387.34 474.94 387.34 474.94 387.34 402.24 c 0,0,0
 387.34 296.53 387.34 296.53 425.03 243.175 c 0,0,0
 462.72 189.82 462.72 189.82 535.46 189.82 c 0,0,0
EndSplineSet
EndChar

StartChar: e
Encoding: 101 101 72
Width: 1139
GlyphClass: 2
Flags: HW
LayerCount: 2
Fore
SplineSet
391.66 467.09 m 1,0,0
 384.33 431.76 384.33 431.76 385.32 386.01 c 0,0,0
 385.32 288.92 385.32 288.92 425.22 237.205 c 0,0,0
 465.12 185.49 465.12 185.49 541.93 185.49 c 0,0,0
 608.34 185.49 608.34 185.49 652.76 225.51 c 0,0,0
 697.18 265.53 697.18 265.53 726.55 351.19 c 1,0,0
 1006.86 273.56 l 1,0,0
 931.2 105.32 931.2 105.32 820.695 42.66 c 0,0,0
 710.19 -20 710.19 -20 523.59 -20 c 0,0,0
 306.63 -20 306.63 -20 183.825 96.82 c 0,0,0
 61.02 213.64 61.02 213.64 61.02 422.29 c 0,0,0
 61.02 631.93 61.02 631.93 133.35 785.95 c 0,0,0
 205.68 939.63 205.68 939.63 339.335 1020.815 c 0,0,0
 472.99 1102 472.99 1102 651.28 1102 c 0,0,0
 861.6 1102 861.6 1102 974.935 993.015 c 0,0,0
 1088.27 884.03 1088.27 884.03 1088.27 685.39 c 0,0,0
 1088.27 588.04 1088.27 588.04 1064.27 467.09 c 1,0,0
 391.66 467.09 l 1,0,0
427.63 670.26 m 1,0,0
 802.86 670.26 l 1,0,0
 805.53 720.98 l 1,0,0
 805.53 822.37 805.53 822.37 760.98 865.76 c 0,0,0
 716.43 909.15 716.43 909.15 649.96 909.15 c 0,0,0
 566.5 909.15 566.5 909.15 509.58 848.92 c 0,0,0
 452.66 788.69 452.66 788.69 427.63 670.26 c 1,0,0
EndSplineSet
EndChar

StartChar: f
Encoding: 102 102 73
Width: 719
GlyphClass: 2
Flags: HW
LayerCount: 2
Fore
SplineSet
559.02 872.53 m 1,0,0
 388.65 0 l 1,0,0
 75.65 0 l 1,0,0
 246.02 872.53 l 1,0,0
 86.04 872.53 l 1,0,0
 126.67 1082 l 1,0,0
 286.65 1082 l 1,0,0
 308.32 1192.03 l 2,0,0
 330.32 1299.37 330.32 1299.37 381.29 1361.36 c 0,0,0
 433.92 1426.67 433.92 1426.67 518.695 1455.335 c 0,0,0
 603.47 1484 603.47 1484 723.08 1484 c 0,0,0
 791.43 1484 791.43 1484 888.31 1465.35 c 1,0,0
 849.01 1269.83 l 1,0,0
 844.66 1270.5 844.66 1270.5 831.165 1272.665 c 0,0,0
 817.67 1274.83 817.67 1274.83 801.35 1275.83 c 0,0,0
 787.69 1278.16 787.69 1278.16 774.36 1279.325 c 0,0,0
 761.03 1280.49 761.03 1280.49 751.36 1280.49 c 0,0,0
 683.37 1280.49 683.37 1280.49 654.36 1248.655 c 0,0,0
 625.35 1216.82 625.35 1216.82 614.66 1163.04 c 2,0,0
 599.65 1082 l 1,0,0
 813.31 1082 l 1,0,0
 772.68 872.53 l 1,0,0
 559.02 872.53 l 1,0,0
EndSplineSet
EndChar

StartChar: g
Encoding: 103 103 74
Width: 1287
GlyphClass: 2
Flags: HW
LayerCount: 2
Fore
SplineSet
442.22 -425 m 0,0,0
 233.32 -425 233.32 -425 123.515 -354.02 c 0,0,0
 13.71 -283.04 13.71 -283.04 -10.63 -131.77 c 1,0,0
 311.97 -105.73 l 1,0,0
 336.66 -222.83 336.66 -222.83 484.79 -222.83 c 0,0,0
 584.23 -222.83 584.23 -222.83 639.62 -168.615 c 0,0,0
 695.01 -114.4 695.01 -114.4 729.67 27 c 0,0,0
 740.33 76.32 740.33 76.32 748 119.82 c 0,0,0
 755.67 163.32 755.67 163.32 759.68 201 c 1,0,0
 757.68 201 l 1,0,0
 694.02 111.67 694.02 111.67 647.35 73 c 0,0,0
 599.35 34 599.35 34 539.85 13 c 0,0,0
 480.35 -8 480.35 -8 403.35 -8 c 0,0,0
 247.69 -8 247.69 -8 155.52 91.835 c 0,0,0
 63.35 191.67 63.35 191.67 63.35 355.01 c 0,0,0
 63.35 414.75 63.35 414.75 67.05 468.865 c 0,0,0
 70.75 522.98 70.75 522.98 79.64 576.745 c 0,0,0
 88.53 630.51 88.53 630.51 102.27 689.2 c 0,0,0
 164.61 901.59 164.61 901.59 282.215 1001.295 c 0,0,0
 399.82 1101 399.82 1101 585.34 1101 c 0,0,0
 702.35 1101 702.35 1101 787.845 1045.33 c 0,0,0
 873.34 989.66 873.34 989.66 901.33 891.68 c 1,0,0
 903.33 891.68 l 1,0,0
 907 910.03 907 910.03 917 953.525 c 0,0,0
 927 997.02 927 997.02 937.665 1037.175 c 0,0,0
 948.33 1077.33 948.33 1077.33 951.33 1082 c 1,0,0
 1247.35 1082 l 1,0,0
 1228.35 998.67 l 1,0,0
 1198.35 851.35 l 1,0,0
 1032.03 3.07 l 2,0,0
 985.36 -226.96 985.36 -226.96 846.73 -325.98 c 0,0,0
 708.1 -425 708.1 -425 442.22 -425 c 0,0,0
392 403.59 m 0,0,0
 392 220.76 392 220.76 553.78 220.76 c 0,0,0
 636.51 220.76 636.51 220.76 704.56 283.8 c 0,0,0
 772.61 347.17 772.61 347.17 809.14 455.575 c 0,0,0
 845.67 563.98 845.67 563.98 845.67 680.06 c 0,0,0
 845.67 777.13 845.67 777.13 797.63 833.33 c 0,0,0
 749.59 889.53 749.59 889.53 661.53 889.53 c 0,0,0
 590.15 889.53 590.15 889.53 544.78 859.18 c 0,0,0
 499.41 828.83 499.41 828.83 466.39 760.47 c 0,0,0
 444.71 713.79 444.71 713.79 428.03 645.93 c 0,0,0
 411.35 578.07 411.35 578.07 401.675 512.36 c 0,0,0
 392 446.65 392 446.65 392 403.59 c 0,0,0
EndSplineSet
EndChar

StartChar: h
Encoding: 104 104 75
Width: 1287
GlyphClass: 2
Flags: HW
LayerCount: 2
Fore
SplineSet
519.99 897 m 1,0,0
 592.35 997.37 592.35 997.37 685.16 1049.185 c 0,0,0
 777.97 1101 777.97 1101 895.63 1101 c 0,0,0
 1048.95 1101 1048.95 1101 1126.775 1028 c 0,0,0
 1204.6 955 1204.6 955 1204.6 817 c 0,0,0
 1204.6 794.31 1204.6 794.31 1196.94 735.355 c 0,0,0
 1189.28 676.4 1189.28 676.4 1183.6 653 c 2,0,0
 1056.6 0 l 1,0,0
 745.26 0 l 1,0,0
 860.62 578.5 l 2,0,0
 889.26 718.04 889.26 718.04 889.26 748.45 c 0,0,0
 889.26 864.91 889.26 864.91 746.17 864.91 c 0,0,0
 684.78 864.91 684.78 864.91 625.25 829.39 c 0,0,0
 565.72 793.87 565.72 793.87 523.865 734.985 c 0,0,0
 482.01 676.1 482.01 676.1 469.32 606 c 2,0,0
 351.32 0 l 1,0,0
 35.33 0 l 1,0,0
 320.67 1484 l 1,0,0
 633.67 1484 l 1,0,0
 553.35 1072.73 l 2,0,0
 544.35 1028.05 544.35 1028.05 535.01 984.865 c 0,0,0
 525.67 941.68 525.67 941.68 516.99 897 c 1,0,0
 519.99 897 l 1,0,0
EndSplineSet
EndChar

StartChar: i
Encoding: 105 105 76
Width: 606
GlyphClass: 2
Flags: HW
LayerCount: 2
Fore
SplineSet
637.99 1484 m 1,0,0
 594.68 1265.45 l 1,0,0
 280.35 1265.45 l 1,0,0
 323.66 1484 l 1,0,0
 637.99 1484 l 1,0,0
559.99 1082 m 1,0,0
 348.99 0 l 1,0,0
 35.66 0 l 1,0,0
 245.66 1082 l 1,0,0
 559.99 1082 l 1,0,0
EndSplineSet
Substitution2: "Single Substitution lookup 3 subtable" dotlessi
EndChar

StartChar: j
Encoding: 106 106 77
Width: 606
GlyphClass: 2
Flags: HW
LayerCount: 2
Fore
SplineSet
637.66 1484 m 1,0,0
 595.35 1265.45 l 1,0,0
 281.02 1265.45 l 1,0,0
 323.33 1484 l 1,0,0
 637.66 1484 l 1,0,0
-38.82 -425 m 0,0,0
 -150.34 -425 -150.34 -425 -217.03 -404.35 c 1,0,0
 -176.74 -199.19 l 1,0,0
 -166.7 -199.2 -166.7 -199.2 -153.515 -200.535 c 0,0,0
 -140.33 -201.87 -140.33 -201.87 -126.99 -201.87 c 0,0,0
 -57.35 -201.87 -57.35 -201.87 -25.355 -169.845 c 0,0,0
 6.64 -137.82 6.64 -137.82 24.97 -44.49 c 2,0,0
 245.33 1082 l 1,0,0
 559.66 1082 l 1,0,0
 323.99 -126.02 l 2,0,0
 295.65 -265.4 295.65 -265.4 202.375 -345.2 c 0,0,0
 109.1 -425 109.1 -425 -38.82 -425 c 0,0,0
EndSplineSet
Substitution2: "Single Substitution lookup 3 subtable" uni0237
EndChar

StartChar: k
Encoding: 107 107 78
Width: 1176
GlyphClass: 2
Flags: HW
LayerCount: 2
Fore
SplineSet
437.95 436.52 m 1,0,0
 348.66 0 l 1,0,0
 35.33 0 l 1,0,0
 323.33 1484 l 1,0,0
 637.66 1484 l 1,0,0
 474.62 656.11 l 1,0,0
 620.1 798.23 l 1,0,0
 906.62 1082 l 1,0,0
 1261.62 1082 l 1,0,0
 807.43 674.19 l 1,0,0
 1062.3 0 l 1,0,0
 730.31 0 l 1,0,0
 568.71 495.35 l 1,0,0
 437.95 436.52 l 1,0,0
EndSplineSet
EndChar

StartChar: l
Encoding: 108 108 79
Width: 606
GlyphClass: 2
Flags: HW
LayerCount: 2
Fore
SplineSet
637.99 1484 m 1,0,0
 348.99 0 l 1,0,0
 35.66 0 l 1,0,0
 323.66 1484 l 1,0,0
 637.99 1484 l 1,0,0
EndSplineSet
EndChar

StartChar: m
Encoding: 109 109 80
Width: 1858
GlyphClass: 2
Flags: HW
LayerCount: 2
Fore
SplineSet
677.29 0 m 1,0,0
 799.96 635.33 l 2,0,0
 814.32 720.09 814.32 720.09 814.32 758.79 c 0,0,0
 814.32 815.17 814.32 815.17 784.965 842.035 c 0,0,0
 755.61 868.9 755.61 868.9 700.2 868.9 c 0,0,0
 621.44 868.9 621.44 868.9 558.88 801.155 c 0,0,0
 496.32 733.41 496.32 733.41 469.32 604 c 1,0,0
 351.32 0 l 1,0,0
 35.33 0 l 1,0,0
 201.33 851 l 2,0,0
 221.33 946 221.33 946 240.33 1082 c 1,0,0
 545.99 1082 l 1,0,0
 545.99 1075 545.99 1075 540.99 1040.5 c 0,0,0
 535.99 1006 535.99 1006 529.49 965.5 c 0,0,0
 522.99 925 522.99 925 517.99 897 c 1,0,0
 520.99 897 l 1,0,0
 599.31 1013.66 599.31 1013.66 674.14 1057.33 c 0,0,0
 748.97 1101 748.97 1101 850.97 1101 c 0,0,0
 1105.62 1101 1105.62 1101 1134.62 869 c 1,0,0
 1213.63 992.35 1213.63 992.35 1296.79 1046.675 c 0,0,0
 1379.95 1101 1379.95 1101 1490.6 1101 c 0,0,0
 1629.59 1101 1629.59 1101 1703.42 1028 c 0,0,0
 1777.25 955 1777.25 955 1777.25 817 c 0,0,0
 1777.25 754 1777.25 754 1756.25 653 c 2,0,0
 1627.92 0 l 1,0,0
 1315.59 0 l 1,0,0
 1436.93 624.69 l 2,0,0
 1452.62 704.13 1452.62 704.13 1452.62 758.79 c 0,0,0
 1451.29 815.17 1451.29 815.17 1421.935 842.035 c 0,0,0
 1392.58 868.9 1392.58 868.9 1338.5 868.9 c 0,0,0
 1255.75 868.9 1255.75 868.9 1195.02 798.665 c 0,0,0
 1134.29 728.43 1134.29 728.43 1108.95 607 c 2,0,0
 989.62 0 l 1,0,0
 677.29 0 l 1,0,0
EndSplineSet
EndChar

StartChar: n
Encoding: 110 110 81
Width: 1287
GlyphClass: 2
Flags: HW
LayerCount: 2
Fore
SplineSet
468.99 606 m 2,0,0
 350.99 0 l 1,0,0
 35.33 0 l 1,0,0
 201.33 851 l 2,0,0
 208.67 888.69 208.67 888.69 218.17 946.025 c 0,0,0
 227.67 1003.36 227.67 1003.36 239 1082 c 1,0,0
 539.34 1082 l 1,0,0
 539.34 1076.33 539.34 1076.33 535.005 1036.51 c 0,0,0
 530.67 996.69 530.67 996.69 525.5 954.195 c 0,0,0
 520.33 911.7 520.33 911.7 516.66 897 c 1,0,0
 519.66 897 l 1,0,0
 592.02 997.37 592.02 997.37 684.83 1049.185 c 0,0,0
 777.64 1101 777.64 1101 895.3 1101 c 0,0,0
 1048.62 1101 1048.62 1101 1126.445 1028 c 0,0,0
 1204.27 955 1204.27 955 1204.27 817 c 0,0,0
 1204.27 794.31 1204.27 794.31 1196.61 735.355 c 0,0,0
 1188.95 676.4 1188.95 676.4 1183.27 653 c 2,0,0
 1056.27 0 l 1,0,0
 744.93 0 l 1,0,0
 860.29 578.5 l 2,0,0
 888.93 718.04 888.93 718.04 888.93 748.45 c 0,0,0
 888.93 864.91 888.93 864.91 745.84 864.91 c 0,0,0
 684.45 864.91 684.45 864.91 624.92 829.39 c 0,0,0
 565.39 793.87 565.39 793.87 523.535 734.985 c 0,0,0
 481.68 676.1 481.68 676.1 468.99 606 c 2,0,0
EndSplineSet
EndChar

StartChar: o
Encoding: 111 111 82
Width: 1287
GlyphClass: 2
Flags: HW
LayerCount: 2
Fore
SplineSet
1221.63 683 m 0,0,0
 1221.63 588.91 1221.63 588.91 1208.23 512.085 c 0,0,0
 1194.83 435.26 1194.83 435.26 1164.72 361.2 c 0,0,0
 1080.41 179.08 1080.41 179.08 917.215 79.54 c 0,0,0
 754.02 -20 754.02 -20 549.52 -20 c 0,0,0
 324.26 -20 324.26 -20 192.97 97.335 c 0,0,0
 61.68 214.67 61.68 214.67 61.68 419 c 1,0,0
 60.03 618.02 60.03 618.02 143.66 773.02 c 0,0,0
 226.96 927.03 226.96 927.03 380.885 1014.015 c 0,0,0
 534.81 1101 534.81 1101 724.46 1101 c 0,0,0
 967.71 1101 967.71 1101 1094.67 991.5 c 0,0,0
 1221.63 882 1221.63 882 1221.63 683 c 0,0,0
891.99 655.07 m 1,0,0
 891.99 889.2 891.99 889.2 697.19 889.2 c 0,0,0
 591.45 889.2 591.45 889.2 527.74 832.17 c 0,0,0
 485.71 794.15 485.71 794.15 455.19 728.28 c 0,0,0
 424.67 662.41 424.67 662.41 408.825 585.2 c 0,0,0
 392.98 507.99 392.98 507.99 392.98 435.95 c 0,0,0
 392.98 311.89 392.98 311.89 441.02 251.68 c 0,0,0
 489.06 191.47 489.06 191.47 587.12 191.47 c 0,0,0
 627.61 191.47 627.61 191.47 666.17 199.205 c 0,0,0
 704.73 206.94 704.73 206.94 733.11 220.09 c 0,0,0
 804.05 270.15 804.05 270.15 844.19 385.645 c 0,0,0
 884.33 501.14 884.33 501.14 891.99 655.07 c 1,0,0
EndSplineSet
EndChar

StartChar: p
Encoding: 112 112 83
Width: 1287
GlyphClass: 2
Flags: HW
LayerCount: 2
Fore
SplineSet
697.64 -20 m 0,0,0
 571.98 -20 571.98 -20 493.815 32 c 0,0,0
 415.65 84 415.65 84 383.65 178 c 1,0,0
 382.64 178 l 1,0,0
 377.32 138.42 377.32 138.42 368.005 81.355 c 0,0,0
 358.69 24.29 358.69 24.29 342.72 -50.59 c 0,0,0
 317.44 -178.67 317.44 -178.67 299.42 -272.605 c 0,0,0
 270.31 -425 l 1,0,0
 -43.02 -425 l 1,0,0
 198 823.76 l 2,0,0
 203 853.08 203 853.08 208.83 881.07 c 0,0,0
 214.66 909.06 214.66 909.06 218.66 938.38 c 0,0,0
 228.99 1010.69 l 0,0,0
 238.32 1082 l 1,0,0
 548.96 1082 l 1,0,0
 548.96 1075.97 548.96 1075.97 545.295 1041.475 c 0,0,0
 541.63 1006.98 541.63 1006.98 536.3 968.665 c 0,0,0
 530.97 930.35 530.97 930.35 523.98 910.36 c 1,0,0
 527.98 910.36 l 1,0,0
 599.65 1012.01 599.65 1012.01 682.645 1057.005 c 0,0,0
 765.64 1102 765.64 1102 883.31 1102 c 0,0,0
 1042.97 1102 1042.97 1102 1132.465 1007.5 c 0,0,0
 1221.96 913 1221.96 913 1221.96 748 c 0,0,0
 1221.96 547.99 1221.96 547.99 1159.63 355 c 0,0,0
 1097.3 162.34 1097.3 162.34 984.635 71.17 c 0,0,0
 871.97 -20 871.97 -20 697.64 -20 c 0,0,0
740.87 888.52 m 0,0,0
 605.96 888.52 605.96 888.52 528.81 784.845 c 0,0,0
 451.66 681.17 451.66 681.17 422.61 472.49 c 0,0,0
 426.52 449.08 426.52 449.08 429.12 437.255 c 0,0,0
 431.72 425.43 431.72 425.43 433.185 419.75 c 0,0,0
 434.65 414.07 434.65 414.07 434.65 408.92 c 0,0,0
 434.65 307.86 434.65 307.86 484.185 250.33 c 0,0,0
 533.72 192.8 533.72 192.8 622.78 192.8 c 0,0,0
 718.85 192.8 718.85 192.8 772.23 252.84 c 0,0,0
 800.25 282.86 800.25 282.86 822.1 334.555 c 0,0,0
 843.95 386.25 843.95 386.25 859.295 447.785 c 0,0,0
 874.64 509.32 874.64 509.32 882.48 572.185 c 0,0,0
 890.32 635.05 890.32 635.05 890.32 686.74 c 0,0,0
 890.32 787.13 890.32 787.13 854.625 837.825 c 0,0,0
 818.93 888.52 818.93 888.52 740.87 888.52 c 0,0,0
EndSplineSet
EndChar

StartChar: q
Encoding: 113 113 84
Width: 1287
GlyphClass: 2
Flags: HW
LayerCount: 2
Fore
SplineSet
391.69 -21 m 0,0,0
 241.34 -21 241.34 -21 148.52 78.155 c 0,0,0
 55.7 177.31 55.7 177.31 55.7 352.95 c 0,0,0
 55.7 548.3 55.7 548.3 120.36 727 c 0,0,0
 185.02 907.36 185.02 907.36 302.67 1004.845 c 0,0,0
 420.32 1102.33 420.32 1102.33 577.36 1102.33 c 0,0,0
 709.67 1102.33 709.67 1102.33 778.525 1058.975 c 0,0,0
 847.38 1015.62 847.38 1015.62 891.35 903 c 1,0,0
 896.35 903 l 1,0,0
 905.68 945.65 905.68 945.65 912.52 976.345 c 0,0,0
 919.36 1007.04 919.36 1007.04 927.03 1031.395 c 0,0,0
 934.7 1055.75 934.7 1055.75 942.69 1077.38 c 1,0,0
 1244.7 1077.38 l 1,0,0
 1243.01 1072.96 1243.01 1072.96 1238.48 1052.66 c 0,0,0
 1233.95 1032.36 1233.95 1032.36 1226.25 997.84 c 0,0,0
 1231.09 1028.33 1231.09 1028.33 1161.78 672.785 c 0,0,0
 1092.47 317.24 1092.47 317.24 949.68 -425 c 1,0,0
 635.35 -425 l 1,0,0
 720.35 4.69 l 1,0,0
 757.67 163.99 l 1,0,0
 753.67 163.99 l 1,0,0
 678.01 65 678.01 65 592.355 22 c 0,0,0
 506.7 -21 506.7 -21 391.69 -21 c 0,0,0
539.45 189.82 m 0,0,0
 675.69 189.82 675.69 189.82 752.175 294.16 c 0,0,0
 828.66 398.5 828.66 398.5 855.05 608.18 c 0,0,0
 852.14 630.26 852.14 630.26 849.04 640.92 c 0,0,0
 845.94 651.58 845.94 651.58 843.81 658.425 c 0,0,0
 841.68 665.27 841.68 665.27 841.68 672.08 c 0,0,0
 841.68 783.78 841.68 783.78 804.78 837.32 c 0,0,0
 767.88 890.86 767.88 890.86 689.46 890.86 c 0,0,0
 582.09 890.86 582.09 890.86 519.07 829.5 c 0,0,0
 476.06 788.15 476.06 788.15 447.21 715.765 c 0,0,0
 418.36 643.38 418.36 643.38 403.515 558.495 c 0,0,0
 388.67 473.61 388.67 473.61 388.67 392.93 c 0,0,0
 388.67 295.2 388.67 295.2 427.025 242.51 c 0,0,0
 465.38 189.82 465.38 189.82 539.45 189.82 c 0,0,0
EndSplineSet
EndChar

StartChar: r
Encoding: 114 114 85
Width: 834
GlyphClass: 2
Flags: HW
LayerCount: 2
Fore
SplineSet
885.58 824.95 m 1,0,0
 807.67 840.61 807.67 840.61 763.66 840.61 c 0,0,0
 677.7 840.61 677.7 840.61 616.365 806.07 c 0,0,0
 555.03 771.53 555.03 771.53 514.02 695.835 c 0,0,0
 473.01 620.14 473.01 620.14 447.69 497.5 c 2,0,0
 349.66 0 l 1,0,0
 35.33 0 l 1,0,0
 196 830 l 2,0,0
 202 857.02 202 857.02 207.17 884.205 c 0,0,0
 212.34 911.39 212.34 911.39 215.68 940.07 c 0,0,0
 222.01 974.39 222.01 974.39 227.84 1010.205 c 0,0,0
 233.67 1046.02 233.67 1046.02 237.67 1082 c 1,0,0
 538.01 1082 l 1,0,0
 517.66 909.01 l 1,0,0
 509.66 861 l 1,0,0
 513.66 861 l 1,0,0
 588.97 995.33 588.97 995.33 662.28 1048.665 c 0,0,0
 735.59 1102 735.59 1102 830.23 1102 c 0,0,0
 875.56 1102 875.56 1102 935.87 1088 c 1,0,0
 885.58 824.95 l 1,0,0
EndSplineSet
EndChar

StartChar: s
Encoding: 115 115 86
Width: 1176
GlyphClass: 2
Flags: HW
LayerCount: 2
Fore
SplineSet
1030.69 339.61 m 0,0,0
 1030.69 161.65 1030.69 161.65 900.705 70.825 c 0,0,0
 770.72 -20 770.72 -20 520.76 -20 c 0,0,0
 310.85 -20 310.85 -20 190.395 55.125 c 0,0,0
 69.94 130.25 69.94 130.25 28.94 286.84 c 1,0,0
 314.26 316.24 l 1,0,0
 331.3 245.53 331.3 245.53 382.845 214.84 c 0,0,0
 434.39 184.15 434.39 184.15 542.08 184.15 c 0,0,0
 741.31 184.15 741.31 184.15 741.31 302.33 c 0,0,0
 741.31 349.7 741.31 349.7 703.61 374.41 c 0,0,0
 664.91 396.79 664.91 396.79 531.5 419.86 c 0,0,0
 414.47 441.58 414.47 441.58 332.85 481.91 c 0,0,0
 236.93 529.89 236.93 529.89 196.945 598.02 c 0,0,0
 156.96 666.15 156.96 666.15 156.96 759.76 c 0,0,0
 156.96 924.71 156.96 924.71 285.595 1011.855 c 0,0,0
 414.23 1099 414.23 1099 654.49 1099 c 0,0,0
 870.06 1099 870.06 1099 971.555 1026.19 c 0,0,0
 1073.05 953.38 1073.05 953.38 1097.71 800.11 c 1,0,0
 817.67 769.79 l 1,0,0
 802.32 835.49 802.32 835.49 757.28 865.17 c 0,0,0
 712.24 894.85 712.24 894.85 633.18 894.85 c 0,0,0
 537.11 894.85 537.11 894.85 491.225 867.985 c 0,0,0
 445.34 841.12 445.34 841.12 445.34 785.08 c 0,0,0
 445.34 755.05 445.34 755.05 465.01 735.195 c 0,0,0
 484.68 715.34 484.68 715.34 520.69 701.65 c 0,0,0
 555.37 687.96 555.37 687.96 697.37 658.92 c 0,0,0
 836.01 630.89 836.01 630.89 915.97 577.92 c 0,0,0
 979.64 535.59 979.64 535.59 1005.165 476.265 c 0,0,0
 1030.69 416.94 1030.69 416.94 1030.69 339.61 c 0,0,0
EndSplineSet
EndChar

StartChar: t
Encoding: 116 116 87
Width: 719
GlyphClass: 2
Flags: HW
LayerCount: 2
Fore
SplineSet
409.33 -14.68 m 0,0,0
 272.46 -14.68 272.46 -14.68 198.025 46.295 c 0,0,0
 123.59 107.27 123.59 107.27 123.59 223.19 c 0,0,0
 123.59 303.46 123.59 303.46 139.92 389.1 c 2,0,0
 234 872.53 l 1,0,0
 78.41 872.53 l 1,0,0
 119.04 1082 l 1,0,0
 292.59 1082 l 1,0,0
 440.15 1339.96 l 1,0,0
 634.63 1339.96 l 1,0,0
 586.3 1082 l 1,0,0
 788.96 1082 l 1,0,0
 750.99 872.53 l 1,0,0
 544.34 872.53 l 1,0,0
 447.27 373.83 l 2,0,0
 436.6 316.49 436.6 316.49 436.6 286.81 c 0,0,0
 436.6 240.15 436.6 240.15 460.43 217.485 c 0,0,0
 484.26 194.82 484.26 194.82 522.61 194.82 c 0,0,0
 554.96 194.82 554.96 194.82 633.25 207.49 c 1,0,0
 596.96 9.32 l 1,0,0
 521.9 -14.68 521.9 -14.68 409.33 -14.68 c 0,0,0
EndSplineSet
EndChar

StartChar: u
Encoding: 117 117 88
Width: 1287
GlyphClass: 2
Flags: HW
LayerCount: 2
Fore
SplineSet
769.28 185 m 1,0,0
 695.59 80.64 695.59 80.64 602.78 30.82 c 0,0,0
 509.97 -19 509.97 -19 393.64 -19 c 0,0,0
 240.32 -19 240.32 -19 162.495 54 c 0,0,0
 84.67 127 84.67 127 84.67 265 c 0,0,0
 84.67 280.35 84.67 280.35 88.5 313.995 c 0,0,0
 92.33 347.64 92.33 347.64 97.495 381.795 c 0,0,0
 102.66 415.95 102.66 415.95 105.67 429 c 2,0,0
 232.67 1082 l 1,0,0
 544.01 1082 l 1,0,0
 428.65 503.5 l 2,0,0
 400.01 366.29 400.01 366.29 400.01 333.55 c 0,0,0
 400.01 217.09 400.01 217.09 543.1 217.09 c 0,0,0
 605.82 217.09 605.82 217.09 664.02 251.945 c 0,0,0
 722.22 286.8 722.22 286.8 764.575 346.185 c 0,0,0
 806.93 405.57 806.93 405.57 819.95 476 c 2,0,0
 937.95 1082 l 1,0,0
 1253.61 1082 l 1,0,0
 1087.61 231 l 2,0,0
 1080.27 193.31 1080.27 193.31 1070.77 135.975 c 0,0,0
 1061.27 78.64 1061.27 78.64 1049.94 0 c 1,0,0
 749.6 0 l 1,0,0
 749.6 5.34 749.6 5.34 753.935 45.325 c 0,0,0
 758.27 85.31 758.27 85.31 763.94 128.305 c 0,0,0
 769.61 171.3 769.61 171.3 772.28 185 c 1,0,0
 769.28 185 l 1,0,0
EndSplineSet
EndChar

StartChar: v
Encoding: 118 118 89
Width: 1176
GlyphClass: 2
Flags: HW
LayerCount: 2
Fore
SplineSet
1268.3 1082 m 1,0,0
 659.95 0 l 1,0,0
 283.36 0 l 1,0,0
 109.34 1082 l 1,0,0
 432 1082 l 1,0,0
 493.1 509.67 l 2,0,0
 494.77 496.98 494.77 496.98 498.435 455.18 c 0,0,0
 502.1 413.38 502.1 413.38 506.265 364.42 c 0,0,0
 510.43 315.46 510.43 315.46 512.1 280.45 c 2,0,0
 514.77 230.11 l 1,0,0
 535.45 277.79 l 2,0,0
 561.11 339.42 561.11 339.42 586.77 396.225 c 0,0,0
 612.43 453.03 612.43 453.03 637.76 506.34 c 2,0,0
 931.32 1082 l 1,0,0
 1268.3 1082 l 1,0,0
EndSplineSet
EndChar

StartChar: w
Encoding: 119 119 90
Width: 1630
GlyphClass: 2
Flags: HW
LayerCount: 2
Fore
SplineSet
768.65 610.15 m 2,0,0
 485.79 0 l 1,0,0
 159.42 0 l 1,0,0
 98.01 1082 l 1,0,0
 382.41 1082 l 1,0,0
 387.83 398.87 l 2,0,0
 388.5 371.15 388.5 371.15 387.175 344.26 c 0,0,0
 385.85 317.37 385.85 317.37 385.52 289.98 c 1,0,0
 405.52 338.31 405.52 338.31 423.36 386.31 c 0,0,0
 441.2 434.31 441.2 434.31 463.86 481.31 c 2,0,0
 742.35 1082 l 1,0,0
 1078.99 1082 l 1,0,0
 1120.33 481.31 l 2,0,0
 1123.33 435.29 1123.33 435.29 1123.5 387.79 c 0,0,0
 1123.67 340.29 1123.67 340.29 1125 289.98 c 1,0,0
 1141.31 328.92 1141.31 328.92 1152.165 357.96 c 0,0,0
 1169.42 406.8 l 2,0,0
 1443.59 1082 l 1,0,0
 1739.29 1082 l 1,0,0
 1252.87 0 l 1,0,0
 926.83 0 l 1,0,0
 881.85 647.46 l 1,0,0
 877.18 875.48 l 1,0,0
 847.55 793.26 847.55 793.26 820.085 727.01 c 0,0,0
 792.62 660.76 792.62 660.76 768.65 610.15 c 2,0,0
EndSplineSet
EndChar

StartChar: x
Encoding: 120 120 91
Width: 1176
GlyphClass: 2
Flags: HW
LayerCount: 2
Fore
SplineSet
551.53 362.87 m 1,0,0
 242.02 0 l 1,0,0
 -92.64 0 l 1,0,0
 420.64 563.98 l 1,0,0
 136.69 1082 l 1,0,0
 462.68 1082 l 1,0,0
 629.08 759.42 l 1,0,0
 907.26 1082 l 1,0,0
 1248.92 1082 l 1,0,0
 761.3 556.67 l 1,0,0
 1059.59 0 l 1,0,0
 729.94 0 l 1,0,0
 551.53 362.87 l 1,0,0
EndSplineSet
EndChar

StartChar: y
Encoding: 121 121 92
Width: 1176
GlyphClass: 2
Flags: HW
LayerCount: 2
Fore
SplineSet
111.76 -425 m 0,0,0
 7.18 -425 7.18 -425 -74.77 -405.68 c 1,0,0
 -34.46 -189.22 l 1,0,0
 4.23 -198.55 4.23 -198.55 55.84 -198.55 c 0,0,0
 128.23 -198.55 128.23 -198.55 183.44 -158.49 c 0,0,0
 238.65 -118.43 238.65 -118.43 294.02 -20.37 c 2,0,0
 322.35 27.96 l 1,0,0
 112 1082 l 1,0,0
 438.64 1082 l 1,0,0
 496.11 618.33 l 2,0,0
 498.79 591.63 498.79 591.63 504.46 541.145 c 0,0,0
 510.13 490.66 510.13 490.66 515.465 434.53 c 0,0,0
 520.8 378.4 520.8 378.4 524.8 332.105 c 0,0,0
 528.8 285.81 528.8 285.81 528.8 269.15 c 1,0,0
 533.8 278.82 533.8 278.82 536.975 286.335 c 0,0,0
 542.83 300.54 l 2,0,0
 687.44 615.98 l 1,0,0
 922.68 1082 l 1,0,0
 1256.01 1082 l 1,0,0
 592.77 -75.81 l 1,0,0
 486.09 -236.23 486.09 -236.23 420.09 -299.26 c 0,0,0
 353.09 -363.96 353.09 -363.96 279.09 -394.48 c 0,0,0
 205.09 -425 205.09 -425 111.76 -425 c 0,0,0
EndSplineSet
EndChar

StartChar: z
Encoding: 122 122 93
Width: 1024
GlyphClass: 2
Flags: HW
LayerCount: 2
Fore
SplineSet
900.21 226.78 m 1,0,0
 855.26 0 l 1,0,0
 -9.34 0 l 1,0,0
 33.61 219.46 l 1,0,0
 604.04 857.88 l 1,0,0
 205.62 857.88 l 1,0,0
 250.57 1082 l 1,0,0
 1014.62 1082 l 1,0,0
 970.67 859.88 l 1,0,0
 404.23 226.78 l 1,0,0
 900.21 226.78 l 1,0,0
EndSplineSet
EndChar

StartChar: braceleft
Encoding: 123 123 94
Width: 834
GlyphClass: 2
Flags: HW
LayerCount: 2
Fore
SplineSet
395.26 -425 m 2,0,0
 273.62 -425 273.62 -425 204.13 -366.48 c 0,0,0
 134.64 -307.96 134.64 -307.96 134.64 -210.91 c 0,0,0
 134.64 -177.5 134.64 -177.5 145.97 -115.19 c 2,0,0
 208.62 199.74 l 2,0,0
 214.96 227.78 214.96 227.78 214.96 264.77 c 0,0,0
 214.96 339.79 214.96 339.79 166.465 380.28 c 0,0,0
 117.97 420.77 117.97 420.77 18.34 422.11 c 1,0,0
 60.63 635.56 l 1,0,0
 296.58 638.57 296.58 638.57 338.92 859.59 c 2,0,0
 404.93 1189.67 l 2,0,0
 434.26 1336.66 434.26 1336.66 520.4 1410.33 c 0,0,0
 606.54 1484 606.54 1484 764.5 1484 c 2,0,0
 977.97 1484 l 1,0,0
 937.01 1273.87 l 1,0,0
 856.72 1273.87 l 2,0,0
 777.03 1273.87 777.03 1273.87 735.845 1227.535 c 0,0,0
 694.66 1181.2 694.66 1181.2 673.32 1072.17 c 2,0,0
 616.29 777.35 l 2,0,0
 597.29 683.68 597.29 683.68 525.805 617.51 c 0,0,0
 454.32 551.34 454.32 551.34 356 532 c 1,0,0
 354.67 527.34 l 1,0,0
 430.32 507.68 430.32 507.68 476.14 457.015 c 0,0,0
 521.96 406.35 521.96 406.35 521.96 332.34 c 0,0,0
 521.96 305.34 521.96 305.34 517.29 282.65 c 2,0,0
 450.97 -56.3 l 2,0,0
 447.3 -76.31 447.3 -76.31 445.295 -87.39 c 0,0,0
 443.29 -98.47 443.29 -98.47 443.29 -115.14 c 0,0,0
 443.29 -167.15 443.29 -167.15 475.795 -190.345 c 0,0,0
 508.3 -213.54 508.3 -213.54 557.37 -213.54 c 2,0,0
 647.93 -213.54 l 1,0,0
 606.97 -425 l 1,0,0
 395.26 -425 l 2,0,0
EndSplineSet
EndChar

StartChar: bar
Encoding: 124 124 95
Width: 586
GlyphClass: 2
Flags: HW
LayerCount: 2
Fore
SplineSet
477.42 1484 m 1,0,0
 477.42 -415.43 l 1,0,0
 183.74 -415.43 l 1,0,0
 183.74 1484 l 1,0,0
 477.42 1484 l 1,0,0
EndSplineSet
EndChar

StartChar: braceright
Encoding: 125 125 96
Width: 834
GlyphClass: 2
Flags: HW
LayerCount: 2
Fore
SplineSet
429.03 1485.33 m 2,0,0
 550.67 1485.33 550.67 1485.33 620.16 1426.81 c 0,0,0
 689.65 1368.29 689.65 1368.29 689.65 1271.24 c 0,0,0
 689.65 1235.17 689.65 1235.17 678.32 1175.52 c 2,0,0
 615.67 860.59 l 2,0,0
 609.33 833.55 609.33 833.55 609.33 795.56 c 0,0,0
 609.33 720.54 609.33 720.54 655.83 680.05 c 0,0,0
 702.33 639.56 702.33 639.56 805.95 638.22 c 1,0,0
 763.66 424.77 l 1,0,0
 527.71 421.76 527.71 421.76 485.37 199.41 c 2,0,0
 419.36 -129.34 l 2,0,0
 387.37 -284.31 387.37 -284.31 299.9 -354.655 c 0,0,0
 212.43 -425 212.43 -425 59.79 -425 c 2,0,0
 -153.68 -425 l 1,0,0
 -112.72 -214.87 l 1,0,0
 -32.43 -214.87 l 2,0,0
 47.26 -214.87 47.26 -214.87 88.445 -168.535 c 0,0,0
 129.63 -122.2 129.63 -122.2 150.97 -13.17 c 2,0,0
 208 281.65 l 2,0,0
 227 376.65 227 376.65 298.485 442.82 c 0,0,0
 369.97 508.99 369.97 508.99 468.29 528.33 c 1,0,0
 469.62 531.66 l 1,0,0
 392.64 551.32 392.64 551.32 347.485 603.315 c 0,0,0
 302.33 655.31 302.33 655.31 302.33 727.99 c 0,0,0
 302.33 754.66 302.33 754.66 307 777.68 c 2,0,0
 373.32 1115.3 l 2,0,0
 378.32 1137.97 378.32 1137.97 379.66 1148.72 c 0,0,0
 381 1159.47 381 1159.47 381 1175.47 c 0,0,0
 381 1227.48 381 1227.48 348.495 1250.675 c 0,0,0
 315.99 1273.87 315.99 1273.87 266.92 1273.87 c 2,0,0
 176.36 1273.87 l 1,0,0
 217.32 1485.33 l 1,0,0
 429.03 1485.33 l 2,0,0
EndSplineSet
EndChar

StartChar: asciitilde
Encoding: 126 126 97
Width: 1196
GlyphClass: 2
Flags: HW
LayerCount: 2
Fore
SplineSet
893.95 503.79 m 0,0,0
 816.97 503.79 816.97 503.79 744.47 524.46 c 0,0,0
 671.97 545.13 671.97 545.13 596.31 571.13 c 0,0,0
 458 618.79 458 618.79 373.99 618.79 c 0,0,0
 301.67 618.79 301.67 618.79 241.675 596.96 c 0,0,0
 181.68 575.13 181.68 575.13 116.68 530.79 c 1,0,0
 116.68 766.89 l 1,0,0
 230.34 850.89 230.34 850.89 390.32 850.89 c 0,0,0
 479.89 850.89 479.89 850.89 562.33 825.425 c 0,0,0
 644.77 799.96 644.77 799.96 721.08 772.97 c 0,0,0
 748.59 764.24 748.59 764.24 782.795 755.225 c 0,0,0
 817 746.21 817 746.21 852.14 740.05 c 0,0,0
 887.28 733.89 887.28 733.89 913.94 733.89 c 0,0,0
 1048.26 733.89 1048.26 733.89 1163.26 825.89 c 1,0,0
 1163.26 583.79 l 1,0,0
 1097.94 539.13 1097.94 539.13 1039.11 521.46 c 0,0,0
 980.28 503.79 980.28 503.79 893.95 503.79 c 0,0,0
EndSplineSet
EndChar

StartChar: exclamdown
Encoding: 161 161 99
Width: 682
GlyphClass: 2
Flags: HW
LayerCount: 2
Fore
SplineSet
605.16 1081.67 m 1,0,0
 547.87 788.9 l 1,0,0
 228.85 788.9 l 1,0,0
 286.14 1081.67 l 1,0,0
 605.16 1081.67 l 1,0,0
228.14 643.44 m 1,0,0
 485.2 643.44 l 1,0,0
 331.82 -327.33 l 1,0,0
 5.48 -327.33 l 1,0,0
 228.14 643.44 l 1,0,0
EndSplineSet
EndChar

StartChar: cent
Encoding: 162 162 100
Width: 1139
GlyphClass: 2
Flags: HW
LayerCount: 2
Fore
SplineSet
545.37 344.5 m 0,0,0
 621.77 344.5 621.77 344.5 669.83 395.35 c 0,0,0
 717.89 446.2 717.89 446.2 746.59 545.24 c 1,0,0
 1055.54 494.91 l 1,0,0
 1005.52 320.96 1005.52 320.96 886.225 234.475 c 0,0,0
 766.93 147.99 766.93 147.99 582.68 136 c 1,0,0
 550.68 -31 l 1,0,0
 376.14 -31 l 1,0,0
 407.48 143.33 l 1,0,0
 237.2 170.65 237.2 170.65 143.07 279.145 c 0,0,0
 48.94 387.64 48.94 387.64 48.94 562.97 c 0,0,0
 48.94 664.35 48.94 664.35 63.31 722.17 c 0,0,0
 91.62 847.38 91.62 847.38 139.57 943.31 c 0,0,0
 187.52 1039.24 187.52 1039.24 255.11 1107.2 c 0,0,0
 325.43 1174.6 325.43 1174.6 417.765 1211.47 c 0,0,0
 510.1 1248.34 510.1 1248.34 623.15 1254.34 c 1,0,0
 655.14 1409 l 1,0,0
 829.68 1409 l 1,0,0
 796.69 1247.01 l 1,0,0
 942.32 1222.69 942.32 1222.69 1031.115 1126.06 c 0,0,0
 1119.91 1029.43 1119.91 1029.43 1131.9 881.48 c 1,0,0
 812.59 859.14 l 1,0,0
 807.92 953.48 807.92 953.48 769.88 999.995 c 0,0,0
 731.84 1046.51 731.84 1046.51 658.13 1046.51 c 0,0,0
 557.73 1046.51 557.73 1046.51 503.34 971.53 c 0,0,0
 476.95 933.85 476.95 933.85 452.255 875.465 c 0,0,0
 427.56 817.08 427.56 817.08 403.57 721.09 c 0,0,0
 389.91 662.44 389.91 662.44 385.24 623.735 c 0,0,0
 380.57 585.03 380.57 585.03 380.57 567.61 c 0,0,0
 380.57 344.5 380.57 344.5 545.37 344.5 c 0,0,0
EndSplineSet
EndChar

StartChar: sterling
Encoding: 163 163 101
Width: 1139
GlyphClass: 2
Flags: HW
LayerCount: 2
Fore
SplineSet
977.33 0 m 1,0,0
 -63.87 0 l 1,0,0
 -21.57 221.83 l 1,0,0
 71.44 257.19 71.44 257.19 127.945 319.73 c 0,0,0
 184.45 382.27 184.45 382.27 204.46 481 c 2,0,0
 228.47 597.07 l 1,0,0
 41.14 597.07 l 1,0,0
 75.45 780.6 l 1,0,0
 250.81 780.6 l 1,0,0
 300.49 1034 l 2,0,0
 339.16 1241.66 339.16 1241.66 448.335 1335.83 c 0,0,0
 557.51 1430 557.51 1430 757.48 1430 c 0,0,0
 942.72 1430 942.72 1430 1050.19 1344.89 c 0,0,0
 1157.66 1259.78 1157.66 1259.78 1172.68 1106.9 c 1,0,0
 900.95 1059.56 l 1,0,0
 887.6 1150.16 887.6 1150.16 850.885 1187.485 c 0,0,0
 814.17 1224.81 814.17 1224.81 743.83 1224.81 c 0,0,0
 677.71 1224.81 677.71 1224.81 642.805 1182.605 c 0,0,0
 607.9 1140.4 607.9 1140.4 589.22 1042 c 2,0,0
 537.21 780.6 l 1,0,0
 782.95 780.6 l 1,0,0
 747.31 597.07 l 1,0,0
 501.57 597.07 l 1,0,0
 474.57 478 l 2,0,0
 453.24 385.62 453.24 385.62 396.725 324.89 c 0,0,0
 340.21 264.16 340.21 264.16 243.23 228.81 c 1,0,0
 1018.3 228.81 l 1,0,0
 977.33 0 l 1,0,0
EndSplineSet
EndChar

StartChar: currency
Encoding: 164 164 102
Width: 1139
GlyphClass: 2
Flags: HW
LayerCount: 2
Fore
SplineSet
143.72 684 m 0,0,0
 143.72 799.39 143.72 799.39 197.78 894.77 c 1,0,0
 53.89 1038.66 l 1,0,0
 228.38 1212.15 l 1,0,0
 369.94 1068.59 l 1,0,0
 466.98 1120 466.98 1120 578.72 1120 c 0,0,0
 694.77 1120 694.77 1120 787.16 1067.93 c 1,0,0
 934.7 1215.47 l 1,0,0
 1110.52 1039.98 l 1,0,0
 961.32 892.11 l 1,0,0
 1014.72 799.38 1014.72 799.38 1014.72 684 c 0,0,0
 1014.72 571.6 1014.72 571.6 964.64 478.55 c 1,0,0
 1109.86 334.66 l 1,0,0
 933.38 156.51 l 1,0,0
 789.82 302.73 l 1,0,0
 693.11 250 693.11 250 578.72 250 c 0,0,0
 463.32 250 463.32 250 369.28 299.41 c 1,0,0
 224.38 151.85 l 1,0,0
 49.23 327.34 l 1,0,0
 195.12 475.89 l 1,0,0
 143.72 568.61 143.72 568.61 143.72 684 c 0,0,0
393.48 686 m 0,0,0
 393.48 635.27 393.48 635.27 418.18 593.05 c 0,0,0
 442.88 550.83 442.88 550.83 485.1 525.63 c 0,0,0
 527.32 500.43 527.32 500.43 578.72 500.43 c 0,0,0
 629.45 500.43 629.45 500.43 671.005 525.96 c 0,0,0
 712.56 551.49 712.56 551.49 737.76 594.375 c 0,0,0
 762.96 637.26 762.96 637.26 762.96 686 c 0,0,0
 762.96 737.4 762.96 737.4 738.26 778.955 c 0,0,0
 713.56 820.51 713.56 820.51 672.005 845.875 c 0,0,0
 630.45 871.24 630.45 871.24 578.72 871.24 c 0,0,0
 528.65 871.24 528.65 871.24 486.43 846.705 c 0,0,0
 444.21 822.17 444.21 822.17 418.845 780.115 c 0,0,0
 393.48 738.06 393.48 738.06 393.48 686 c 0,0,0
EndSplineSet
EndChar

StartChar: yen
Encoding: 165 165 103
Width: 1139
GlyphClass: 2
Flags: HW
LayerCount: 2
Fore
SplineSet
661.19 213.89 m 1,0,0
 619.48 0 l 1,0,0
 316.46 0 l 1,0,0
 358.17 213.89 l 1,0,0
 37.02 213.89 l 1,0,0
 66.01 367.49 l 1,0,0
 388.49 367.49 l 1,0,0
 420.49 532.13 l 1,0,0
 98.67 532.13 l 1,0,0
 127.99 685.06 l 1,0,0
 389.47 685.06 l 1,0,0
 185.6 1409 l 1,0,0
 499.63 1409 l 1,0,0
 623.27 829.83 l 1,0,0
 976.97 1409 l 1,0,0
 1300.34 1409 l 1,0,0
 814.16 685.06 l 1,0,0
 1075.31 685.06 l 1,0,0
 1045.99 532.13 l 1,0,0
 722.84 532.13 l 1,0,0
 690.18 367.49 l 1,0,0
 1013.33 367.49 l 1,0,0
 984.34 213.89 l 1,0,0
 661.19 213.89 l 1,0,0
EndSplineSet
EndChar

StartChar: brokenbar
Encoding: 166 166 104
Width: 586
GlyphClass: 2
Flags: HW
LayerCount: 2
Fore
SplineSet
478.75 1483.67 m 1,0,0
 478.75 745.57 l 1,0,0
 185.07 745.57 l 1,0,0
 185.07 1483.67 l 1,0,0
 478.75 1483.67 l 1,0,0
478.75 324 m 1,0,0
 478.75 -415.1 l 1,0,0
 185.07 -415.1 l 1,0,0
 185.07 324 l 1,0,0
 478.75 324 l 1,0,0
EndSplineSet
EndChar

StartChar: section
Encoding: 167 167 105
Width: 1139
GlyphClass: 2
Flags: HW
LayerCount: 2
Fore
SplineSet
1101.77 666.35 m 0,0,0
 1101.77 554.35 1101.77 554.35 1047.235 480.69 c 0,0,0
 992.7 407.03 992.7 407.03 861.02 361.4 c 1,0,0
 993.02 290.04 993.02 290.04 993.02 134.41 c 0,0,0
 993.02 -54.19 993.02 -54.19 849.735 -151 c 0,0,0
 706.45 -247.81 706.45 -247.81 438.86 -247.81 c 0,0,0
 202.69 -247.81 202.69 -247.81 85.06 -174.68 c 0,0,0
 -32.57 -101.55 -32.57 -101.55 -44.64 55.04 c 1,0,0
 231.37 85.77 l 1,0,0
 239.1 4.42 239.1 4.42 293.305 -30.26 c 0,0,0
 347.51 -64.94 347.51 -64.94 449.88 -64.94 c 0,0,0
 583.57 -64.94 583.57 -64.94 653.58 -27.745 c 0,0,0
 723.59 9.45 723.59 9.45 723.59 77.18 c 0,0,0
 723.59 130.46 723.59 130.46 694.795 162.945 c 0,0,0
 666 195.43 666 195.43 612.07 216.1 c 0,0,0
 567.72 230.17 567.72 230.17 412.37 261.55 c 0,0,0
 92.69 322.98 92.69 322.98 92.69 555.96 c 0,0,0
 92.69 760.34 92.69 760.34 362.04 829.32 c 1,0,0
 213.41 906.01 213.41 906.01 213.41 1072.94 c 0,0,0
 213.41 1244.54 213.41 1244.54 338.39 1326.365 c 0,0,0
 463.37 1408.19 463.37 1408.19 725.59 1408.19 c 0,0,0
 939.82 1408.19 939.82 1408.19 1053.28 1336.045 c 0,0,0
 1166.74 1263.9 1166.74 1263.9 1168.79 1127.92 c 1,0,0
 898.06 1102.92 l 1,0,0
 888.7 1168.94 888.7 1168.94 833.525 1197.13 c 0,0,0
 778.35 1225.32 778.35 1225.32 699.97 1225.32 c 0,0,0
 485.83 1225.32 485.83 1225.32 485.83 1102.22 c 0,0,0
 485.83 1070.83 485.83 1070.83 502.59 1046.78 c 0,0,0
 533.91 1010.15 533.91 1010.15 589.735 990.475 c 0,0,0
 645.56 970.8 645.56 970.8 735.86 951.12 c 0,0,0
 913.87 915.4 913.87 915.4 1007.82 843.88 c 0,0,0
 1101.77 772.36 1101.77 772.36 1101.77 666.35 c 0,0,0
369.1 605.54 m 0,0,0
 369.1 564.86 369.1 564.86 393.44 538.33 c 0,0,0
 417.78 511.8 417.78 511.8 454.84 495.09 c 0,0,0
 489.57 478.05 489.57 478.05 616.5 449.38 c 1,0,0
 720.57 459.7 720.57 459.7 774.46 491.58 c 0,0,0
 828.35 523.46 828.35 523.46 828.35 576.88 c 0,0,0
 828.35 606.6 828.35 606.6 819.8 630.135 c 0,0,0
 811.25 653.67 811.25 653.67 793.16 670.7 c 0,0,0
 737.5 712 737.5 712 583.54 745.02 c 1,0,0
 485.16 739.02 485.16 739.02 427.13 704.97 c 0,0,0
 369.1 670.92 369.1 670.92 369.1 605.54 c 0,0,0
EndSplineSet
EndChar

StartChar: dieresis
Encoding: 168 168 106
Width: 682
GlyphClass: 2
Flags: HW
LayerCount: 2
Fore
SplineSet
860.67 1422.95 m 1,0,0
 815.03 1192.4 l 1,0,0
 583.51 1192.4 l 1,0,0
 629.15 1422.95 l 1,0,0
 860.67 1422.95 l 1,0,0
405.52 1422.95 m 1,0,0
 359.88 1192.4 l 1,0,0
 134.34 1192.4 l 1,0,0
 178.65 1422.95 l 1,0,0
 405.52 1422.95 l 1,0,0
EndSplineSet
EndChar

StartChar: copyright
Encoding: 169 169 107
Width: 1509
GlyphClass: 2
Flags: HW
LayerCount: 2
Fore
SplineSet
1507.67 707 m 0,0,0
 1507.67 514 1507.67 514 1411.67 346 c 0,0,0
 1314.67 177 1314.67 177 1146.17 80.5 c 0,0,0
 977.67 -16 977.67 -16 784.67 -16 c 0,0,0
 588.67 -16 588.67 -16 418.67 85 c 0,0,0
 249.67 186 249.67 186 155.67 352 c 0,0,0
 61.67 518 61.67 518 61.67 707 c 0,0,0
 61.67 901 61.67 901 158.67 1068 c 0,0,0
 255.67 1236 255.67 1236 423.67 1333 c 0,0,0
 591.67 1430 591.67 1430 784.67 1430 c 0,0,0
 978.67 1430 978.67 1430 1147.67 1333 c 0,0,0
 1315.67 1236 1315.67 1236 1411.67 1068.5 c 0,0,0
 1507.67 901 1507.67 901 1507.67 707 c 0,0,0
1389.07 707 m 0,0,0
 1389.07 869.35 1389.07 869.35 1307.73 1007.7 c 0,0,0
 1226.72 1145.72 1226.72 1145.72 1086.205 1227.06 c 0,0,0
 945.69 1308.4 945.69 1308.4 784.67 1308.4 c 0,0,0
 631.3 1308.4 631.3 1308.4 493.28 1232.38 c 0,0,0
 355.26 1156.69 355.26 1156.69 269.265 1016.675 c 0,0,0
 183.27 876.66 183.27 876.66 183.27 707 c 0,0,0
 183.27 546.31 183.27 546.31 264.28 405.3 c 0,0,0
 344.29 264.62 344.29 264.62 483.305 183.28 c 0,0,0
 622.32 101.94 622.32 101.94 784.67 101.94 c 0,0,0
 946.36 101.94 946.36 101.94 1087.04 182.95 c 0,0,0
 1227.72 264.29 1227.72 264.29 1308.395 405.135 c 0,0,0
 1389.07 545.98 1389.07 545.98 1389.07 707 c 0,0,0
798.33 286.98 m 0,0,0
 603.68 286.98 603.68 286.98 497.685 397.32 c 0,0,0
 391.69 507.66 391.69 507.66 391.69 709 c 0,0,0
 391.69 912 391.69 912 494.35 1016.515 c 0,0,0
 597.01 1121.03 597.01 1121.03 788.67 1121.03 c 0,0,0
 1052.62 1121.03 1052.62 1121.03 1145.96 885.43 c 1,0,0
 976.1 841.79 l 1,0,0
 952.08 900.15 952.08 900.15 906.715 934.15 c 0,0,0
 861.35 968.15 861.35 968.15 794.66 968.15 c 0,0,0
 691.6 968.15 691.6 968.15 640.06 901.615 c 0,0,0
 588.52 835.08 588.52 835.08 588.52 709 c 0,0,0
 588.52 580.6 588.52 580.6 643.56 510.395 c 0,0,0
 698.6 440.19 698.6 440.19 798.33 440.19 c 0,0,0
 930.39 440.19 930.39 440.19 982.12 578.9 c 1,0,0
 1156.97 527.94 l 1,0,0
 1100.29 401.62 1100.29 401.62 1012.465 344.3 c 0,0,0
 924.64 286.98 924.64 286.98 798.33 286.98 c 0,0,0
EndSplineSet
EndChar

StartChar: ordfeminine
Encoding: 170 170 108
Width: 758
GlyphClass: 2
Flags: HW
LayerCount: 2
Fore
SplineSet
664.48 710.2 m 0,0,0
 598.48 710.2 598.48 710.2 562.98 735.045 c 0,0,0
 527.48 759.89 527.48 759.89 527.48 804.9 c 1,0,0
 530.15 846.23 l 1,0,0
 527.48 846.23 l 1,0,0
 474.78 758.57 474.78 758.57 425.74 730.055 c 0,0,0
 376.7 701.54 376.7 701.54 301.69 701.54 c 0,0,0
 216.65 701.54 216.65 701.54 162.8 754.88 c 0,0,0
 108.95 808.22 108.95 808.22 108.95 892.58 c 0,0,0
 108.95 1006.94 108.95 1006.94 189.31 1068.445 c 0,0,0
 269.67 1129.95 269.67 1129.95 458.32 1133.28 c 2,0,0
 562.84 1134.62 l 1,0,0
 575.52 1198.02 575.52 1198.02 575.52 1213.04 c 0,0,0
 575.52 1288.44 575.52 1288.44 508.37 1288.44 c 0,0,0
 453.65 1288.44 453.65 1288.44 428.93 1268.905 c 0,0,0
 404.21 1249.37 404.21 1249.37 393.53 1211.96 c 1,0,0
 209.66 1231.62 l 1,0,0
 226.69 1312.36 226.69 1312.36 298.875 1362.87 c 0,0,0
 371.06 1413.38 371.06 1413.38 511.7 1413.38 c 0,0,0
 649.34 1413.38 649.34 1413.38 709.53 1369.19 c 0,0,0
 769.72 1325 769.72 1325 769.72 1225.02 c 0,0,0
 769.72 1208.68 769.72 1208.68 765.89 1188.345 c 0,0,0
 762.06 1168.01 762.06 1168.01 757.06 1147.67 c 2,0,0
 706.72 901.93 l 2,0,0
 706.38 891.25 706.38 891.25 705.545 880.245 c 0,0,0
 704.71 869.24 704.71 869.24 702.05 856.91 c 0,0,0
 702.05 817.87 702.05 817.87 755.37 817.87 c 0,0,0
 772.04 817.87 772.04 817.87 795.38 823.21 c 1,0,0
 787.03 721.87 l 1,0,0
 753.69 710.2 753.69 710.2 664.48 710.2 c 0,0,0
316.15 930.17 m 0,0,0
 316.15 877.85 316.15 877.85 340.495 855.835 c 0,0,0
 364.84 833.82 364.84 833.82 398.55 833.82 c 0,0,0
 425.3 833.82 425.3 833.82 449.705 848.855 c 0,0,0
 474.11 863.89 474.11 863.89 493.655 893.935 c 0,0,0
 513.2 923.98 513.2 923.98 525.53 968.01 c 2,0,0
 543.51 1030.65 l 1,0,0
 459.04 1029.31 l 2,0,0
 397.22 1027.64 397.22 1027.64 356.685 1002.44 c 0,0,0
 316.15 977.24 316.15 977.24 316.15 930.17 c 0,0,0
EndSplineSet
EndChar

StartChar: guillemotleft
Encoding: 171 171 109
Width: 1139
GlyphClass: 2
Flags: HW
LayerCount: 2
Fore
SplineSet
951.08 182.62 m 1,0,0
 946.08 138.34 l 1,0,0
 690.32 138.34 l 1,0,0
 523.07 498.02 l 1,0,0
 537.73 571.66 l 1,0,0
 832.02 937.34 l 1,0,0
 1097.75 937.34 l 1,0,0
 1091.75 895.02 l 1,0,0
 789.48 531 l 1,0,0
 951.08 182.62 l 1,0,0
499.68 182.95 m 1,0,0
 494.68 138.34 l 1,0,0
 238.59 138.34 l 1,0,0
 70.68 498.02 l 1,0,0
 85.34 571.66 l 1,0,0
 380.29 937.34 l 1,0,0
 646.35 937.34 l 1,0,0
 640.35 895.35 l 1,0,0
 337.09 531.33 l 1,0,0
 499.68 182.95 l 1,0,0
EndSplineSet
EndChar

StartChar: logicalnot
Encoding: 172 172 110
Width: 1196
GlyphClass: 2
Flags: HW
LayerCount: 2
Fore
SplineSet
1104.31 805.87 m 1,0,0
 1104.31 128.13 l 1,0,0
 854.24 128.13 l 1,0,0
 854.24 556.13 l 1,0,0
 66.75 556.13 l 1,0,0
 66.75 805.87 l 1,0,0
 1104.31 805.87 l 1,0,0
EndSplineSet
EndChar

StartChar: registered
Encoding: 174 174 111
Width: 1509
GlyphClass: 2
Flags: HW
LayerCount: 2
Fore
SplineSet
1507.67 707 m 0,0,0
 1507.67 514 1507.67 514 1411.67 346 c 0,0,0
 1314.67 177 1314.67 177 1146.17 80.5 c 0,0,0
 977.67 -16 977.67 -16 784.67 -16 c 0,0,0
 588.67 -16 588.67 -16 418.67 85 c 0,0,0
 249.67 186 249.67 186 155.67 352 c 0,0,0
 61.67 518 61.67 518 61.67 707 c 0,0,0
 61.67 901 61.67 901 158.67 1068 c 0,0,0
 255.67 1236 255.67 1236 423.67 1333 c 0,0,0
 591.67 1430 591.67 1430 784.67 1430 c 0,0,0
 978.67 1430 978.67 1430 1147.67 1333 c 0,0,0
 1315.67 1236 1315.67 1236 1411.67 1068.5 c 0,0,0
 1507.67 901 1507.67 901 1507.67 707 c 0,0,0
1389.07 707 m 0,0,0
 1389.07 869.35 1389.07 869.35 1307.73 1007.7 c 0,0,0
 1226.72 1145.72 1226.72 1145.72 1086.205 1227.06 c 0,0,0
 945.69 1308.4 945.69 1308.4 784.67 1308.4 c 0,0,0
 631.3 1308.4 631.3 1308.4 493.28 1232.38 c 0,0,0
 355.26 1156.69 355.26 1156.69 269.265 1016.675 c 0,0,0
 183.27 876.66 183.27 876.66 183.27 707 c 0,0,0
 183.27 546.31 183.27 546.31 264.28 405.3 c 0,0,0
 344.29 264.62 344.29 264.62 483.305 183.28 c 0,0,0
 622.32 101.94 622.32 101.94 784.67 101.94 c 0,0,0
 946.36 101.94 946.36 101.94 1087.04 182.95 c 0,0,0
 1227.72 264.29 1227.72 264.29 1308.395 405.135 c 0,0,0
 1389.07 545.98 1389.07 545.98 1389.07 707 c 0,0,0
668.23 605.05 m 1,0,0
 668.23 299.64 l 1,0,0
 473.4 299.64 l 1,0,0
 473.4 1109.36 l 1,0,0
 810.99 1109.36 l 2,0,0
 967.62 1109.36 967.62 1109.36 1043.785 1044.365 c 0,0,0
 1119.95 979.37 1119.95 979.37 1119.95 865.71 c 0,0,0
 1119.95 774.35 1119.95 774.35 1073.27 716.175 c 0,0,0
 1026.59 658 1026.59 658 950.9 631.02 c 1,0,0
 1161.26 299.64 l 1,0,0
 941.78 299.64 l 1,0,0
 770.71 605.05 l 1,0,0
 668.23 605.05 l 1,0,0
922.46 863.71 m 0,0,0
 922.46 916.75 922.46 916.75 888.26 944.77 c 0,0,0
 854.06 972.79 854.06 972.79 789.02 972.79 c 2,0,0
 668.23 972.79 l 1,0,0
 668.23 744.94 l 1,0,0
 799.69 744.94 l 2,0,0
 861.07 744.94 861.07 744.94 891.765 778.13 c 0,0,0
 922.46 811.32 922.46 811.32 922.46 863.71 c 0,0,0
EndSplineSet
EndChar

StartChar: macron
Encoding: 175 175 112
Width: 1131
GlyphClass: 2
Flags: HW
LayerCount: 2
Fore
SplineSet
1148 1521.58 m 1,0,0
 1148 1435.17 l 1,0,0
 -17 1435.17 l 1,0,0
 -17 1521.58 l 1,0,0
 1148 1521.58 l 1,0,0
EndSplineSet
EndChar

StartChar: degree
Encoding: 176 176 113
Width: 819
GlyphClass: 2
Flags: HW
LayerCount: 2
Fore
SplineSet
849.8 1098.45 m 0,0,0
 849.8 1008.81 849.8 1008.81 805.48 935.165 c 0,0,0
 761.16 861.52 761.16 861.52 686.185 817.535 c 0,0,0
 611.21 773.55 611.21 773.55 517.58 773.55 c 0,0,0
 426.28 773.55 426.28 773.55 351.47 816.54 c 0,0,0
 276.66 859.53 276.66 859.53 231.675 933.34 c 0,0,0
 186.69 1007.15 186.69 1007.15 186.69 1099.78 c 0,0,0
 186.69 1191.08 186.69 1191.08 231.175 1264.06 c 0,0,0
 275.66 1337.04 275.66 1337.04 351.3 1380.195 c 0,0,0
 426.94 1423.35 426.94 1423.35 517.58 1423.35 c 0,0,0
 610.88 1423.35 610.88 1423.35 685.855 1379.365 c 0,0,0
 760.83 1335.38 760.83 1335.38 805.315 1261.57 c 0,0,0
 849.8 1187.76 849.8 1187.76 849.8 1098.45 c 0,0,0
675.63 1098.45 m 0,0,0
 675.63 1166.47 675.63 1166.47 630.78 1213.15 c 0,0,0
 585.93 1259.83 585.93 1259.83 517.58 1259.83 c 0,0,0
 447.9 1259.83 447.9 1259.83 401.72 1212.815 c 0,0,0
 355.54 1165.8 355.54 1165.8 355.54 1098.45 c 0,0,0
 355.54 1031.1 355.54 1031.1 403.385 982.755 c 0,0,0
 451.23 934.41 451.23 934.41 517.58 934.41 c 0,0,0
 582.27 934.41 582.27 934.41 628.95 982.255 c 0,0,0
 675.63 1030.1 675.63 1030.1 675.63 1098.45 c 0,0,0
EndSplineSet
EndChar

StartChar: plusminus
Encoding: 177 177 114
Width: 1124
GlyphClass: 2
Flags: HW
LayerCount: 2
Fore
SplineSet
737.08 715.91 m 1,0,0
 737.08 392.73 l 1,0,0
 487.67 392.73 l 1,0,0
 487.67 715.91 l 1,0,0
 94.26 715.91 l 1,0,0
 94.26 964.65 l 1,0,0
 487.67 964.65 l 1,0,0
 487.67 1286.83 l 1,0,0
 737.08 1286.83 l 1,0,0
 737.08 964.65 l 1,0,0
 1131.82 964.65 l 1,0,0
 1131.82 715.91 l 1,0,0
 737.08 715.91 l 1,0,0
1131.82 248.74 m 1,0,0
 1131.82 0 l 1,0,0
 94.26 0 l 1,0,0
 94.26 248.74 l 1,0,0
 1131.82 248.74 l 1,0,0
EndSplineSet
EndChar

StartChar: uni00B2
Encoding: 178 178 115
Width: 682
GlyphClass: 2
Flags: HW
LayerCount: 2
Fore
SplineSet
84.53 739.89 m 1,0,0
 110.51 865.5 l 1,0,0
 138.18 909.84 138.18 909.84 179.51 948.18 c 0,0,0
 204.18 971.52 204.18 971.52 235.835 994.355 c 0,0,0
 267.49 1017.19 267.49 1017.19 304.005 1039.705 c 0,0,0
 340.52 1062.22 340.52 1062.22 380.26 1084.6 c 0,0,0
 407.86 1097.43 407.86 1097.43 444.53 1123.78 c 0,0,0
 486.86 1155.12 486.86 1155.12 503.87 1183.31 c 0,0,0
 520.88 1211.5 520.88 1211.5 520.88 1243.87 c 0,0,0
 520.88 1265.61 520.88 1265.61 502.84 1279.665 c 0,0,0
 484.8 1293.72 484.8 1293.72 459.7 1293.72 c 0,0,0
 424.28 1293.72 424.28 1293.72 402.875 1274.67 c 0,0,0
 381.47 1255.62 381.47 1255.62 368.8 1211.24 c 1,0,0
 194.59 1251.51 l 1,0,0
 226.25 1345.56 226.25 1345.56 291.455 1386.605 c 0,0,0
 356.66 1427.65 356.66 1427.65 478.67 1427.65 c 0,0,0
 592.35 1427.65 592.35 1427.65 656.535 1380.285 c 0,0,0
 720.72 1332.92 720.72 1332.92 720.72 1249.89 c 0,0,0
 720.72 1184.6 720.72 1184.6 693.08 1142.26 c 0,0,0
 664.45 1094.62 664.45 1094.62 621.495 1059.46 c 0,0,0
 578.54 1024.3 578.54 1024.3 525.59 998.29 c 0,0,0
 502.58 988.59 502.58 988.59 487.825 982.355 c 0,0,0
 473.07 976.12 473.07 976.12 466.9 974.35 c 0,0,0
 437.73 959.58 437.73 959.58 402.525 939.7 c 0,0,0
 367.32 919.82 367.32 919.82 346.64 892.79 c 1,0,0
 662.97 892.79 l 1,0,0
 636.32 739.89 l 1,0,0
 84.53 739.89 l 1,0,0
EndSplineSet
EndChar

StartChar: uni00B3
Encoding: 179 179 116
Width: 682
GlyphClass: 2
Flags: HW
LayerCount: 2
Fore
SplineSet
343.97 1151.41 m 1,0,0
 404.96 1151.41 l 2,0,0
 455.41 1151.41 455.41 1151.41 488.79 1170.965 c 0,0,0
 522.17 1190.52 522.17 1190.52 522.17 1226.61 c 0,0,0
 522.17 1265.3 522.17 1265.3 505.13 1282.835 c 0,0,0
 488.09 1300.37 488.09 1300.37 452.37 1300.37 c 0,0,0
 414.96 1300.37 414.96 1300.37 393.06 1280.665 c 0,0,0
 371.16 1260.96 371.16 1260.96 360.14 1219.9 c 1,0,0
 184.6 1243.57 l 1,0,0
 207.96 1338.27 207.96 1338.27 274.825 1382.96 c 0,0,0
 341.69 1427.65 341.69 1427.65 475.67 1427.65 c 0,0,0
 595.98 1427.65 595.98 1427.65 660.66 1387.11 c 0,0,0
 725.34 1346.57 725.34 1346.57 725.34 1256.57 c 0,0,0
 725.34 1191.51 725.34 1191.51 676.16 1142.16 c 0,0,0
 626.98 1092.81 626.98 1092.81 553.89 1090.76 c 1,0,0
 552.56 1088.76 l 1,0,0
 613.59 1077.09 613.59 1077.09 650.61 1041.56 c 0,0,0
 687.63 1006.03 687.63 1006.03 687.63 944.68 c 0,0,0
 687.63 850.28 687.63 850.28 603.95 791.745 c 0,0,0
 520.27 733.21 520.27 733.21 375.27 733.21 c 0,0,0
 134.22 733.21 134.22 733.21 110.19 918 c 1,0,0
 308.35 945.97 l 1,0,0
 316.02 904.56 316.02 904.56 336.915 883.52 c 0,0,0
 357.81 862.48 357.81 862.48 394.57 862.48 c 0,0,0
 427.37 862.48 427.37 862.48 454.92 883.04 c 0,0,0
 482.47 903.6 482.47 903.6 482.47 946.35 c 0,0,0
 482.47 985.72 482.47 985.72 460.415 1002.76 c 0,0,0
 438.36 1019.8 438.36 1019.8 389.29 1019.8 c 2,0,0
 318.98 1019.8 l 1,0,0
 343.97 1151.41 l 1,0,0
EndSplineSet
EndChar

StartChar: acute
Encoding: 180 180 117
Width: 682
GlyphClass: 2
Flags: HW
LayerCount: 2
Fore
SplineSet
821.22 1452.4 m 1,0,0
 444.56 1177.06 l 1,0,0
 281.4 1177.06 l 1,0,0
 288.39 1211.69 l 1,0,0
 533.41 1500.02 l 1,0,0
 830.21 1500.02 l 1,0,0
 821.22 1452.4 l 1,0,0
EndSplineSet
EndChar

StartChar: mu
Encoding: 181 181 118
Width: 1180
GlyphClass: 2
Flags: HW
LayerCount: 2
Fore
SplineSet
323.49 -45.33 m 1,0,0
 250.82 -425 l 1,0,0
 -62.18 -425 l 1,0,0
 228.16 1082 l 1,0,0
 542.16 1082 l 1,0,0
 429.44 503.73 l 2,0,0
 424.44 475.72 424.44 475.72 420.775 444.07 c 0,0,0
 417.11 412.42 417.11 412.42 415.78 378.79 c 0,0,0
 415.78 217.42 415.78 217.42 528.57 217.42 c 0,0,0
 599.34 217.42 599.34 217.42 651.915 292.47 c 0,0,0
 704.49 367.52 704.49 367.52 729.83 514.56 c 2,0,0
 839.85 1082 l 1,0,0
 1154.18 1082 l 1,0,0
 1010.48 341.5 l 2,0,0
 1001.48 294.85 1001.48 294.85 1001.48 282.11 c 0,0,0
 1001.48 214.1 1001.48 214.1 1049.17 214.1 c 0,0,0
 1079.12 214.1 1079.12 214.1 1091.87 220.77 c 1,0,0
 1077.85 6.65 l 1,0,0
 963.95 -20 963.95 -20 868.4 -20 c 0,0,0
 773.47 -20 773.47 -20 732.66 10.355 c 0,0,0
 691.85 40.71 691.85 40.71 693.5 118.7 c 2,0,0
 696.49 162.35 l 1,0,0
 691.83 162.35 l 1,0,0
 657.09 77.66 657.09 77.66 612.175 28.83 c 0,0,0
 567.26 -20 567.26 -20 489.23 -20 c 0,0,0
 431.22 -20 431.22 -20 394.865 5.655 c 0,0,0
 358.51 31.31 358.51 31.31 346.15 73.63 c 1,0,0
 338.17 73.63 l 1,0,0
 323.49 -45.33 l 1,0,0
EndSplineSet
EndChar

StartChar: paragraph
Encoding: 182 182 119
Width: 1151
GlyphClass: 2
Flags: HW
LayerCount: 2
Fore
SplineSet
625.65 1252.47 m 1,0,0
 625.65 -264 l 1,0,0
 456.79 -264 l 1,0,0
 456.79 694 l 1,0,0
 287.46 694 287.46 694 190.46 786.5 c 0,0,0
 93.46 879 93.46 879 93.46 1049 c 0,0,0
 93.46 1218 93.46 1218 191.96 1313.5 c 0,0,0
 290.46 1409 290.46 1409 464.79 1409 c 2,0,0
 1115.57 1409 l 1,0,0
 1115.57 1252.47 l 1,0,0
 983.91 1252.47 l 1,0,0
 983.91 -264 l 1,0,0
 813.39 -264 l 1,0,0
 813.39 1252.47 l 1,0,0
 625.65 1252.47 l 1,0,0
EndSplineSet
EndChar

StartChar: periodcentered
Encoding: 183 183 120
Width: 682
GlyphClass: 2
Flags: HW
LayerCount: 2
Fore
SplineSet
561.41 892.1 m 1,0,0
 497.13 559.05 l 1,0,0
 178.44 559.05 l 1,0,0
 242.72 892.1 l 1,0,0
 561.41 892.1 l 1,0,0
EndSplineSet
EndChar

StartChar: cedilla
Encoding: 184 184 121
Width: 682
GlyphClass: 2
Flags: HW
LayerCount: 2
Fore
SplineSet
403.12 -78.71 m 1,0,0
 469.49 -78.39 469.49 -78.39 513.98 -109.735 c 0,0,0
 558.47 -141.08 558.47 -141.08 558.47 -209.39 c 0,0,0
 558.47 -306.39 558.47 -306.39 471.665 -365.695 c 0,0,0
 384.86 -425 384.86 -425 199.61 -425 c 0,0,0
 174.61 -425 174.61 -425 148.11 -423.5 c 0,0,0
 121.61 -422 121.61 -422 93.61 -419.33 c 1,0,0
 125.25 -293.75 l 1,0,0
 161.28 -301.08 161.28 -301.08 205.27 -301.08 c 0,0,0
 282.97 -301.08 282.97 -301.08 319.805 -285.065 c 0,0,0
 356.64 -269.05 356.64 -269.05 356.64 -228.04 c 0,0,0
 356.64 -168.01 356.64 -168.01 249.61 -168.01 c 0,0,0
 239.58 -169.34 239.58 -169.34 227.075 -169.175 c 0,0,0
 214.57 -169.01 214.57 -169.01 198.26 -170.01 c 1,0,0
 295.27 0 l 1,0,0
 447.49 0 l 1,0,0
 403.12 -78.71 l 1,0,0
EndSplineSet
EndChar

StartChar: uni00B9
Encoding: 185 185 122
Width: 682
GlyphClass: 2
Flags: HW
LayerCount: 2
Fore
SplineSet
663.27 861.52 m 1,0,0
 639.61 735.9 l 1,0,0
 110.21 735.9 l 1,0,0
 134.2 861.52 l 1,0,0
 309.29 861.52 l 1,0,0
 391.38 1282.99 l 1,0,0
 208.93 1184.89 l 1,0,0
 232.27 1303.92 l 1,0,0
 422.72 1414.32 l 1,0,0
 614.88 1414.32 l 1,0,0
 508.12 861.52 l 1,0,0
 663.27 861.52 l 1,0,0
EndSplineSet
EndChar

StartChar: ordmasculine
Encoding: 186 186 123
Width: 748
GlyphClass: 2
Flags: HW
LayerCount: 2
Fore
SplineSet
410.98 701.54 m 0,0,0
 269.97 701.54 269.97 701.54 186.15 780.04 c 0,0,0
 102.33 858.54 102.33 858.54 102.33 989.9 c 0,0,0
 102.33 1054.56 102.33 1054.56 116.66 1113.91 c 0,0,0
 149.33 1247.02 149.33 1247.02 256.815 1330.2 c 0,0,0
 364.3 1413.38 364.3 1413.38 513.35 1413.38 c 0,0,0
 668.99 1413.38 668.99 1413.38 749.485 1341.53 c 0,0,0
 829.98 1269.68 829.98 1269.68 829.98 1144.97 c 0,0,0
 829.98 1086.96 829.98 1086.96 820.97 1043.57 c 0,0,0
 793.62 893.17 793.62 893.17 680.815 797.355 c 0,0,0
 568.01 701.54 568.01 701.54 410.98 701.54 c 0,0,0
497.04 1265.15 m 0,0,0
 428.31 1265.15 428.31 1265.15 386.61 1218.15 c 0,0,0
 363.91 1194.13 363.91 1194.13 349.88 1162.895 c 0,0,0
 335.85 1131.66 335.85 1131.66 330.495 1092.425 c 0,0,0
 325.14 1053.19 325.14 1053.19 325.14 1003.17 c 0,0,0
 325.14 848.44 325.14 848.44 435.93 848.44 c 0,0,0
 486.26 848.44 486.26 848.44 508.465 860.94 c 0,0,0
 530.67 873.44 530.67 873.44 549.36 897.11 c 0,0,0
 567.74 922.13 567.74 922.13 581.105 962.68 c 0,0,0
 594.47 1003.23 594.47 1003.23 600.99 1045.795 c 0,0,0
 607.51 1088.36 607.51 1088.36 607.51 1119.42 c 0,0,0
 607.51 1185.49 607.51 1185.49 579.97 1225.32 c 0,0,0
 552.43 1265.15 552.43 1265.15 497.04 1265.15 c 0,0,0
EndSplineSet
EndChar

StartChar: guillemotright
Encoding: 187 187 124
Width: 1139
GlyphClass: 2
Flags: HW
LayerCount: 2
Fore
SplineSet
1060.97 506 m 1,0,0
 766.35 138.34 l 1,0,0
 500.62 138.34 l 1,0,0
 506.29 180 l 1,0,0
 808.56 545.67 l 1,0,0
 645.64 892.4 l 1,0,0
 650.97 937.34 l 1,0,0
 908.05 937.34 l 1,0,0
 1075.63 579.64 l 1,0,0
 1060.97 506 l 1,0,0
609.57 506 m 1,0,0
 313.96 138.34 l 1,0,0
 48.89 138.34 l 1,0,0
 54.56 180 l 1,0,0
 356.83 545.67 l 1,0,0
 193.91 892.4 l 1,0,0
 199.24 937.34 l 1,0,0
 455.66 937.34 l 1,0,0
 624.23 579.64 l 1,0,0
 609.57 506 l 1,0,0
EndSplineSet
EndChar

StartChar: questiondown
Encoding: 191 191 128
Width: 1251
GlyphClass: 2
Flags: HW
LayerCount: 2
Fore
SplineSet
934.91 1081.67 m 1,0,0
 878.62 788.9 l 1,0,0
 558.6 788.9 l 1,0,0
 614.89 1081.67 l 1,0,0
 934.91 1081.67 l 1,0,0
487.69 -348.33 m 0,0,0
 342.06 -348.33 342.06 -348.33 235.25 -306.82 c 0,0,0
 128.44 -265.31 128.44 -265.31 70.785 -186.305 c 0,0,0
 13.13 -107.3 13.13 -107.3 13.13 6.01 c 0,0,0
 13.13 33.85 13.13 33.85 15.7 65.11 c 0,0,0
 18.27 96.37 18.27 96.37 27.37 126.09 c 0,0,0
 50.06 178.71 50.06 178.71 86.73 224.83 c 0,0,0
 123.4 270.95 123.4 270.95 194.49 322.88 c 0,0,0
 265.58 374.81 265.58 374.81 390.7 444.69 c 1,0,0
 424.77 470.38 424.77 470.38 448.15 487.415 c 0,0,0
 471.53 504.45 471.53 504.45 479.58 512.5 c 0,0,0
 505.92 536.85 505.92 536.85 523.08 567.185 c 0,0,0
 540.24 597.52 540.24 597.52 544.58 639.5 c 1,0,0
 841.94 639.5 l 1,0,0
 827.94 563.82 827.94 563.82 797.93 507.15 c 0,0,0
 778.92 469.81 778.92 469.81 752.08 436.81 c 0,0,0
 725.24 403.81 725.24 403.81 680.89 368.64 c 0,0,0
 636.54 333.47 636.54 333.47 561.17 285.13 c 0,0,0
 486.56 237.51 486.56 237.51 438.585 202.035 c 0,0,0
 390.61 166.56 390.61 166.56 362.29 133.26 c 0,0,0
 341.56 105.89 341.56 105.89 334.685 80.83 c 0,0,0
 327.81 55.77 327.81 55.77 327.81 25.68 c 0,0,0
 327.81 -25.77 327.81 -25.77 367.56 -61.165 c 0,0,0
 407.31 -96.56 407.31 -96.56 503.36 -96.56 c 0,0,0
 607.45 -96.56 607.45 -96.56 670.52 -55.82 c 0,0,0
 733.59 -15.08 733.59 -15.08 755.63 73.67 c 1,0,0
 1054.96 33.67 l 1,0,0
 998.61 -156.01 998.61 -156.01 856.46 -252.17 c 0,0,0
 714.31 -348.33 714.31 -348.33 487.69 -348.33 c 0,0,0
EndSplineSet
EndChar

StartChar: AE
Encoding: 198 198 135
Width: 2048
GlyphClass: 2
Flags: HW
LayerCount: 2
Fore
SplineSet
475.48 342.84 m 1,0,0
 245.69 0 l 1,0,0
 -102.28 0 l 1,0,0
 864.7 1409 l 1,0,0
 2109.56 1409 l 1,0,0
 2059.61 1158.57 l 1,0,0
 1371.15 1158.57 l 1,0,0
 1308.42 835.58 l 1,0,0
 1934.22 835.58 l 1,0,0
 1886.93 592.47 l 1,0,0
 1261.13 592.47 l 1,0,0
 1195.39 250.43 l 1,0,0
 1924.85 250.43 l 1,0,0
 1876.56 0 l 1,0,0
 828.42 0 l 1,0,0
 894.79 342.84 l 1,0,0
 475.48 342.84 l 1,0,0
635.66 588.93 m 1,0,0
 942.41 588.93 l 1,0,0
 1054.47 1168.9 l 1,0,0
 1023.17 1168.9 l 1,0,0
 887.17 962.21 l 1,0,0
 635.66 588.93 l 1,0,0
EndSplineSet
EndChar

StartChar: Eth
Encoding: 208 208 145
Width: 1479
GlyphClass: 2
Flags: HW
LayerCount: 2
Fore
SplineSet
724.1 1409 m 2,0,0
 950.72 1409 950.72 1409 1105.375 1341.15 c 0,0,0
 1260.03 1273.3 1260.03 1273.3 1338.535 1140.62 c 0,0,0
 1417.04 1007.94 1417.04 1007.94 1417.04 812.28 c 0,0,0
 1417.04 576.62 1417.04 576.62 1317.71 393.63 c 0,0,0
 1218.71 211.64 1218.71 211.64 1031.535 105.82 c 0,0,0
 844.36 0 844.36 0 614.66 0 c 2,0,0
 27.09 0 l 1,0,0
 138.79 576.51 l 1,0,0
 19.37 576.51 l 1,0,0
 65.33 816.96 l 1,0,0
 186.08 816.96 l 1,0,0
 301.42 1409 l 1,0,0
 724.1 1409 l 2,0,0
405.36 252.75 m 1,0,0
 610.94 252.75 l 2,0,0
 759.06 252.75 759.06 252.75 875.14 318.78 c 0,0,0
 989.56 383.81 989.56 383.81 1051.77 507.365 c 0,0,0
 1113.98 630.92 1113.98 630.92 1113.98 794.33 c 0,0,0
 1113.98 973.43 1113.98 973.43 1015.245 1064.84 c 0,0,0
 916.51 1156.25 916.51 1156.25 728.08 1156.25 c 2,0,0
 580.46 1156.25 l 1,0,0
 514.07 816.96 l 1,0,0
 854.9 816.96 l 1,0,0
 806.28 576.51 l 1,0,0
 468.11 576.51 l 1,0,0
 405.36 252.75 l 1,0,0
EndSplineSet
EndChar

StartChar: multiply
Encoding: 215 215 152
Width: 1196
GlyphClass: 2
Flags: HW
LayerCount: 2
Fore
SplineSet
643.3 508.18 m 1,0,0
 287.3 149.19 l 1,0,0
 110.82 324.68 l 1,0,0
 467.48 684 l 1,0,0
 115.48 1036 l 1,0,0
 291.3 1209.49 l 1,0,0
 643.96 860.48 l 1,0,0
 996.62 1212.81 l 1,0,0
 1172.11 1037.32 l 1,0,0
 819.45 681.34 l 1,0,0
 1171.45 332 l 1,0,0
 994.97 153.85 l 1,0,0
 643.3 508.18 l 1,0,0
EndSplineSet
EndChar

StartChar: Oslash
Encoding: 216 216 153
Width: 1593
GlyphClass: 2
Flags: HW
LayerCount: 2
Fore
SplineSet
1438.96 1234.26 m 1,0,0
 1569.89 1085.27 1569.89 1085.27 1569.89 851 c 0,0,0
 1571.21 610.27 1571.21 610.27 1467.2 405.29 c 0,0,0
 1361.53 198.65 1361.53 198.65 1171.54 89.325 c 0,0,0
 981.55 -20 981.55 -20 736.24 -20 c 0,0,0
 524.47 -20 524.47 -20 377.79 60.11 c 1,0,0
 277.97 -53 l 1,0,0
 65.03 -53 l 1,0,0
 251.88 155.78 l 1,0,0
 99.67 317.08 99.67 317.08 99.67 573 c 0,0,0
 99.67 807.68 99.67 807.68 205.67 1011.67 c 0,0,0
 310.67 1215.66 310.67 1215.66 497.01 1322.83 c 0,0,0
 683.35 1430 683.35 1430 928 1430 c 0,0,0
 1159.71 1430 1159.71 1430 1321.36 1333.59 c 1,0,0
 1440.48 1466 l 1,0,0
 1647.11 1466 l 1,0,0
 1438.96 1234.26 l 1,0,0
912.35 1170.93 m 0,0,0
 762.56 1170.93 762.56 1170.93 657.14 1100.55 c 0,0,0
 586.75 1053.52 586.75 1053.52 537.38 973.135 c 0,0,0
 488.01 892.75 488.01 892.75 461.825 793.03 c 0,0,0
 435.64 693.31 435.64 693.31 435.64 586.94 c 0,0,0
 435.64 471.55 435.64 471.55 472.33 394.51 c 1,0,0
 1114.9 1108.85 l 1,0,0
 1036.49 1170.93 1036.49 1170.93 912.35 1170.93 c 0,0,0
1228.6 820.4 m 0,0,0
 1228.6 907.85 1228.6 907.85 1205.21 978.24 c 1,0,0
 577.27 276.54 l 1,0,0
 648.02 237.41 648.02 237.41 751.89 237.41 c 0,0,0
 901.01 237.41 901.01 237.41 1006.76 308.45 c 0,0,0
 1077.48 355.81 1077.48 355.81 1127.185 435.355 c 0,0,0
 1176.89 514.9 1176.89 514.9 1202.745 614.29 c 0,0,0
 1228.6 713.68 1228.6 713.68 1228.6 820.4 c 0,0,0
EndSplineSet
EndChar

StartChar: Thorn
Encoding: 222 222 159
Width: 1366
GlyphClass: 2
Flags: HW
LayerCount: 2
Fore
SplineSet
407.1 262.42 m 1,0,0
 356.41 0 l 1,0,0
 27.09 0 l 1,0,0
 301.09 1409 l 1,0,0
 630.41 1409 l 1,0,0
 588.06 1192.91 l 1,0,0
 807.33 1192.91 l 2,0,0
 1056.3 1192.91 1056.3 1192.91 1194.285 1077.61 c 0,0,0
 1332.27 962.31 1332.27 962.31 1332.27 760.02 c 0,0,0
 1332.27 608.7 1332.27 608.7 1262.605 496.715 c 0,0,0
 1192.94 384.73 1192.94 384.73 1066.77 323.575 c 0,0,0
 940.6 262.42 940.6 262.42 769.92 262.42 c 2,0,0
 407.1 262.42 l 1,0,0
455.72 514.5 m 1,0,0
 712.38 514.5 l 2,0,0
 855.5 514.5 855.5 514.5 927.06 565.9 c 0,0,0
 998.62 617.3 998.62 617.3 998.62 741.71 c 0,0,0
 998.62 838.1 998.62 838.1 939.57 888.465 c 0,0,0
 880.52 938.83 880.52 938.83 771.74 938.83 c 2,0,0
 538.45 938.83 l 1,0,0
 455.72 514.5 l 1,0,0
EndSplineSet
EndChar

StartChar: germandbls
Encoding: 223 223 160
Width: 1251
GlyphClass: 2
Flags: HW
LayerCount: 2
Fore
SplineSet
1161.57 357.21 m 0,0,0
 1161.57 187.57 1161.57 187.57 1050.245 85.27 c 0,0,0
 938.92 -17.03 938.92 -17.03 760.55 -17.03 c 0,0,0
 654.6 -17.03 654.6 -17.03 574.43 -3.025 c 0,0,0
 494.26 10.98 494.26 10.98 431.63 40.63 c 1,0,0
 503.59 240.82 l 1,0,0
 588.19 201.85 588.19 201.85 631.735 192.34 c 0,0,0
 675.28 182.83 675.28 182.83 720.33 182.83 c 0,0,0
 790.43 182.83 790.43 182.83 826.155 222.355 c 0,0,0
 861.88 261.88 861.88 261.88 861.88 327.61 c 0,0,0
 861.88 376.96 861.88 376.96 835.2 412.5 c 0,0,0
 808.52 448.04 808.52 448.04 745.16 491.76 c 0,0,0
 684.13 532.15 684.13 532.15 655.785 582.99 c 0,0,0
 627.44 633.83 627.44 633.83 627.44 705.46 c 0,0,0
 627.44 770.82 627.44 770.82 660.62 824.495 c 0,0,0
 693.8 878.17 693.8 878.17 772.46 940.46 c 0,0,0
 849.14 1003.09 849.14 1003.09 882.81 1053.575 c 0,0,0
 916.48 1104.06 916.48 1104.06 916.48 1162.06 c 0,0,0
 916.48 1209.78 916.48 1209.78 887.735 1235.16 c 0,0,0
 858.99 1260.54 858.99 1260.54 799.55 1260.54 c 0,0,0
 693.12 1260.54 693.12 1260.54 631.735 1201.655 c 0,0,0
 570.35 1142.77 570.35 1142.77 546.33 1021 c 2,0,0
 349.66 0 l 1,0,0
 35.33 0 l 1,0,0
 235.33 1027 l 2,0,0
 286.32 1264 286.32 1264 427.46 1374 c 0,0,0
 568.6 1484 568.6 1484 808.55 1484 c 0,0,0
 990.87 1484 990.87 1484 1094.71 1408.32 c 0,0,0
 1198.55 1332.64 1198.55 1332.64 1198.55 1196 c 0,0,0
 1198.55 1026.38 1198.55 1026.38 1059.51 918.72 c 0,0,0
 973.15 851.06 973.15 851.06 947.81 822.72 c 0,0,0
 919.14 790.39 919.14 790.39 919.14 753.06 c 0,0,0
 919.14 700.09 919.14 700.09 975.41 651.11 c 0,0,0
 988.75 641.08 988.75 641.08 1005.11 630.535 c 0,0,0
 1021.47 619.99 1021.47 619.99 1040.19 608.26 c 0,0,0
 1161.57 526.47 1161.57 526.47 1161.57 357.21 c 0,0,0
EndSplineSet
EndChar

StartChar: ae
Encoding: 230 230 167
Width: 1821
GlyphClass: 2
Flags: HW
LayerCount: 2
Fore
SplineSet
1039.54 467.09 m 1,0,0
 1032.21 431.76 1032.21 431.76 1033.2 386.01 c 0,0,0
 1033.2 288.92 1033.2 288.92 1074.75 237.205 c 0,0,0
 1116.3 185.49 1116.3 185.49 1197.4 185.49 c 0,0,0
 1267.11 185.49 1267.11 185.49 1314.335 226.335 c 0,0,0
 1361.56 267.18 1361.56 267.18 1390.93 351.19 c 1,0,0
 1671.24 273.56 l 1,0,0
 1594.92 105.65 1594.92 105.65 1482.27 42.825 c 0,0,0
 1369.62 -20 1369.62 -20 1179.39 -20 c 0,0,0
 1032.38 -20 1032.38 -20 932.725 30.05 c 0,0,0
 833.07 80.1 833.07 80.1 779.45 182.83 c 1,0,0
 739.99 117.34 739.99 117.34 695.82 78.27 c 0,0,0
 632.82 26.64 632.82 26.64 557.835 3.32 c 0,0,0
 482.85 -20 482.85 -20 349.66 -20 c 0,0,0
 224.07 -20 224.07 -20 139.77 49.92 c 0,0,0
 94.37 90.58 94.37 90.58 69.835 148.44 c 0,0,0
 45.3 206.3 45.3 206.3 45.3 278 c 0,0,0
 45.3 470.98 45.3 470.98 180.135 566.81 c 0,0,0
 314.97 662.64 314.97 662.64 577.06 660.99 c 2,0,0
 752.55 660 l 1,0,0
 774.21 755 774.21 755 774.21 792.32 c 0,0,0
 774.21 903.82 774.21 903.82 673.94 903.82 c 0,0,0
 589.84 903.82 589.84 903.82 549.615 869.135 c 0,0,0
 509.39 834.45 509.39 834.45 496.35 771.72 c 1,0,0
 205.3 803.38 l 1,0,0
 235.01 946.39 235.01 946.39 355.83 1024.195 c 0,0,0
 476.65 1102 476.65 1102 675.64 1102 c 0,0,0
 878.02 1102 878.02 1102 967.39 1003.85 c 1,0,0
 1112.34 1102 1112.34 1102 1308.4 1102 c 0,0,0
 1522.02 1102 1522.02 1102 1637.335 993.345 c 0,0,0
 1752.65 884.69 1752.65 884.69 1752.65 685.39 c 0,0,0
 1752.65 636.06 1752.65 636.06 1747.145 584.535 c 0,0,0
 1741.64 533.01 1741.64 533.01 1728.32 467.09 c 1,0,0
 1039.54 467.09 l 1,0,0
1075.51 670.26 m 1,0,0
 1467.24 670.26 l 1,0,0
 1469.91 720.98 l 1,0,0
 1469.91 822.37 1469.91 822.37 1423.545 865.76 c 0,0,0
 1377.18 909.15 1377.18 909.15 1307.41 909.15 c 0,0,0
 1220.32 909.15 1220.32 909.15 1160.925 848.755 c 0,0,0
 1101.53 788.36 1101.53 788.36 1075.51 670.26 c 1,0,0
379.94 337.87 m 0,0,0
 379.94 267.52 379.94 267.52 410.48 231.495 c 0,0,0
 441.02 195.47 441.02 195.47 501.73 195.47 c 0,0,0
 559.84 195.47 559.84 195.47 612.92 243.13 c 0,0,0
 637.74 269.84 637.74 269.84 658.83 308.435 c 0,0,0
 679.92 347.03 679.92 347.03 695.92 399.78 c 2,0,0
 719.57 488.78 l 1,0,0
 573.42 490.1 l 2,0,0
 488.26 491.75 488.26 491.75 434.2 452.45 c 0,0,0
 379.94 410.09 379.94 410.09 379.94 337.87 c 0,0,0
EndSplineSet
EndChar

StartChar: eth
Encoding: 240 240 177
Width: 1287
GlyphClass: 2
Flags: HW
LayerCount: 2
Fore
SplineSet
672.88 1297.41 m 1,0,0
 542.3 1425.98 542.3 1425.98 441.97 1484 c 1,0,0
 773.58 1484 l 1,0,0
 808.92 1465 808.92 1465 843.265 1442.16 c 0,0,0
 877.61 1419.32 877.61 1419.32 909.63 1392.64 c 1,0,0
 1215.19 1503.95 l 1,0,0
 1178.9 1305.51 l 1,0,0
 1041.82 1255.8 l 1,0,0
 1129.56 1138.08 1129.56 1138.08 1170.25 1013.045 c 0,0,0
 1210.94 888.01 1210.94 888.01 1210.94 728 c 0,0,0
 1210.94 522.32 1210.94 522.32 1150.93 372.91 c 0,0,0
 1077.62 186.59 1077.62 186.59 918.55 82.47 c 0,0,0
 759.48 -21.65 759.48 -21.65 538.88 -21.65 c 0,0,0
 313.28 -21.65 313.28 -21.65 184.155 94.675 c 0,0,0
 55.03 211 55.03 211 55.03 412.31 c 0,0,0
 55.03 628.5 55.03 628.5 163.92 767.5 c 0,0,0
 240.89 865.93 240.89 865.93 370.36 922.465 c 0,0,0
 499.83 979 499.83 979 663.52 979 c 0,0,0
 718.58 979 718.58 979 783.765 964.13 c 0,0,0
 848.95 949.26 848.95 949.26 886.61 929.86 c 1,0,0
 871.6 985.67 871.6 985.67 845.055 1041.11 c 0,0,0
 818.51 1096.55 818.51 1096.55 775.14 1157.23 c 1,0,0
 496.82 1046.89 l 1,0,0
 533.78 1245.36 l 1,0,0
 672.88 1297.41 l 1,0,0
676.15 767.53 m 0,0,0
 590.4 767.53 590.4 767.53 518.72 715.52 c 0,0,0
 478.03 685.17 478.03 685.17 447.685 640.115 c 0,0,0
 417.34 595.06 417.34 595.06 401.335 535.18 c 0,0,0
 385.33 475.3 385.33 475.3 385.33 397.31 c 0,0,0
 385.33 304.55 385.33 304.55 437.69 247.185 c 0,0,0
 490.05 189.82 490.05 189.82 575.13 189.82 c 0,0,0
 631.44 189.82 631.44 189.82 699.16 221.09 c 0,0,0
 753.1 256.12 753.1 256.12 791.89 310.82 c 0,0,0
 830.68 365.52 830.68 365.52 850.825 438.015 c 0,0,0
 870.97 510.51 870.97 510.51 870.97 596.43 c 0,0,0
 870.97 661.07 870.97 661.07 842.96 701.76 c 0,0,0
 821.93 734.8 821.93 734.8 780.885 751.165 c 0,0,0
 739.84 767.53 739.84 767.53 676.15 767.53 c 0,0,0
EndSplineSet
EndChar

StartChar: divide
Encoding: 247 247 184
Width: 1124
GlyphClass: 2
Flags: HW
LayerCount: 2
Fore
SplineSet
712.21 1211.49 m 1,0,0
 712.21 961.99 l 1,0,0
 451.11 961.99 l 1,0,0
 451.11 1211.49 l 1,0,0
 712.21 1211.49 l 1,0,0
1102.27 805.87 m 1,0,0
 1102.27 556.13 l 1,0,0
 64.71 556.13 l 1,0,0
 64.71 805.87 l 1,0,0
 1102.27 805.87 l 1,0,0
712.21 402.01 m 1,0,0
 712.21 152.51 l 1,0,0
 451.11 152.51 l 1,0,0
 451.11 402.01 l 1,0,0
 712.21 402.01 l 1,0,0
EndSplineSet
EndChar

StartChar: oslash
Encoding: 248 248 185
Width: 1251
GlyphClass: 2
Flags: HW
LayerCount: 2
Fore
SplineSet
163.76 103.77 m 1,0,0
 42.54 220.75 42.54 220.75 42.54 419 c 0,0,0
 40.89 618.02 40.89 618.02 124.52 773.02 c 0,0,0
 207.82 927.03 207.82 927.03 361.745 1014.015 c 0,0,0
 515.67 1101 515.67 1101 705.32 1101 c 0,0,0
 863 1101 863 1101 980.3 1051.29 c 1,0,0
 1037 1116 l 1,0,0
 1233.26 1116 l 1,0,0
 1103.22 964.29 l 1,0,0
 1202.49 858.96 1202.49 858.96 1202.49 683 c 0,0,0
 1202.49 442.01 1202.49 442.01 1103.34 264.84 c 0,0,0
 1012.43 130.24 1012.43 130.24 859.465 54.295 c 0,0,0
 706.5 -21.65 706.5 -21.65 530.38 -21.65 c 0,0,0
 396.33 -21.65 396.33 -21.65 291 20.09 c 1,0,0
 240.26 -38 l 1,0,0
 41.34 -38 l 1,0,0
 163.76 103.77 l 1,0,0
373.84 435.95 m 0,0,0
 373.84 397.53 373.84 397.53 379.53 354.17 c 1,0,0
 806.48 848.17 l 1,0,0
 761.1 889.2 761.1 889.2 678.05 889.2 c 0,0,0
 572.31 889.2 572.31 889.2 508.6 832.17 c 0,0,0
 466.57 794.15 466.57 794.15 436.05 728.28 c 0,0,0
 405.53 662.41 405.53 662.41 389.685 585.2 c 0,0,0
 373.84 507.99 373.84 507.99 373.84 435.95 c 0,0,0
872.85 655.07 m 0,0,0
 872.85 680.5 872.85 680.5 872.15 696.26 c 1,0,0
 459.83 216.89 l 1,0,0
 504.54 189.82 504.54 189.82 567.98 189.82 c 0,0,0
 671.73 189.82 671.73 189.82 734.1 243.52 c 0,0,0
 795.14 296.22 795.14 296.22 830.33 404.455 c 0,0,0
 865.52 512.69 865.52 512.69 872.85 655.07 c 0,0,0
EndSplineSet
EndChar

StartChar: thorn
Encoding: 254 254 191
Width: 1287
GlyphClass: 2
Flags: HW
LayerCount: 2
Fore
SplineSet
697.64 -20 m 0,0,0
 571.98 -20 571.98 -20 493.815 32 c 0,0,0
 415.65 84 415.65 84 383.65 178 c 1,0,0
 382.64 178 l 1,0,0
 378.31 156.99 378.31 156.99 375.475 135.315 c 0,0,0
 372.64 113.64 372.64 113.64 368.64 91.63 c 0,0,0
 364.64 64.65 364.64 64.65 359.81 39.33 c 0,0,0
 354.98 14.01 354.98 14.01 349.65 -12.64 c 2,0,0
 268.98 -425 l 1,0,0
 -44.35 -425 l 1,0,0
 323.99 1484 l 1,0,0
 638.32 1484 l 1,0,0
 555.32 1055.68 l 2,0,0
 544.67 1002.09 544.67 1002.09 536.17 965.76 c 0,0,0
 527.67 929.43 527.67 929.43 521.32 910.36 c 1,0,0
 527.98 910.36 l 1,0,0
 599.65 1012.01 599.65 1012.01 682.645 1057.005 c 0,0,0
 765.64 1102 765.64 1102 883.31 1102 c 0,0,0
 1042.97 1102 1042.97 1102 1132.465 1007.5 c 0,0,0
 1221.96 913 1221.96 913 1221.96 748 c 0,0,0
 1221.96 547.99 1221.96 547.99 1159.63 355 c 0,0,0
 1097.3 162.34 1097.3 162.34 984.635 71.17 c 0,0,0
 871.97 -20 871.97 -20 697.64 -20 c 0,0,0
740.87 888.52 m 0,0,0
 611.05 888.52 611.05 888.52 535.66 782.38 c 0,0,0
 507.66 740.37 507.66 740.37 485.995 683.69 c 0,0,0
 464.33 627.01 464.33 627.01 450.33 550.04 c 0,0,0
 434.65 455.03 434.65 455.03 434.65 408.92 c 0,0,0
 434.65 307.86 434.65 307.86 484.185 250.33 c 0,0,0
 533.72 192.8 533.72 192.8 622.78 192.8 c 0,0,0
 718.85 192.8 718.85 192.8 772.23 252.84 c 0,0,0
 800.25 282.86 800.25 282.86 822.1 334.555 c 0,0,0
 843.95 386.25 843.95 386.25 859.295 447.785 c 0,0,0
 874.64 509.32 874.64 509.32 882.48 572.185 c 0,0,0
 890.32 635.05 890.32 635.05 890.32 686.74 c 0,0,0
 890.32 787.13 890.32 787.13 854.625 837.825 c 0,0,0
 818.93 888.52 818.93 888.52 740.87 888.52 c 0,0,0
EndSplineSet
EndChar

StartChar: dcroat
Encoding: 273 273 210
Width: 1287
GlyphClass: 2
Flags: HW
LayerCount: 2
Fore
SplineSet
389.03 -21 m 0,0,0
 236.02 -21 236.02 -21 145.195 78.155 c 0,0,0
 54.37 177.31 54.37 177.31 54.37 342.31 c 0,0,0
 54.37 517.71 54.37 517.71 117.7 689.76 c 0,0,0
 181.03 860.81 181.03 860.81 296.685 954.305 c 0,0,0
 412.34 1047.8 412.34 1047.8 565.39 1047.8 c 0,0,0
 693.71 1047.8 693.71 1047.8 774.535 1000.455 c 0,0,0
 855.36 953.11 855.36 953.11 883.37 860.44 c 1,0,0
 889.7 860.44 l 1,0,0
 889.72 876.17 889.72 876.17 895.725 922.825 c 0,0,0
 901.73 969.48 901.73 969.48 918.04 1047.72 c 2,0,0
 942.71 1164.77 l 1,0,0
 657.34 1164.77 l 1,0,0
 692.98 1347.64 l 1,0,0
 979.68 1347.64 l 1,0,0
 1007.35 1484 l 1,0,0
 1316.36 1484 l 1,0,0
 1290.02 1347.64 l 1,0,0
 1422.02 1347.64 l 1,0,0
 1386.38 1164.77 l 1,0,0
 1255.71 1164.77 l 1,0,0
 1081 233.64 l 2,0,0
 1072.32 182.26 1072.32 182.26 1066.145 123.6 c 0,0,0
 1059.97 64.94 1059.97 64.94 1054.97 0 c 1,0,0
 738 0 l 1,0,0
 738 66.96 738 66.96 751.02 160 c 1,0,0
 747.02 160 l 1,0,0
 676.68 67.66 676.68 67.66 593.685 23.33 c 0,0,0
 510.69 -21 510.69 -21 389.03 -21 c 0,0,0
535.46 189.82 m 0,0,0
 613.08 189.82 613.08 189.82 672.84 219.82 c 0,0,0
 723.13 257.86 723.13 257.86 758.6 328.37 c 0,0,0
 794.07 398.88 794.07 398.88 813.22 482.865 c 0,0,0
 832.37 566.85 832.37 566.85 832.37 640.16 c 0,0,0
 832.37 751.86 832.37 751.86 790.815 797.42 c 0,0,0
 749.26 842.98 749.26 842.98 661.53 842.98 c 0,0,0
 572.78 842.98 572.78 842.98 511.09 781.62 c 0,0,0
 470.74 740.27 470.74 740.27 443.22 673.205 c 0,0,0
 415.7 606.14 415.7 606.14 401.52 530.565 c 0,0,0
 387.34 454.99 387.34 454.99 387.34 387.61 c 0,0,0
 387.34 288.55 387.34 288.55 425.03 239.185 c 0,0,0
 462.72 189.82 462.72 189.82 535.46 189.82 c 0,0,0
EndSplineSet
EndChar

StartChar: Hbar
Encoding: 294 294 231
Width: 1479
GlyphClass: 2
Flags: HW
LayerCount: 2
Fore
SplineSet
470.77 587.83 m 1,0,0
 355.41 0 l 1,0,0
 27.42 0 l 1,0,0
 230.41 1051.6 l 1,0,0
 117.64 1051.6 l 1,0,0
 151.63 1226.88 l 1,0,0
 264.4 1226.88 l 1,0,0
 300.42 1409 l 1,0,0
 629.74 1409 l 1,0,0
 593.72 1226.88 l 1,0,0
 1173.19 1226.88 l 1,0,0
 1209.21 1409 l 1,0,0
 1525.55 1409 l 1,0,0
 1489.53 1226.88 l 1,0,0
 1602.63 1226.88 l 1,0,0
 1568.64 1051.6 l 1,0,0
 1455.54 1051.6 l 1,0,0
 1251.22 0 l 1,0,0
 934.88 0 l 1,0,0
 1050.24 587.83 l 1,0,0
 470.77 587.83 l 1,0,0
522.72 859.55 m 1,0,0
 1102.19 859.55 l 1,0,0
 1139.2 1051.6 l 1,0,0
 559.73 1051.6 l 1,0,0
 522.72 859.55 l 1,0,0
EndSplineSet
EndChar

StartChar: hbar
Encoding: 295 295 232
Width: 1287
GlyphClass: 2
Flags: HW
LayerCount: 2
Fore
SplineSet
511.99 857 m 1,0,0
 584.35 957.37 584.35 957.37 677.16 1009.185 c 0,0,0
 769.97 1061 769.97 1061 887.63 1061 c 0,0,0
 1040.95 1061 1040.95 1061 1118.775 988 c 0,0,0
 1196.6 915 1196.6 915 1196.6 777 c 0,0,0
 1196.6 754.31 1196.6 754.31 1188.94 695.355 c 0,0,0
 1181.28 636.4 1181.28 636.4 1175.6 613 c 2,0,0
 1056.6 0 l 1,0,0
 745.26 0 l 1,0,0
 852.62 538.5 l 2,0,0
 881.26 678.04 881.26 678.04 881.26 708.45 c 0,0,0
 881.26 824.91 881.26 824.91 738.17 824.91 c 0,0,0
 676.78 824.91 676.78 824.91 617.25 789.39 c 0,0,0
 557.72 753.87 557.72 753.87 515.865 694.985 c 0,0,0
 474.01 636.1 474.01 636.1 461.32 566 c 2,0,0
 351.32 0 l 1,0,0
 35.33 0 l 1,0,0
 258.69 1164.77 l 1,0,0
 119.71 1164.77 l 1,0,0
 155.35 1347.64 l 1,0,0
 294.33 1347.64 l 1,0,0
 320.67 1484 l 1,0,0
 633.67 1484 l 1,0,0
 607.33 1347.64 l 1,0,0
 924.29 1347.64 l 1,0,0
 888.65 1164.77 l 1,0,0
 570.36 1164.77 l 1,0,0
 556.99 1094.56 556.99 1094.56 542.14 1017.7 c 0,0,0
 527.29 940.84 527.29 940.84 508.99 857 c 1,0,0
 511.99 857 l 1,0,0
EndSplineSet
EndChar

StartChar: dotlessi
Encoding: 305 305 242
Width: 569
GlyphClass: 2
Flags: HW
LayerCount: 2
Fore
SplineSet
541.51 1082 m 1,0,0
 330.51 0 l 1,0,0
 17.18 0 l 1,0,0
 227.18 1082 l 1,0,0
 541.51 1082 l 1,0,0
EndSplineSet
EndChar

StartChar: jcircumflex
Encoding: 309 309 246
Width: 606
GlyphClass: 2
Flags: HW
LayerCount: 2
Fore
SplineSet
444.85 1376.65 m 1,0,0
 202.46 1177.06 l 1,0,0
 15.97 1177.06 l 1,0,0
 21.3 1207.7 l 1,0,0
 352.52 1541.54 l 1,0,0
 589.77 1541.54 l 1,0,0
 783.38 1207.7 l 1,0,0
 778.05 1177.06 l 1,0,0
 608.91 1177.06 l 1,0,0
 449.51 1376.65 l 1,0,0
 444.85 1376.65 l 1,0,0
-38.82 -425 m 0,0,0
 -150.34 -425 -150.34 -425 -217.03 -404.35 c 1,0,0
 -176.74 -199.19 l 1,0,0
 -166.7 -199.2 -166.7 -199.2 -153.515 -199.87 c 0,0,0
 -140.33 -200.54 -140.33 -200.54 -126.99 -201.87 c 0,0,0
 -57.35 -201.87 -57.35 -201.87 -25.355 -169.845 c 0,0,0
 6.64 -137.82 6.64 -137.82 24.97 -44.49 c 2,0,0
 245.33 1082 l 1,0,0
 559.66 1082 l 1,0,0
 323.99 -126.02 l 2,0,0
 295.65 -265.4 295.65 -265.4 202.375 -345.2 c 0,0,0
 109.1 -425 109.1 -425 -38.82 -425 c 0,0,0
EndSplineSet
EndChar

StartChar: kgreenlandic
Encoding: 312 312 249
Width: 1176
GlyphClass: 2
Flags: HW
LayerCount: 2
Fore
SplineSet
437.95 436.52 m 1,0,0
 348.66 0 l 1,0,0
 35.33 0 l 1,0,0
 245.33 1082 l 1,0,0
 559.66 1082 l 1,0,0
 475.95 656.11 l 1,0,0
 617.44 795.57 l 1,0,0
 906.62 1082 l 1,0,0
 1261.62 1082 l 1,0,0
 807.43 674.19 l 1,0,0
 1062.3 0 l 1,0,0
 730.31 0 l 1,0,0
 568.71 495.35 l 1,0,0
 437.95 436.52 l 1,0,0
EndSplineSet
EndChar

StartChar: Lslash
Encoding: 321 321 258
Width: 1287
GlyphClass: 2
Flags: HW
LayerCount: 2
Fore
SplineSet
405.69 251.76 m 1,0,0
 1176.21 251.76 l 1,0,0
 1126.59 0 l 1,0,0
 28.08 0 l 1,0,0
 117.12 463.52 l 1,0,0
 -25.93 406.45 l 1,0,0
 23.02 653.56 l 1,0,0
 165.41 711.96 l 1,0,0
 300.75 1409 l 1,0,0
 630.07 1409 l 1,0,0
 523.71 861.86 l 1,0,0
 869.61 1011.19 l 1,0,0
 822.65 766.41 l 1,0,0
 476.75 617.41 l 1,0,0
 405.69 251.76 l 1,0,0
EndSplineSet
EndChar

StartChar: lslash
Encoding: 322 322 259
Width: 606
GlyphClass: 2
Flags: HW
LayerCount: 2
Fore
SplineSet
493.94 740.43 m 1,0,0
 349.32 0 l 1,0,0
 35.99 0 l 1,0,0
 144.98 567.27 l 1,0,0
 7.32 497.94 l 1,0,0
 51.62 731.75 l 1,0,0
 190.94 801.08 l 1,0,0
 323.99 1484 l 1,0,0
 638.32 1484 l 1,0,0
 538.24 974.24 l 1,0,0
 684.22 1048.9 l 1,0,0
 638.59 818.08 l 1,0,0
 493.94 740.43 l 1,0,0
EndSplineSet
EndChar

StartChar: Eng
Encoding: 330 330 267
Width: 1481
GlyphClass: 2
Flags: HW
LayerCount: 2
Fore
SplineSet
863.08 -425 m 0,0,0
 751.56 -425 751.56 -425 684.87 -404.35 c 1,0,0
 725.16 -199.19 l 1,0,0
 740.52 -199.2 740.52 -199.2 758.36 -199.87 c 0,0,0
 776.2 -200.54 776.2 -200.54 794.86 -201.87 c 0,0,0
 839.23 -201.87 839.23 -201.87 866.07 -194.45 c 0,0,0
 892.91 -187.03 892.91 -187.03 911.24 -169.51 c 0,0,0
 920.23 -154.48 920.23 -154.48 931.715 -112.02 c 0,0,0
 943.2 -69.56 943.2 -69.56 954.85 0 c 1,0,0
 528.82 1104.27 l 1,0,0
 517.82 1022.61 517.82 1022.61 507.495 958.485 c 0,0,0
 497.17 894.36 497.17 894.36 487.52 849.43 c 2,0,0
 320.45 0 l 1,0,0
 28.09 0 l 1,0,0
 302.42 1409 l 1,0,0
 698.29 1409 l 1,0,0
 1050.43 464.79 l 1,0,0
 1069.73 557.66 l 0,0,0
 1079.05 601.95 1079.05 601.95 1086.05 641.95 c 2,0,0
 1234.52 1409 l 1,0,0
 1526.22 1409 l 1,0,0
 1225.89 -126.02 l 2,0,0
 1197.55 -265.4 1197.55 -265.4 1104.275 -345.2 c 0,0,0
 1011 -425 1011 -425 863.08 -425 c 0,0,0
EndSplineSet
EndChar

StartChar: eng
Encoding: 331 331 268
Width: 1287
GlyphClass: 2
Flags: HW
LayerCount: 2
Fore
SplineSet
670.45 -425 m 0,0,0
 558.93 -425 558.93 -425 492.24 -404.35 c 1,0,0
 532.53 -199.19 l 1,0,0
 542.57 -199.2 542.57 -199.2 555.755 -199.87 c 0,0,0
 568.94 -200.54 568.94 -200.54 582.28 -201.87 c 0,0,0
 651.92 -201.87 651.92 -201.87 683.915 -168.515 c 0,0,0
 715.91 -135.16 715.91 -135.16 734.24 -44.49 c 2,0,0
 860.29 578.5 l 2,0,0
 888.93 718.04 888.93 718.04 888.93 748.45 c 0,0,0
 888.93 864.91 888.93 864.91 745.84 864.91 c 0,0,0
 684.45 864.91 684.45 864.91 624.92 829.39 c 0,0,0
 565.39 793.87 565.39 793.87 523.535 734.985 c 0,0,0
 481.68 676.1 481.68 676.1 468.99 606 c 2,0,0
 350.99 0 l 1,0,0
 35.33 0 l 1,0,0
 201.33 851 l 2,0,0
 208.67 888.69 208.67 888.69 218.17 946.025 c 0,0,0
 227.67 1003.36 227.67 1003.36 239 1082 c 1,0,0
 539.34 1082 l 1,0,0
 539.34 1068.35 539.34 1068.35 535.005 1028.53 c 0,0,0
 530.67 988.71 530.67 988.71 525.5 949.54 c 0,0,0
 520.33 910.37 520.33 910.37 516.66 897 c 1,0,0
 519.66 897 l 1,0,0
 592.02 997.37 592.02 997.37 684.83 1049.185 c 0,0,0
 777.64 1101 777.64 1101 895.3 1101 c 0,0,0
 1048.62 1101 1048.62 1101 1126.445 1028 c 0,0,0
 1204.27 955 1204.27 955 1204.27 817 c 0,0,0
 1204.27 794.31 1204.27 794.31 1196.61 735.355 c 0,0,0
 1188.95 676.4 1188.95 676.4 1183.27 653 c 2,0,0
 1033.26 -126.02 l 2,0,0
 1010.24 -257.42 1010.24 -257.42 916.965 -341.21 c 0,0,0
 823.69 -425 823.69 -425 670.45 -425 c 0,0,0
EndSplineSet
EndChar

StartChar: OE
Encoding: 338 338 275
Width: 2048
GlyphClass: 2
Flags: HW
LayerCount: 2
Fore
SplineSet
924.92 0 m 1,0,0
 869.21 -10 869.21 -10 707.32 -10 c 0,0,0
 516.66 -10 516.66 -10 381.495 57.84 c 0,0,0
 246.33 125.68 246.33 125.68 174.995 256.015 c 0,0,0
 103.66 386.35 103.66 386.35 103.66 573 c 0,0,0
 103.66 758.51 103.66 758.51 172.555 932.185 c 0,0,0
 241.45 1105.86 241.45 1105.86 376.91 1230.79 c 0,0,0
 493.22 1325.04 493.22 1325.04 641.65 1372.52 c 0,0,0
 790.08 1420 790.08 1420 956.92 1420 c 0,0,0
 995.6 1420 995.6 1420 1025.81 1418.5 c 0,0,0
 1056.02 1417 1056.02 1417 1077.43 1415.33 c 2,0,0
 1135.48 1409 l 1,0,0
 2109.56 1409 l 1,0,0
 2060.94 1158.57 l 1,0,0
 1408.13 1158.57 l 1,0,0
 1345.4 835.58 l 1,0,0
 1936.88 835.58 l 1,0,0
 1889.59 592.47 l 1,0,0
 1298.11 592.47 l 1,0,0
 1232.37 255.75 l 1,0,0
 1926.18 255.75 l 1,0,0
 1876.23 0 l 1,0,0
 924.92 0 l 1,0,0
743.92 247.41 m 0,0,0
 790.3 247.41 790.3 247.41 830.83 253.07 c 0,0,0
 871.36 258.73 871.36 258.73 904.38 270.38 c 1,0,0
 1073.49 1140.62 l 1,0,0
 1046.12 1152.27 1046.12 1152.27 999.265 1157.265 c 0,0,0
 952.41 1162.26 952.41 1162.26 946.92 1162.26 c 0,0,0
 673.12 1162.26 673.12 1162.26 535.78 967.2 c 0,0,0
 505.29 911.53 505.29 911.53 483.35 844.29 c 0,0,0
 461.41 777.05 461.41 777.05 450.52 705.43 c 0,0,0
 439.63 633.81 439.63 633.81 439.63 563 c 0,0,0
 439.63 411.87 439.63 411.87 517.875 329.64 c 0,0,0
 596.12 247.41 596.12 247.41 743.92 247.41 c 0,0,0
EndSplineSet
EndChar

StartChar: oe
Encoding: 339 339 276
Width: 1933
GlyphClass: 2
Flags: HW
LayerCount: 2
Fore
SplineSet
1198.64 467.09 m 1,0,0
 1192.96 438.03 1192.96 438.03 1192.96 386.01 c 0,0,0
 1192.96 288.92 1192.96 288.92 1232.86 237.205 c 0,0,0
 1272.76 185.49 1272.76 185.49 1349.57 185.49 c 0,0,0
 1416.31 185.49 1416.31 185.49 1461.225 225.84 c 0,0,0
 1506.14 266.19 1506.14 266.19 1535.18 351.19 c 1,0,0
 1815.49 273.56 l 1,0,0
 1740.16 105.98 1740.16 105.98 1629.49 42.99 c 0,0,0
 1518.82 -20 1518.82 -20 1331.23 -20 c 0,0,0
 1091.16 -20 1091.16 -20 967.54 118.47 c 1,0,0
 901.19 49.74 901.19 49.74 790.7 14.045 c 0,0,0
 680.21 -21.65 680.21 -21.65 542.87 -21.65 c 0,0,0
 318.6 -21.65 318.6 -21.65 186.485 96.345 c 0,0,0
 54.37 214.34 54.37 214.34 54.37 419 c 1,0,0
 52.72 619.01 52.72 619.01 136.35 773.35 c 0,0,0
 219.98 927.36 219.98 927.36 373.905 1014.18 c 0,0,0
 527.83 1101 527.83 1101 717.81 1101 c 0,0,0
 837.86 1101 837.86 1101 921.89 1072.285 c 0,0,0
 1005.92 1043.57 1005.92 1043.57 1082.52 976.83 c 1,0,0
 1158.52 1040.57 1158.52 1040.57 1252.21 1071.285 c 0,0,0
 1345.9 1102 1345.9 1102 1458.92 1102 c 0,0,0
 1669.57 1102 1669.57 1102 1783.235 993.015 c 0,0,0
 1896.9 884.03 1896.9 884.03 1896.9 685.39 c 0,0,0
 1896.9 588.04 1896.9 588.04 1872.9 467.09 c 1,0,0
 1198.64 467.09 l 1,0,0
885.34 655.07 m 1,0,0
 885.34 889.2 885.34 889.2 690.54 889.2 c 0,0,0
 585.13 889.2 585.13 889.2 521.09 832.5 c 0,0,0
 479.06 794.81 479.06 794.81 448.375 729.105 c 0,0,0
 417.69 663.4 417.69 663.4 401.68 585.86 c 0,0,0
 385.67 508.32 385.67 508.32 385.67 435.95 c 0,0,0
 385.67 320.2 385.67 320.2 434.37 255.01 c 0,0,0
 483.07 189.82 483.07 189.82 581.8 189.82 c 0,0,0
 688.21 189.82 688.21 189.82 749.25 246.18 c 0,0,0
 810.29 302.87 810.29 302.87 844.815 413.1 c 0,0,0
 879.34 523.33 879.34 523.33 885.34 655.07 c 1,0,0
1235.27 670.26 m 1,0,0
 1611.49 670.26 l 1,0,0
 1614.16 720.98 l 1,0,0
 1614.16 822.37 1614.16 822.37 1568.95 865.76 c 0,0,0
 1523.74 909.15 1523.74 909.15 1457.6 909.15 c 0,0,0
 1374.14 909.15 1374.14 909.15 1317.22 848.92 c 0,0,0
 1260.3 788.69 1260.3 788.69 1235.27 670.26 c 1,0,0
EndSplineSet
EndChar

StartChar: Tbar
Encoding: 358 358 295
Width: 1251
GlyphClass: 2
Flags: HW
LayerCount: 2
Fore
SplineSet
802.51 619.07 m 1,0,0
 681.5 0 l 1,0,0
 351.85 0 l 1,0,0
 472.86 619.07 l 1,0,0
 263.02 619.07 l 1,0,0
 302.33 820.95 l 1,0,0
 512.17 820.95 l 1,0,0
 577.56 1157.24 l 1,0,0
 132.13 1157.24 l 1,0,0
 180.75 1409 l 1,0,0
 1402.59 1409 l 1,0,0
 1353.97 1157.24 l 1,0,0
 907.21 1157.24 l 1,0,0
 841.82 820.95 l 1,0,0
 1052.33 820.95 l 1,0,0
 1013.02 619.07 l 1,0,0
 802.51 619.07 l 1,0,0
EndSplineSet
EndChar

StartChar: tbar
Encoding: 359 359 296
Width: 719
GlyphClass: 2
Flags: HW
LayerCount: 2
Fore
SplineSet
436.6 286.81 m 0,0,0
 436.6 240.15 436.6 240.15 460.43 217.485 c 0,0,0
 484.26 194.82 484.26 194.82 522.61 194.82 c 0,0,0
 554.96 194.82 554.96 194.82 633.25 207.49 c 1,0,0
 596.96 9.32 l 1,0,0
 521.9 -14.68 521.9 -14.68 409.33 -14.68 c 0,0,0
 272.46 -14.68 272.46 -14.68 198.025 46.295 c 0,0,0
 123.59 107.27 123.59 107.27 123.59 223.19 c 0,0,0
 123.59 303.46 123.59 303.46 139.92 389.1 c 2,0,0
 152.66 458.81 l 1,0,0
 26.33 458.81 l 1,0,0
 65.96 668.28 l 1,0,0
 193.62 668.28 l 1,0,0
 234 872.53 l 1,0,0
 78.41 872.53 l 1,0,0
 119.04 1082 l 1,0,0
 292.59 1082 l 1,0,0
 440.15 1339.96 l 1,0,0
 634.63 1339.96 l 1,0,0
 586.3 1082 l 1,0,0
 788.96 1082 l 1,0,0
 750.99 872.53 l 1,0,0
 544.34 872.53 l 1,0,0
 503.96 668.28 l 1,0,0
 684.01 668.28 l 1,0,0
 643.05 458.81 l 1,0,0
 463.33 458.81 l 1,0,0
 447.27 373.83 l 2,0,0
 436.6 316.49 436.6 316.49 436.6 286.81 c 0,0,0
EndSplineSet
EndChar

StartChar: longs
Encoding: 383 383 320
Width: 606
GlyphClass: 2
Flags: HW
LayerCount: 2
Fore
SplineSet
35.66 0 m 1,0,0
 268.33 1192.03 l 2,0,0
 298.66 1346.7 298.66 1346.7 400.585 1415.35 c 0,0,0
 502.51 1484 502.51 1484 687.71 1484 c 0,0,0
 757.71 1484 757.71 1484 854.92 1465.35 c 1,0,0
 814.96 1269.83 l 1,0,0
 807.59 1271.17 807.59 1271.17 771.96 1275.83 c 0,0,0
 736.33 1280.49 736.33 1280.49 715 1280.49 c 0,0,0
 642.75 1280.49 642.75 1280.49 608.77 1243.88 c 0,0,0
 597.72 1228.21 597.72 1228.21 588.705 1207.34 c 0,0,0
 579.69 1186.47 579.69 1186.47 574.67 1163.04 c 2,0,0
 348.66 0 l 1,0,0
 35.66 0 l 1,0,0
EndSplineSet
EndChar

StartChar: uni0180
Encoding: 384 384 321
Width: 1287
GlyphClass: 2
Flags: HW
LayerCount: 2
Fore
SplineSet
159.02 1347.64 m 1,0,0
 305.97 1347.64 l 1,0,0
 332.31 1484 l 1,0,0
 646.64 1484 l 1,0,0
 620.3 1347.64 l 1,0,0
 842.84 1347.64 l 1,0,0
 813.85 1164.77 l 1,0,0
 584.99 1164.77 l 1,0,0
 553 1006.47 l 2,0,0
 543.34 962.17 543.34 962.17 536.005 924.675 c 0,0,0
 528.67 887.18 528.67 887.18 521.66 857.16 c 1,0,0
 525.66 857.16 l 1,0,0
 585.36 950.83 585.36 950.83 680.99 999.815 c 0,0,0
 776.62 1048.8 776.62 1048.8 882.32 1048.8 c 0,0,0
 1041.98 1048.8 1041.98 1048.8 1131.475 954.3 c 0,0,0
 1220.97 859.8 1220.97 859.8 1220.97 694.8 c 0,0,0
 1220.97 469.52 1220.97 469.52 1157.31 305.79 c 0,0,0
 1092.32 143.72 1092.32 143.72 976.995 61.86 c 0,0,0
 861.67 -20 861.67 -20 705.96 -20 c 0,0,0
 580.3 -20 580.3 -20 501.97 32 c 0,0,0
 423.64 84 423.64 84 391.64 178 c 1,0,0
 389.97 178 l 1,0,0
 377.33 121.11 377.33 121.11 361.01 67.3 c 0,0,0
 344.69 13.49 344.69 13.49 340.32 0 c 1,0,0
 36.98 0 l 1,0,0
 40.98 13 40.98 13 53.48 68.5 c 0,0,0
 65.98 124 65.98 124 85.98 223 c 2,0,0
 269 1164.77 l 1,0,0
 123.38 1164.77 l 1,0,0
 159.02 1347.64 l 1,0,0
739.88 835.32 m 0,0,0
 647.53 835.32 647.53 835.32 600.305 809.45 c 0,0,0
 553.08 783.58 553.08 783.58 518.71 726.52 c 0,0,0
 494.69 688.48 494.69 688.48 478.005 632.1 c 0,0,0
 461.32 575.72 461.32 575.72 452.145 516.175 c 0,0,0
 442.97 456.63 442.97 456.63 442.97 408.92 c 0,0,0
 442.97 307.86 442.97 307.86 492.505 250.33 c 0,0,0
 542.04 192.8 542.04 192.8 631.1 192.8 c 0,0,0
 735.48 192.8 735.48 192.8 806.81 285.75 c 0,0,0
 836.19 324.44 836.19 324.44 855.23 371.72 c 0,0,0
 874.27 419 874.27 419 883.795 482.605 c 0,0,0
 893.32 546.21 893.32 546.21 893.32 633.54 c 0,0,0
 893.32 740.58 893.32 740.58 854.3 787.95 c 0,0,0
 815.28 835.32 815.28 835.32 739.88 835.32 c 0,0,0
EndSplineSet
EndChar

StartChar: uni0181
Encoding: 385 385 322
Width: 1674
GlyphClass: 2
Flags: HW
LayerCount: 2
Fore
SplineSet
1640.34 428.36 m 0,0,0
 1640.34 218.02 1640.34 218.02 1483.675 109.01 c 0,0,0
 1327.01 0 1327.01 0 1000.8 0 c 2,0,0
 259.5 0 l 1,0,0
 487.21 1173.22 l 1,0,0
 465.89 1173.22 l 2,0,0
 401.15 1173.22 401.15 1173.22 365.955 1139.51 c 0,0,0
 330.76 1105.8 330.76 1105.8 330.76 1041.73 c 0,0,0
 330.43 1020.75 330.43 1020.75 334.09 992.79 c 0,0,0
 337.75 964.83 337.75 964.83 345.4 929.22 c 1,0,0
 94.99 912.22 l 1,0,0
 93.65 932.87 93.65 932.87 92.315 956.515 c 0,0,0
 90.98 980.16 90.98 980.16 90.98 1008.79 c 0,0,0
 90.98 1217.36 90.98 1217.36 186.8 1313.18 c 0,0,0
 282.62 1409 282.62 1409 489.2 1409 c 2,0,0
 1142.25 1409 l 2,0,0
 1407.11 1409 1407.11 1409 1538.915 1327.82 c 0,0,0
 1670.72 1246.64 1670.72 1246.64 1670.72 1081.68 c 0,0,0
 1670.72 805.99 1670.72 805.99 1351.67 736.35 c 1,0,0
 1487.01 713.35 1487.01 713.35 1563.675 630.52 c 0,0,0
 1640.34 547.69 1640.34 547.69 1640.34 428.36 c 0,0,0
753.8 851.23 m 1,0,0
 1035.59 851.23 l 2,0,0
 1209.6 851.23 1209.6 851.23 1278.15 891.125 c 0,0,0
 1346.7 931.02 1346.7 931.02 1346.7 1028.1 c 0,0,0
 1346.7 1103.48 1346.7 1103.48 1293 1135.85 c 0,0,0
 1239.3 1168.22 1239.3 1168.22 1105.3 1168.22 c 2,0,0
 814.2 1168.22 l 1,0,0
 753.8 851.23 l 1,0,0
635.11 240.78 m 1,0,0
 949.91 240.78 l 2,0,0
 1158.58 240.78 1158.58 240.78 1234.135 283.69 c 0,0,0
 1309.69 326.6 1309.69 326.6 1309.69 435.35 c 0,0,0
 1309.69 519.74 1309.69 519.74 1245.485 565.1 c 0,0,0
 1181.28 610.46 1181.28 610.46 1025.63 610.46 c 2,0,0
 707.51 610.46 l 1,0,0
 635.11 240.78 l 1,0,0
EndSplineSet
EndChar

StartChar: uni0182
Encoding: 386 386 323
Width: 1488
GlyphClass: 2
Flags: HW
LayerCount: 2
Fore
SplineSet
300.09 1409 m 1,0,0
 1402.98 1409 l 1,0,0
 1354.36 1158.57 l 1,0,0
 580.79 1158.57 l 1,0,0
 522.39 859.55 l 1,0,0
 912.89 859.55 l 2,0,0
 1146.21 859.55 1146.21 859.55 1283.02 754.235 c 0,0,0
 1419.83 648.92 1419.83 648.92 1419.83 470.25 c 0,0,0
 1419.83 244.63 1419.83 244.63 1253.045 122.315 c 0,0,0
 1086.26 0 1086.26 0 786.03 0 c 2,0,0
 27.42 0 l 1,0,0
 300.09 1409 l 1,0,0
405.69 256.07 m 1,0,0
 802.3 256.07 l 2,0,0
 934.1 256.07 934.1 256.07 1006.815 306.45 c 0,0,0
 1079.53 356.83 1079.53 356.83 1079.53 445.62 c 0,0,0
 1079.53 526.7 1079.53 526.7 1021.985 567.25 c 0,0,0
 964.44 607.8 964.44 607.8 830.74 607.8 c 2,0,0
 473.77 607.8 l 1,0,0
 405.69 256.07 l 1,0,0
EndSplineSet
EndChar

StartChar: uni0183
Encoding: 387 387 324
Width: 1287
GlyphClass: 2
Flags: HW
LayerCount: 2
Fore
SplineSet
891.63 1102 m 0,0,0
 1051.29 1102 1051.29 1102 1140.785 1007.5 c 0,0,0
 1230.28 913 1230.28 913 1230.28 748 c 0,0,0
 1230.28 547.99 1230.28 547.99 1167.95 355 c 0,0,0
 1105.62 162.34 1105.62 162.34 992.955 71.17 c 0,0,0
 880.29 -20 880.29 -20 705.96 -20 c 0,0,0
 580.3 -20 580.3 -20 502.635 32 c 0,0,0
 424.97 84 424.97 84 392.97 178 c 1,0,0
 389.97 178 l 1,0,0
 377.33 121.11 377.33 121.11 361.01 67.3 c 0,0,0
 344.69 13.49 344.69 13.49 340.32 0 c 1,0,0
 36.98 0 l 1,0,0
 39.65 6.35 39.65 6.35 43.505 23.945 c 0,0,0
 47.36 41.54 47.36 41.54 54.06 70.05 c 2,0,0
 332.31 1484 l 1,0,0
 1125.52 1484 l 1,0,0
 1087.87 1253.18 l 1,0,0
 601.01 1253.18 l 1,0,0
 594.32 1220.06 594.32 1220.06 587.805 1189.475 c 0,0,0
 581.29 1158.89 581.29 1158.89 574.95 1127.85 c 0,0,0
 556.97 1042.61 556.97 1042.61 545.975 988.155 c 0,0,0
 534.98 933.7 534.98 933.7 530.97 910.36 c 1,0,0
 534.97 910.36 l 1,0,0
 594.67 1004.03 594.67 1004.03 690.3 1053.015 c 0,0,0
 785.93 1102 785.93 1102 891.63 1102 c 0,0,0
749.19 888.52 m 0,0,0
 603.41 888.52 603.41 888.52 526.69 754.45 c 0,0,0
 501.34 708.43 501.34 708.43 482.66 646.065 c 0,0,0
 463.98 583.7 463.98 583.7 453.475 520.83 c 0,0,0
 442.97 457.96 442.97 457.96 442.97 408.92 c 0,0,0
 442.97 307.86 442.97 307.86 492.505 250.33 c 0,0,0
 542.04 192.8 542.04 192.8 631.1 192.8 c 0,0,0
 724.84 192.8 724.84 192.8 777.55 252.5 c 0,0,0
 804.24 281.85 804.24 281.85 826.755 336.37 c 0,0,0
 849.27 390.89 849.27 390.89 866.28 455.75 c 0,0,0
 883.29 520.61 883.29 520.61 892.96 582.315 c 0,0,0
 902.63 644.02 902.63 644.02 902.63 686.74 c 0,0,0
 902.63 785.8 902.63 785.8 870.925 837.16 c 0,0,0
 839.22 888.52 839.22 888.52 749.19 888.52 c 0,0,0
EndSplineSet
EndChar

StartChar: uni0184
Encoding: 388 388 325
Width: 1488
GlyphClass: 2
Flags: HW
LayerCount: 2
Fore
SplineSet
522.72 859.55 m 1,0,0
 916.85 859.55 l 2,0,0
 1150.17 859.55 1150.17 859.55 1286.98 754.235 c 0,0,0
 1423.79 648.92 1423.79 648.92 1423.79 470.25 c 0,0,0
 1423.79 244.63 1423.79 244.63 1257.005 122.315 c 0,0,0
 1090.22 0 1090.22 0 789.99 0 c 2,0,0
 27.75 0 l 1,0,0
 220.76 1000.36 l 1,0,0
 105.4 1215.9 l 1,0,0
 111.4 1252.89 l 1,0,0
 548.47 1409 l 1,0,0
 629.74 1409 l 1,0,0
 522.72 859.55 l 1,0,0
406.02 256.07 m 1,0,0
 806.26 256.07 l 2,0,0
 938.06 256.07 938.06 256.07 1010.775 306.45 c 0,0,0
 1083.49 356.83 1083.49 356.83 1083.49 445.62 c 0,0,0
 1083.49 526.7 1083.49 526.7 1025.945 567.25 c 0,0,0
 968.4 607.8 968.4 607.8 834.7 607.8 c 2,0,0
 474.1 607.8 l 1,0,0
 406.02 256.07 l 1,0,0
EndSplineSet
EndChar

StartChar: uni0185
Encoding: 389 389 326
Width: 1287
GlyphClass: 2
Flags: HW
LayerCount: 2
Fore
SplineSet
891.63 1102 m 0,0,0
 1047.67 1102 1047.67 1102 1138.66 1011.28 c 0,0,0
 1230.28 914.96 1230.28 914.96 1230.28 748 c 0,0,0
 1230.28 689.34 1230.28 689.34 1225.115 630.515 c 0,0,0
 1219.95 571.69 1219.95 571.69 1208.62 512.37 c 0,0,0
 1179.96 373.34 1179.96 373.34 1141.24 280.42 c 0,0,0
 1102.52 187.5 1102.52 187.5 1050.09 122.5 c 0,0,0
 983.79 48.59 983.79 48.59 898.34 14.295 c 0,0,0
 812.89 -20 812.89 -20 705.96 -20 c 0,0,0
 580.3 -20 580.3 -20 501.97 32 c 0,0,0
 423.64 84 423.64 84 391.64 178 c 1,0,0
 389.97 178 l 1,0,0
 377.33 121.11 377.33 121.11 361.01 67.3 c 0,0,0
 344.69 13.49 344.69 13.49 340.32 0 c 1,0,0
 36.98 0 l 1,0,0
 42.64 15.65 42.64 15.65 51.3 56.45 c 0,0,0
 59.96 97.25 59.96 97.25 69.795 144.415 c 0,0,0
 79.63 191.58 79.63 191.58 85.98 223 c 2,0,0
 256.97 1100.63 l 1,0,0
 138.7 1297.92 l 1,0,0
 143.04 1333.58 l 1,0,0
 567.71 1484 l 1,0,0
 646.64 1484 l 1,0,0
 632.98 1416.69 632.98 1416.69 622.31 1362.18 c 0,0,0
 611.64 1307.67 611.64 1307.67 603.3 1264.63 c 0,0,0
 581 1155.12 581 1155.12 567.51 1087.005 c 0,0,0
 554.02 1018.89 554.02 1018.89 546.35 983.86 c 0,0,0
 543.34 971.48 543.34 971.48 536.005 936.645 c 0,0,0
 528.67 901.81 528.67 901.81 530.97 910.36 c 1,0,0
 534.97 910.36 l 1,0,0
 588.02 993.39 588.02 993.39 681.655 1047.695 c 0,0,0
 775.29 1102 775.29 1102 891.63 1102 c 0,0,0
749.19 888.52 m 0,0,0
 711.37 888.52 711.37 888.52 671.46 879.94 c 0,0,0
 631.55 871.36 631.55 871.36 594.52 844.89 c 0,0,0
 550.89 807.86 550.89 807.86 516.255 738.7 c 0,0,0
 481.62 669.54 481.62 669.54 459.64 554.99 c 0,0,0
 442.97 464.65 442.97 464.65 442.97 408.92 c 0,0,0
 442.97 306.53 442.97 306.53 493.17 249.665 c 0,0,0
 543.37 192.8 543.37 192.8 631.1 192.8 c 0,0,0
 678.8 192.8 678.8 192.8 716.66 207.475 c 0,0,0
 754.52 222.15 754.52 222.15 786.86 261.81 c 0,0,0
 814.9 297.5 814.9 297.5 837.595 357.73 c 0,0,0
 860.29 417.96 860.29 417.96 881.62 522.6 c 0,0,0
 902.63 616 902.63 616 902.63 686.74 c 0,0,0
 902.63 785.8 902.63 785.8 870.925 837.16 c 0,0,0
 839.22 888.52 839.22 888.52 749.19 888.52 c 0,0,0
EndSplineSet
EndChar

StartChar: uni0186
Encoding: 390 390 327
Width: 1479
GlyphClass: 2
Flags: HW
LayerCount: 2
Fore
SplineSet
103.18 1011.82 m 1,0,0
 229.18 1230.41 229.18 1230.41 406.47 1330.205 c 0,0,0
 583.76 1430 583.76 1430 825.02 1430 c 0,0,0
 1020.32 1430 1020.32 1430 1161.3 1361.99 c 0,0,0
 1303.28 1292.98 1303.28 1292.98 1378.265 1168.29 c 0,0,0
 1453.25 1043.6 1453.25 1043.6 1453.25 880.9 c 0,0,0
 1453.25 615.95 1453.25 615.95 1350.91 411.96 c 0,0,0
 1248.57 204.98 1248.57 204.98 1056.75 92.49 c 0,0,0
 864.93 -20 864.93 -20 604.34 -20 c 0,0,0
 368.72 -20 368.72 -20 217.89 87.79 c 0,0,0
 67.06 195.58 67.06 195.58 35.02 387.51 c 1,0,0
 340.04 463.79 l 1,0,0
 353.43 361.1 353.43 361.1 439.64 299.09 c 0,0,0
 525.85 237.08 525.85 237.08 652.91 237.08 c 0,0,0
 795.68 237.08 795.68 237.08 898.44 316.77 c 0,0,0
 1002.53 395.13 1002.53 395.13 1056.915 538.505 c 0,0,0
 1111.3 681.88 1111.3 681.88 1111.3 865.28 c 0,0,0
 1111.3 1013.41 1111.3 1013.41 1020.255 1093 c 0,0,0
 929.21 1172.59 929.21 1172.59 769.46 1172.59 c 0,0,0
 642.74 1172.59 642.74 1172.59 544.665 1107.735 c 0,0,0
 446.59 1042.88 446.59 1042.88 372.53 912.18 c 1,0,0
 103.18 1011.82 l 1,0,0
EndSplineSet
EndChar

StartChar: uni0187
Encoding: 391 391 328
Width: 1479
GlyphClass: 2
Flags: HW
LayerCount: 2
Fore
SplineSet
1381.94 357.28 m 1,0,0
 1285.2 171.94 1285.2 171.94 1114.56 75.97 c 0,0,0
 943.92 -20 943.92 -20 714.63 -20 c 0,0,0
 519 -20 519 -20 379.35 51.67 c 0,0,0
 239.7 123.67 239.7 123.67 167.705 257.67 c 0,0,0
 95.71 391.67 95.71 391.67 95.71 569 c 0,0,0
 95.71 822.98 95.71 822.98 200.71 1021.98 c 0,0,0
 305.71 1219.65 305.71 1219.65 494.87 1324.825 c 0,0,0
 684.03 1430 684.03 1430 927.33 1430 c 0,0,0
 1131.86 1430 1131.86 1430 1272.9 1355.15 c 1,0,0
 1290.21 1448.68 l 2,0,0
 1317.22 1590.03 1317.22 1590.03 1419 1663.53 c 0,0,0
 1520.78 1737.03 1520.78 1737.03 1677.7 1737.03 c 0,0,0
 1753.67 1737.03 1753.67 1737.03 1836.6 1721.35 c 1,0,0
 1792.97 1499.86 l 1,0,0
 1734.67 1509.88 1734.67 1509.88 1708.3 1509.88 c 0,0,0
 1661.58 1509.88 1661.58 1509.88 1627.23 1484.17 c 0,0,0
 1592.88 1458.46 1592.88 1458.46 1577.21 1381.09 c 2,0,0
 1507.29 1022.49 l 1,0,0
 1202.27 946.21 l 1,0,0
 1175.91 1051.56 1175.91 1051.56 1100.175 1112.24 c 0,0,0
 1024.44 1172.92 1024.44 1172.92 918.66 1172.92 c 0,0,0
 778.88 1172.92 778.88 1172.92 675.79 1111.52 c 0,0,0
 561.06 1044.8 561.06 1044.8 497.365 907.74 c 0,0,0
 433.67 770.68 433.67 770.68 433.67 575.31 c 0,0,0
 433.67 411.22 433.67 411.22 511.415 323.65 c 0,0,0
 589.16 236.08 589.16 236.08 736.94 236.08 c 0,0,0
 864.99 236.08 864.99 236.08 961.735 297.61 c 0,0,0
 1058.48 359.14 1058.48 359.14 1127.22 483.19 c 1,0,0
 1381.94 357.28 l 1,0,0
EndSplineSet
EndChar

StartChar: uni0188
Encoding: 392 392 329
Width: 1176
GlyphClass: 2
Flags: HW
LayerCount: 2
Fore
SplineSet
558.11 189.83 m 0,0,0
 635.5 189.83 635.5 189.83 683.725 241.505 c 0,0,0
 731.95 293.18 731.95 293.18 759.33 390.57 c 1,0,0
 1068.28 340.24 l 1,0,0
 968.89 -20 968.89 -20 538.15 -20 c 0,0,0
 309.24 -20 309.24 -20 185.46 93.325 c 0,0,0
 61.68 206.65 61.68 206.65 61.68 408.3 c 0,0,0
 61.68 602.65 61.68 602.65 142.66 772.32 c 0,0,0
 223.97 942.99 223.97 942.99 359.43 1022.495 c 0,0,0
 494.89 1102 494.89 1102 698.15 1102 c 0,0,0
 823.58 1102 823.58 1102 928.56 1057.58 c 1,0,0
 954.25 1199.89 954.25 1199.89 1053.02 1270.38 c 0,0,0
 1151.79 1340.87 1151.79 1340.87 1302.36 1340.87 c 0,0,0
 1379 1340.87 1379 1340.87 1461.25 1325.19 c 1,0,0
 1418.95 1107.69 l 1,0,0
 1361.97 1117.05 1361.97 1117.05 1331.97 1117.05 c 0,0,0
 1283.6 1117.05 1283.6 1117.05 1247.765 1092.495 c 0,0,0
 1211.93 1067.94 1211.93 1067.94 1196.92 992.22 c 2,0,0
 1144.64 726.81 l 1,0,0
 825.33 704.47 l 1,0,0
 820.66 798.81 820.66 798.81 782.62 845.325 c 0,0,0
 744.58 891.84 744.58 891.84 670.87 891.84 c 0,0,0
 591.75 891.84 591.75 891.84 544.01 846.12 c 0,0,0
 506.65 810.77 506.65 810.77 476.97 743.75 c 0,0,0
 447.29 676.73 447.29 676.73 415.32 562.46 c 1,0,0
 393.31 442.48 393.31 442.48 393.31 412.94 c 0,0,0
 393.31 189.83 393.31 189.83 558.11 189.83 c 0,0,0
EndSplineSet
EndChar

StartChar: uni018A
Encoding: 394 394 331
Width: 1628
GlyphClass: 2
Flags: HW
LayerCount: 2
Fore
SplineSet
917.55 1409 m 2,0,0
 1144.17 1409 1144.17 1409 1298.825 1341.15 c 0,0,0
 1453.48 1273.3 1453.48 1273.3 1531.985 1140.62 c 0,0,0
 1610.49 1007.94 1610.49 1007.94 1610.49 812.28 c 0,0,0
 1610.49 577.94 1610.49 577.94 1512.81 393.96 c 0,0,0
 1415.13 211.64 1415.13 211.64 1228.945 105.82 c 0,0,0
 1042.76 0 1042.76 0 813.72 0 c 2,0,0
 256.5 0 l 1,0,0
 484.54 1173.22 l 1,0,0
 466.88 1173.22 l 2,0,0
 402.14 1173.22 402.14 1173.22 366.945 1139.51 c 0,0,0
 331.75 1105.8 331.75 1105.8 331.75 1041.73 c 0,0,0
 331.42 1020.75 331.42 1020.75 335.08 992.79 c 0,0,0
 338.74 964.83 338.74 964.83 346.39 929.22 c 1,0,0
 95.98 912.22 l 1,0,0
 94.64 932.87 94.64 932.87 93.305 956.515 c 0,0,0
 91.97 980.16 91.97 980.16 91.97 1008.79 c 0,0,0
 91.97 1217.36 91.97 1217.36 187.79 1313.18 c 0,0,0
 283.61 1409 283.61 1409 490.19 1409 c 2,0,0
 917.55 1409 l 2,0,0
634.77 252.75 m 1,0,0
 804.39 252.75 l 2,0,0
 952.18 252.75 952.18 252.75 1068.26 318.78 c 0,0,0
 1183.01 383.81 1183.01 383.81 1245.22 507.365 c 0,0,0
 1307.43 630.92 1307.43 630.92 1307.43 794.33 c 0,0,0
 1307.43 973.43 1307.43 973.43 1208.695 1064.84 c 0,0,0
 1109.96 1156.25 1109.96 1156.25 921.53 1156.25 c 2,0,0
 809.87 1156.25 l 1,0,0
 634.77 252.75 l 1,0,0
EndSplineSet
EndChar

StartChar: uni018B
Encoding: 395 395 332
Width: 1376
GlyphClass: 2
Flags: HW
LayerCount: 2
Fore
SplineSet
455.58 0 m 2,0,0
 326.48 0 326.48 0 233.09 43.03 c 0,0,0
 130.44 89.03 130.44 89.03 75.45 173.855 c 0,0,0
 20.46 258.68 20.46 258.68 20.46 368.02 c 0,0,0
 20.46 499.49 20.46 499.49 77.62 603.18 c 0,0,0
 149.95 723.05 149.95 723.05 286.55 786.645 c 0,0,0
 423.15 850.24 423.15 850.24 606.38 850.24 c 2,0,0
 1017.36 850.24 l 1,0,0
 1076.76 1158.57 l 1,0,0
 388.58 1158.57 l 1,0,0
 437.2 1409 l 1,0,0
 1454.7 1409 l 1,0,0
 1182.03 0 l 1,0,0
 455.58 0 l 2,0,0
971.4 610.13 m 1,0,0
 643.31 610.13 l 2,0,0
 503.2 610.13 503.2 610.13 430.65 553.765 c 0,0,0
 358.1 497.4 358.1 497.4 358.1 393.98 c 0,0,0
 358.1 316.89 358.1 316.89 410.99 279 c 0,0,0
 463.88 241.11 463.88 241.11 572.31 241.11 c 2,0,0
 896.36 241.11 l 1,0,0
 971.4 610.13 l 1,0,0
EndSplineSet
EndChar

StartChar: uni018C
Encoding: 396 396 333
Width: 1287
GlyphClass: 2
Flags: HW
LayerCount: 2
Fore
SplineSet
389.03 -21 m 0,0,0
 236.02 -21 236.02 -21 145.195 83.475 c 0,0,0
 54.37 187.95 54.37 187.95 54.37 360.93 c 0,0,0
 54.37 549.63 54.37 549.63 119.03 728.33 c 0,0,0
 183.69 908.69 183.69 908.69 300.675 1005.51 c 0,0,0
 417.66 1102.33 417.66 1102.33 577.36 1102.33 c 0,0,0
 701.69 1102.33 701.69 1102.33 783.18 1052.325 c 0,0,0
 864.67 1002.32 864.67 1002.32 892.68 904.33 c 1,0,0
 897.68 904.33 l 1,0,0
 898.03 912.08 898.03 912.08 899.71 926.645 c 0,0,0
 901.39 941.21 901.39 941.21 904.4 961.26 c 0,0,0
 905.76 973.06 905.76 973.06 920.09 1046.04 c 0,0,0
 960.72 1253.18 l 1,0,0
 473.86 1253.18 l 1,0,0
 524.81 1484 l 1,0,0
 1316.69 1484 l 1,0,0
 1081 233.64 l 2,0,0
 1071 177.31 1071 177.31 1064.66 118.65 c 0,0,0
 1058.32 59.99 1058.32 59.99 1054.97 0 c 1,0,0
 738 0 l 1,0,0
 738 32.65 738 32.65 742.17 85.45 c 0,0,0
 746.34 138.25 746.34 138.25 751.02 160 c 1,0,0
 747.35 160 l 1,0,0
 677.01 67.66 677.01 67.66 594.015 23.33 c 0,0,0
 511.02 -21 511.02 -21 389.03 -21 c 0,0,0
535.46 189.82 m 0,0,0
 679.58 189.82 679.58 189.82 755.3 323.56 c 0,0,0
 781.65 369.58 781.65 369.58 800.495 432.11 c 0,0,0
 819.34 494.64 819.34 494.64 829.845 558.675 c 0,0,0
 840.35 622.71 840.35 622.71 840.35 673.41 c 0,0,0
 840.35 791.76 840.35 791.76 798.795 841.31 c 0,0,0
 757.24 890.86 757.24 890.86 669.51 890.86 c 0,0,0
 576.1 890.86 576.1 890.86 513.41 823.84 c 0,0,0
 472.06 779.16 472.06 779.16 444.21 708.435 c 0,0,0
 416.36 637.71 416.36 637.71 401.85 556.985 c 0,0,0
 387.34 476.26 387.34 476.26 387.34 402.24 c 0,0,0
 387.34 296.53 387.34 296.53 425.03 243.175 c 0,0,0
 462.72 189.82 462.72 189.82 535.46 189.82 c 0,0,0
EndSplineSet
EndChar

StartChar: uni018D
Encoding: 397 397 334
Width: 1286
GlyphClass: 2
Flags: HW
LayerCount: 2
Fore
SplineSet
1245.57 676.35 m 0,0,0
 1245.57 505.34 1245.57 505.34 1181.9 379.56 c 0,0,0
 1118.56 252.12 1118.56 252.12 994.73 158.13 c 0,0,0
 870.9 64.14 870.9 64.14 699.88 18.24 c 1,0,0
 1000.52 -227.83 l 1,0,0
 962.22 -423.67 l 1,0,0
 -21.5 -423.67 l 1,0,0
 22.46 -201.53 l 1,0,0
 440.33 -201.53 l 1,0,0
 565.73 -198.89 l 1,0,0
 289.83 36.38 l 2,0,0
 208.5 109.05 208.5 109.05 177.49 151.15 c 0,0,0
 137.87 207.46 137.87 207.46 113.075 280.74 c 0,0,0
 88.28 354.02 88.28 354.02 88.28 452.25 c 0,0,0
 88.28 641.24 88.28 641.24 176.23 788.95 c 0,0,0
 264.18 934.33 264.18 934.33 422.6 1018.33 c 0,0,0
 581.02 1102.33 581.02 1102.33 778.99 1102.33 c 0,0,0
 1000.96 1102.33 1000.96 1102.33 1123.265 989.505 c 0,0,0
 1245.57 876.68 1245.57 876.68 1245.57 676.35 c 0,0,0
918.59 690.98 m 0,0,0
 918.59 783.44 918.59 783.44 864.57 836.32 c 0,0,0
 810.55 889.2 810.55 889.2 717.14 889.2 c 0,0,0
 624.7 889.2 624.7 889.2 557 829.51 c 0,0,0
 510.98 788.83 510.98 788.83 480.46 730.275 c 0,0,0
 449.94 671.72 449.94 671.72 434.095 595.84 c 0,0,0
 418.25 519.96 418.25 519.96 418.25 423.98 c 0,0,0
 418.25 318.54 418.25 318.54 465.625 268.305 c 0,0,0
 513 218.07 513 218.07 588.45 218.07 c 0,0,0
 621.96 218.07 621.96 218.07 660.19 226.14 c 0,0,0
 698.42 234.21 698.42 234.21 733.12 248.37 c 0,0,0
 790.39 284.41 790.39 284.41 831.68 348.435 c 0,0,0
 872.97 412.46 872.97 412.46 895.78 499.605 c 0,0,0
 918.59 586.75 918.59 586.75 918.59 690.98 c 0,0,0
EndSplineSet
EndChar

StartChar: uni018E
Encoding: 398 398 335
Width: 1366
GlyphClass: 2
Flags: HW
LayerCount: 2
Fore
SplineSet
36.5 0 m 1,0,0
 84.13 251.76 l 1,0,0
 862.15 251.76 l 1,0,0
 919.6 560.55 l 1,0,0
 189.38 560.55 l 1,0,0
 237.01 812.97 l 1,0,0
 967.23 812.97 l 1,0,0
 1031.31 1157.24 l 1,0,0
 185.23 1157.24 l 1,0,0
 234.19 1409 l 1,0,0
 1408.26 1409 l 1,0,0
 1143.84 0 l 1,0,0
 36.5 0 l 1,0,0
EndSplineSet
EndChar

StartChar: uni018F
Encoding: 399 399 336
Width: 1510
GlyphClass: 2
Flags: HW
LayerCount: 2
Fore
SplineSet
1109.85 860.54 m 1,0,0
 1110.85 870.57 1110.85 870.57 1111.35 884.405 c 0,0,0
 1111.85 898.24 1111.85 898.24 1111.85 914.55 c 0,0,0
 1111.85 1023.42 1111.85 1023.42 1035.615 1099.5 c 0,0,0
 959.38 1175.58 959.38 1175.58 849.86 1175.58 c 0,0,0
 766.86 1175.58 766.86 1175.58 712.81 1157.58 c 0,0,0
 667.68 1140.23 667.68 1140.23 634.565 1108.165 c 0,0,0
 601.45 1076.1 601.45 1076.1 548.75 989.08 c 1,0,0
 259.72 1066.37 l 1,0,0
 336.16 1257.34 336.16 1257.34 477.38 1343.67 c 0,0,0
 618.6 1430 618.6 1430 851.88 1430 c 0,0,0
 1032.87 1430 1032.87 1430 1168.845 1356.845 c 0,0,0
 1304.82 1283.69 1304.82 1283.69 1380.3 1148.875 c 0,0,0
 1455.78 1014.06 1455.78 1014.06 1455.78 829.41 c 0,0,0
 1455.78 588.71 1455.78 588.71 1345.81 393.36 c 0,0,0
 1234.51 198.01 1234.51 198.01 1044.86 89.005 c 0,0,0
 855.21 -20 855.21 -20 625.84 -20 c 0,0,0
 469.45 -20 469.45 -20 350.43 55.64 c 0,0,0
 232.4 129.95 232.4 129.95 167.225 261.935 c 0,0,0
 102.05 393.92 102.05 393.92 102.05 546.65 c 0,0,0
 102.05 708.55 102.05 708.55 153.68 860.54 c 1,0,0
 1109.85 860.54 l 1,0,0
699.01 232.4 m 0,0,0
 826.59 232.4 826.59 232.4 922.395 329.665 c 0,0,0
 1018.2 426.93 1018.2 426.93 1061.91 600.13 c 1,0,0
 442 600.13 l 1,0,0
 435.66 564.41 435.66 564.41 435.66 513.4 c 0,0,0
 435.66 386.88 435.66 386.88 505.58 309.64 c 0,0,0
 575.5 232.4 575.5 232.4 699.01 232.4 c 0,0,0
EndSplineSet
EndChar

StartChar: uni0190
Encoding: 400 400 337
Width: 1335
GlyphClass: 2
Flags: HW
LayerCount: 2
Fore
SplineSet
568.94 -20 m 0,0,0
 431.21 -20 431.21 -20 315.88 23.7 c 0,0,0
 193.96 71.03 193.96 71.03 127.67 154.85 c 0,0,0
 61.38 238.67 61.38 238.67 61.38 342.34 c 0,0,0
 61.38 497.03 61.38 497.03 159.565 595.38 c 0,0,0
 257.75 693.73 257.75 693.73 447.73 720.06 c 1,0,0
 343.72 752.05 343.72 752.05 283.225 822.21 c 0,0,0
 222.73 892.37 222.73 892.37 222.73 990.38 c 0,0,0
 222.73 1115.39 222.73 1115.39 294.06 1217.38 c 0,0,0
 367.04 1318.69 367.04 1318.69 497.18 1373.845 c 0,0,0
 627.32 1429 627.32 1429 783.99 1429 c 0,0,0
 1007.93 1429 1007.93 1429 1145.87 1323.555 c 0,0,0
 1283.81 1218.11 1283.81 1218.11 1325.13 1018.84 c 1,0,0
 1021.12 955.87 l 1,0,0
 997.42 1081.55 997.42 1081.55 933.9 1136.545 c 0,0,0
 870.38 1191.54 870.38 1191.54 765.67 1191.54 c 0,0,0
 659.23 1191.54 659.23 1191.54 597.66 1144.47 c 0,0,0
 536.09 1097.4 536.09 1097.4 536.09 1002.32 c 0,0,0
 536.09 932.58 536.09 932.58 596.47 885.245 c 0,0,0
 656.85 837.91 656.85 837.91 778.62 837.91 c 2,0,0
 836.96 837.91 l 1,0,0
 788.01 584.84 l 1,0,0
 732.97 584.84 l 2,0,0
 541.89 584.84 541.89 584.84 465.135 542.26 c 0,0,0
 388.38 499.68 388.38 499.68 388.38 397.23 c 0,0,0
 388.38 321.16 388.38 321.16 453.41 276.955 c 0,0,0
 518.44 232.75 518.44 232.75 629.83 232.75 c 0,0,0
 860.23 232.75 860.23 232.75 975.37 479.48 c 1,0,0
 1256.03 332.63 l 1,0,0
 1200.62 217.92 1200.62 217.92 1113.3 140.61 c 0,0,0
 1017 54.32 1017 54.32 884.57 17.16 c 0,0,0
 752.14 -20 752.14 -20 568.94 -20 c 0,0,0
EndSplineSet
EndChar

StartChar: uni0191
Encoding: 401 401 338
Width: 1251
GlyphClass: 2
Flags: HW
LayerCount: 2
Fore
SplineSet
340.72 -71.81 m 2,0,0
 302.08 -264.36 302.08 -264.36 205.115 -344.845 c 0,0,0
 108.15 -425.33 108.15 -425.33 -88.4 -425.33 c 0,0,0
 -162.71 -425.33 -162.71 -425.33 -261.27 -405.66 c 1,0,0
 -215.31 -164.21 l 1,0,0
 -147.7 -175.56 -147.7 -175.56 -120 -175.56 c 0,0,0
 -56.99 -175.56 -56.99 -175.56 -24.47 -138.545 c 0,0,0
 8.05 -101.53 8.05 -101.53 22.06 -26.82 c 2,0,0
 300.09 1409 l 1,0,0
 1277.84 1409 l 1,0,0
 1229.22 1157.24 l 1,0,0
 580.79 1157.24 l 1,0,0
 501.4 750.28 l 1,0,0
 1127.16 750.28 l 1,0,0
 1078.87 499.18 l 1,0,0
 453.11 499.18 l 1,0,0
 340.72 -71.81 l 2,0,0
EndSplineSet
EndChar

StartChar: florin
Encoding: 402 402 339
Width: 1139
GlyphClass: 2
Flags: HW
LayerCount: 2
Fore
SplineSet
1050.61 1277.42 m 1,0,0
 1044.23 1277.44 1044.23 1277.44 1010.91 1281.605 c 0,0,0
 977.59 1285.77 977.59 1285.77 959.23 1285.77 c 0,0,0
 889.92 1285.77 889.92 1285.77 860.58 1255.42 c 0,0,0
 831.24 1225.07 831.24 1225.07 820.22 1169.64 c 2,0,0
 807.52 1101.8 l 1,0,0
 1021.18 1101.8 l 1,0,0
 980.22 892.33 l 1,0,0
 767.22 892.33 l 1,0,0
 509.22 -414.77 l 1,0,0
 196.22 -414.77 l 1,0,0
 454.22 892.33 l 1,0,0
 294.24 892.33 l 1,0,0
 334.54 1101.8 l 1,0,0
 494.85 1101.8 l 1,0,0
 514.54 1201.93 l 2,0,0
 544.21 1357.59 544.21 1357.59 645.31 1425.745 c 0,0,0
 746.41 1493.9 746.41 1493.9 931.28 1493.9 c 0,0,0
 998.97 1493.9 998.97 1493.9 1088.26 1477.89 c 1,0,0
 1050.61 1277.42 l 1,0,0
EndSplineSet
EndChar

StartChar: uni0193
Encoding: 403 403 340
Width: 1593
GlyphClass: 2
Flags: HW
LayerCount: 2
Fore
SplineSet
739.34 -18.67 m 0,0,0
 440.99 -18.67 440.99 -18.67 270.33 140.655 c 0,0,0
 99.67 299.98 99.67 299.98 99.67 586.3 c 0,0,0
 99.67 833.64 99.67 833.64 203.34 1026.98 c 0,0,0
 307.01 1218.66 307.01 1218.66 498.845 1324.33 c 0,0,0
 690.68 1430 690.68 1430 941.34 1430 c 0,0,0
 1150.2 1430 1150.2 1430 1301.2 1339.88 c 1,0,0
 1321.83 1448.68 l 2,0,0
 1349.83 1591.68 1349.83 1591.68 1451.28 1664.355 c 0,0,0
 1552.73 1737.03 1552.73 1737.03 1709.32 1737.03 c 0,0,0
 1785.29 1737.03 1785.29 1737.03 1868.22 1721.35 c 1,0,0
 1824.59 1499.86 l 1,0,0
 1766.29 1509.88 1766.29 1509.88 1739.92 1509.88 c 0,0,0
 1693.2 1509.88 1693.2 1509.88 1658.685 1484.17 c 0,0,0
 1624.17 1458.46 1624.17 1458.46 1608.83 1381.09 c 2,0,0
 1538.25 1019.53 l 1,0,0
 1226.88 933.61 l 1,0,0
 1200.52 1045.95 1200.52 1045.95 1122.14 1109.435 c 0,0,0
 1043.76 1172.92 1043.76 1172.92 924.02 1172.92 c 0,0,0
 774.25 1172.92 774.25 1172.92 662.5 1101.55 c 0,0,0
 550.75 1028.85 550.75 1028.85 491.705 898.28 c 0,0,0
 432.66 767.71 432.66 767.71 432.66 596.95 c 0,0,0
 432.66 431.17 432.66 431.17 520.07 333.625 c 0,0,0
 607.48 236.08 607.48 236.08 769.28 236.08 c 0,0,0
 866.39 236.08 866.39 236.08 959.645 257.13 c 0,0,0
 1052.9 278.18 1052.9 278.18 1120.61 312.28 c 1,0,0
 1164.96 531.7 l 1,0,0
 849.03 531.7 l 1,0,0
 890.34 755.54 l 1,0,0
 1509.95 755.54 l 1,0,0
 1403.3 163.45 l 1,0,0
 1253.99 66.06 1253.99 66.06 1097.485 23.695 c 0,0,0
 940.98 -18.67 940.98 -18.67 739.34 -18.67 c 0,0,0
EndSplineSet
EndChar

StartChar: uni0194
Encoding: 404 404 341
Width: 1354
GlyphClass: 2
Flags: HW
LayerCount: 2
Fore
SplineSet
511.91 -425 m 0,0,0
 381.98 -425 381.98 -425 302.195 -353.865 c 0,0,0
 222.41 -282.73 222.41 -282.73 222.41 -170.42 c 0,0,0
 222.41 -106.12 222.41 -106.12 248.9 -39.465 c 0,0,0
 275.39 27.19 275.39 27.19 348.97 125.78 c 0,0,0
 376.95 162.44 376.95 162.44 409.96 199.65 c 0,0,0
 442.97 236.86 442.97 236.86 479.35 274.29 c 1,0,0
 221.9 1409 l 1,0,0
 566.2 1409 l 1,0,0
 708.43 586.23 l 1,0,0
 1168.83 1409 l 1,0,0
 1506.5 1409 l 1,0,0
 811.68 277.59 l 1,0,0
 877.64 93.99 877.64 93.99 894.3 29.63 c 0,0,0
 911.29 -38.04 911.29 -38.04 911.29 -90.72 c 0,0,0
 911.29 -201.99 911.29 -201.99 860.33 -275.33 c 0,0,0
 815.02 -344.68 815.02 -344.68 725.915 -384.84 c 0,0,0
 636.81 -425 636.81 -425 511.91 -425 c 0,0,0
553.51 -199.19 m 0,0,0
 606.17 -199.19 606.17 -199.19 628.685 -166.82 c 0,0,0
 651.2 -134.45 651.2 -134.45 651.2 -94.67 c 0,0,0
 651.2 -29.36 651.2 -29.36 635.22 13.175 c 0,0,0
 619.24 55.71 619.24 55.71 608.89 83.45 c 1,0,0
 567.57 33.77 l 2,0,0
 527.54 -10.99 527.54 -10.99 508.68 -48.41 c 0,0,0
 489.82 -85.83 489.82 -85.83 489.82 -122.51 c 0,0,0
 489.82 -152.2 489.82 -152.2 505.995 -175.695 c 0,0,0
 522.17 -199.19 522.17 -199.19 553.51 -199.19 c 0,0,0
EndSplineSet
EndChar

StartChar: uni0195
Encoding: 405 405 342
Width: 1948
GlyphClass: 2
Flags: HW
LayerCount: 2
Fore
SplineSet
1254.39 -20 m 0,0,0
 1051.11 -20 1051.11 -20 937.495 63.485 c 0,0,0
 823.88 146.97 823.88 146.97 823.88 304.25 c 0,0,0
 823.88 363.82 823.88 363.82 833.03 428.215 c 0,0,0
 842.18 492.61 842.18 492.61 853.83 555.18 c 2,0,0
 859.63 581.53 l 2,0,0
 870.29 628.18 870.29 628.18 879.775 676.31 c 0,0,0
 889.26 724.44 889.26 724.44 889.26 748.78 c 0,0,0
 889.26 864.91 889.26 864.91 745.84 864.91 c 0,0,0
 684.45 864.91 684.45 864.91 625.75 830.22 c 0,0,0
 567.05 795.53 567.05 795.53 525.195 736.315 c 0,0,0
 483.34 677.1 483.34 677.1 468.99 604.35 c 2,0,0
 351.32 0 l 1,0,0
 35.33 0 l 1,0,0
 320.67 1484 l 1,0,0
 633.67 1484 l 1,0,0
 553.35 1072.73 l 2,0,0
 543.35 1029.7 543.35 1029.7 534.51 986.35 c 0,0,0
 525.67 943 525.67 943 516.66 897 c 1,0,0
 519.66 897 l 1,0,0
 596.65 1004 596.65 1004 688.8 1052.5 c 0,0,0
 780.95 1101 780.95 1101 895.3 1101 c 0,0,0
 1049.28 1101 1049.28 1101 1126.94 1028 c 0,0,0
 1204.6 955 1204.6 955 1204.6 816.01 c 0,0,0
 1204.6 781.02 1204.6 781.02 1197.775 725.575 c 0,0,0
 1190.95 670.13 1190.95 670.13 1174.97 592.23 c 2,0,0
 1165.85 549.27 l 2,0,0
 1136.89 407.14 1136.89 407.14 1136.89 380.43 c 0,0,0
 1136.89 291.78 1136.89 291.78 1172.245 253.6 c 0,0,0
 1207.6 215.42 1207.6 215.42 1273.03 215.42 c 0,0,0
 1359.12 215.42 1359.12 215.42 1415.975 281.24 c 0,0,0
 1472.83 347.06 1472.83 347.06 1495.85 465.82 c 2,0,0
 1616.55 1082 l 1,0,0
 1929.22 1082 l 1,0,0
 1813.16 486.03 l 2,0,0
 1762.52 226.5 1762.52 226.5 1626.74 103.25 c 0,0,0
 1490.96 -20 1490.96 -20 1254.39 -20 c 0,0,0
EndSplineSet
EndChar

StartChar: uni0196
Encoding: 406 406 343
Width: 606
GlyphClass: 2
Flags: HW
LayerCount: 2
Fore
SplineSet
382.32 154.96 m 0,0,0
 382.32 107.65 382.32 107.65 391.495 68.325 c 0,0,0
 400.67 29 400.67 29 423.33 0 c 1,0,0
 89.67 0 l 1,0,0
 63 51.97 63 51.97 63 131.65 c 0,0,0
 63 173.68 63 173.68 74 236 c 2,0,0
 317 1484 l 1,0,0
 632.66 1484 l 1,0,0
 391.32 245.62 l 2,0,0
 385.99 218.97 385.99 218.97 384.155 198.625 c 0,0,0
 382.32 178.28 382.32 178.28 382.32 154.96 c 0,0,0
EndSplineSet
EndChar

StartChar: uni0197
Encoding: 407 407 344
Width: 569
GlyphClass: 2
Flags: HW
LayerCount: 2
Fore
SplineSet
451.85 610.82 m 1,0,0
 332.82 0 l 1,0,0
 18.16 0 l 1,0,0
 137.52 610.82 l 1,0,0
 1.45 610.82 l 1,0,0
 49.73 858.22 l 1,0,0
 185.47 858.22 l 1,0,0
 307.49 1484 l 1,0,0
 621.82 1484 l 1,0,0
 500.13 858.22 l 1,0,0
 651.51 858.22 l 1,0,0
 603.23 610.82 l 1,0,0
 451.85 610.82 l 1,0,0
EndSplineSet
EndChar

StartChar: uni0198
Encoding: 408 408 345
Width: 1516
GlyphClass: 2
Flags: HW
LayerCount: 2
Fore
SplineSet
910.45 797.62 m 1,0,0
 1345.09 0 l 1,0,0
 986.09 0 l 1,0,0
 669.7 628.78 l 1,0,0
 451.77 507.76 l 1,0,0
 355.08 0 l 1,0,0
 27.09 0 l 1,0,0
 300.09 1409 l 1,0,0
 628.08 1409 l 1,0,0
 501.39 787.16 l 1,0,0
 706.23 956.06 l 1,0,0
 1034.96 1234.4 l 2,0,0
 1100.53 1289.32 1100.53 1289.32 1154.795 1328.275 c 0,0,0
 1209.06 1367.23 1209.06 1367.23 1259 1389.89 c 0,0,0
 1352.36 1431.65 1352.36 1431.65 1460.73 1431.65 c 0,0,0
 1506.37 1431.65 1506.37 1431.65 1541.53 1425.65 c 0,0,0
 1576.69 1419.65 1576.69 1419.65 1606.68 1411.98 c 1,0,0
 1558.72 1171.85 l 1,0,0
 1532.07 1175.86 1532.07 1175.86 1506.415 1179.53 c 0,0,0
 1480.76 1183.2 1480.76 1183.2 1459.09 1183.2 c 0,0,0
 1410.77 1183.2 1410.77 1183.2 1358.44 1155.22 c 0,0,0
 1307.44 1127.57 1307.44 1127.57 1251.35 1078.83 c 2,0,0
 910.45 797.62 l 1,0,0
EndSplineSet
EndChar

StartChar: uni0199
Encoding: 409 409 346
Width: 1176
GlyphClass: 2
Flags: HW
LayerCount: 2
Fore
SplineSet
437.95 436.52 m 1,0,0
 348.66 0 l 1,0,0
 35.33 0 l 1,0,0
 261.69 1167.8 l 2,0,0
 292.01 1329.06 292.01 1329.06 386.305 1404.22 c 0,0,0
 480.6 1479.38 480.6 1479.38 658.79 1479.38 c 0,0,0
 747.41 1479.38 747.41 1479.38 830.34 1463.7 c 1,0,0
 786.71 1242.21 l 1,0,0
 729.4 1251.57 729.4 1251.57 699.73 1251.57 c 0,0,0
 651.36 1251.57 651.36 1251.57 617.02 1227.51 c 0,0,0
 582.68 1203.45 582.68 1203.45 566.01 1127.73 c 2,0,0
 474.62 656.11 l 1,0,0
 657.34 834.14 l 1,0,0
 906.62 1082 l 1,0,0
 1261.62 1082 l 1,0,0
 807.43 674.19 l 1,0,0
 1062.3 0 l 1,0,0
 730.31 0 l 1,0,0
 568.71 495.35 l 1,0,0
 437.95 436.52 l 1,0,0
EndSplineSet
EndChar

StartChar: uni019A
Encoding: 410 410 347
Width: 606
GlyphClass: 2
Flags: HW
LayerCount: 2
Fore
SplineSet
469.33 608.81 m 1,0,0
 350.97 0 l 1,0,0
 37.64 0 l 1,0,0
 156 608.81 l 1,0,0
 -3.6 608.81 l 1,0,0
 41.36 835.91 l 1,0,0
 199.29 835.91 l 1,0,0
 325.64 1484 l 1,0,0
 639.97 1484 l 1,0,0
 513.95 835.91 l 1,0,0
 695.84 835.91 l 1,0,0
 650.88 608.81 l 1,0,0
 469.33 608.81 l 1,0,0
EndSplineSet
EndChar

StartChar: uni019B
Encoding: 411 411 348
Width: 1182
GlyphClass: 2
Flags: HW
LayerCount: 2
Fore
SplineSet
1044.51 1300.26 m 1,0,0
 830.62 1213 l 1,0,0
 1067.91 0 l 1,0,0
 736.29 0 l 1,0,0
 660.58 489.22 l 2,0,0
 653.24 541.56 653.24 541.56 643.415 595.06 c 0,0,0
 633.59 648.56 633.59 648.56 623.61 701.89 c 1,0,0
 604.98 669.62 604.98 669.62 585.53 634.54 c 0,0,0
 566.08 599.46 566.08 599.46 548.44 569.17 c 0,0,0
 530.8 538.88 530.8 538.88 520.26 517.99 c 0,0,0
 509.72 497.1 509.72 497.1 508.91 493.87 c 2,0,0
 246.64 0 l 1,0,0
 -82.69 0 l 1,0,0
 522.75 1051.82 l 1,0,0
 521.34 1088.51 l 1,0,0
 185.33 951.02 l 1,0,0
 139.72 1142.17 l 1,0,0
 481.04 1280.33 l 1,0,0
 436.73 1484 l 1,0,0
 777.63 1484 l 1,0,0
 792.99 1405.16 l 1,0,0
 997.57 1489.76 l 1,0,0
 1044.51 1300.26 l 1,0,0
EndSplineSet
EndChar

StartChar: uni019C
Encoding: 412 412 349
Width: 1908
GlyphClass: 2
Flags: HW
LayerCount: 2
Fore
SplineSet
1013.07 -20 m 0,0,0
 941.7 -20 941.7 -20 901.65 0.02 c 0,0,0
 852.33 22.68 852.33 22.68 821.99 64.165 c 0,0,0
 791.65 105.65 791.65 105.65 768.32 197.21 c 1,0,0
 759.01 197.21 l 1,0,0
 721.37 150.59 721.37 150.59 688.555 117.285 c 0,0,0
 655.74 83.98 655.74 83.98 629.41 63.32 c 0,0,0
 577.39 24.31 577.39 24.31 510.91 2.155 c 0,0,0
 444.43 -20 444.43 -20 361.14 -20 c 0,0,0
 216.42 -20 216.42 -20 142.72 51.365 c 0,0,0
 69.02 122.73 69.02 122.73 69.02 265.11 c 0,0,0
 69.02 317.16 69.02 317.16 78.05 364.98 c 2,0,0
 280.99 1409 l 1,0,0
 611.3 1409 l 1,0,0
 429.64 472.04 l 2,0,0
 404.99 343.13 404.99 343.13 404.99 307.06 c 0,0,0
 404.99 257.26 404.99 257.26 429.205 233.37 c 0,0,0
 453.42 209.48 453.42 209.48 501.21 209.48 c 0,0,0
 599.6 209.48 599.6 209.48 675.085 293.13 c 0,0,0
 750.57 376.78 750.57 376.78 775.25 506.5 c 2,0,0
 949.95 1409 l 1,0,0
 1279.93 1409 l 1,0,0
 1100.25 482.6 l 2,0,0
 1070.95 326.8 1070.95 326.8 1070.95 296.73 c 0,0,0
 1070.95 257.59 1070.95 257.59 1099.15 233.535 c 0,0,0
 1127.35 209.48 1127.35 209.48 1172.46 209.48 c 0,0,0
 1261.88 209.48 1261.88 209.48 1342.04 307.105 c 0,0,0
 1422.2 404.73 1422.2 404.73 1453.2 559.08 c 2,0,0
 1618.25 1409 l 1,0,0
 1948.23 1409 l 1,0,0
 1732.53 296.17 l 2,0,0
 1718.54 219.24 1718.54 219.24 1703.39 145.78 c 0,0,0
 1688.24 72.32 1688.24 72.32 1672.26 1.33 c 1,0,0
 1326.04 1.33 l 1,0,0
 1346.37 176.59 l 1,0,0
 1342.04 177.91 l 1,0,0
 1281.38 72.65 1281.38 72.65 1206.695 26.325 c 0,0,0
 1132.01 -20 1132.01 -20 1013.07 -20 c 0,0,0
EndSplineSet
EndChar

StartChar: uni019D
Encoding: 413 413 350
Width: 1479
GlyphClass: 2
Flags: HW
LayerCount: 2
Fore
SplineSet
850.01 0 m 1,0,0
 527.82 1104.93 l 1,0,0
 518.8 1034.49 518.8 1034.49 509.63 976.8 c 0,0,0
 500.46 919.11 500.46 919.11 491.14 875.17 c 2,0,0
 306.09 -59.84 l 2,0,0
 278.11 -200.41 278.11 -200.41 230.96 -280.54 c 0,0,0
 183.81 -360.67 183.81 -360.67 106.675 -393 c 0,0,0
 29.54 -425.33 29.54 -425.33 -89.73 -425.33 c 0,0,0
 -164.04 -425.33 -164.04 -425.33 -262.6 -405.66 c 1,0,0
 -212.65 -150.91 l 1,0,0
 -149.03 -162.26 -149.03 -162.26 -120 -162.26 c 0,0,0
 -56.99 -162.26 -56.99 -162.26 -23.805 -125.245 c 0,0,0
 9.38 -88.23 9.38 -88.23 23.39 -13.52 c 2,0,0
 301.42 1409 l 1,0,0
 696.96 1409 l 1,0,0
 1022.15 292.42 l 1,0,0
 1028.5 351.51 1028.5 351.51 1038.835 412.535 c 0,0,0
 1049.17 473.56 1049.17 473.56 1061.83 539.18 c 2,0,0
 1233.52 1409 l 1,0,0
 1525.22 1409 l 1,0,0
 1250.89 0 l 1,0,0
 850.01 0 l 1,0,0
EndSplineSet
EndChar

StartChar: uni019E
Encoding: 414 414 351
Width: 1287
GlyphClass: 2
Flags: HW
LayerCount: 2
Fore
SplineSet
1195.24 718.17 m 2,0,0
 970.61 -425 l 1,0,0
 659.27 -425 l 1,0,0
 860.29 578.5 l 2,0,0
 888.93 718.04 888.93 718.04 888.93 748.45 c 0,0,0
 888.93 864.91 888.93 864.91 745.84 864.91 c 0,0,0
 684.45 864.91 684.45 864.91 625.585 830.055 c 0,0,0
 566.72 795.2 566.72 795.2 524.865 736.315 c 0,0,0
 483.01 677.43 483.01 677.43 468.99 606 c 2,0,0
 350.99 0 l 1,0,0
 35.33 0 l 1,0,0
 204.96 871.46 l 2,0,0
 207.64 883.19 207.64 883.19 210.98 896.45 c 0,0,0
 214.32 909.71 214.32 909.71 219.64 938.68 c 0,0,0
 224.96 962.64 224.96 962.64 230.11 982.335 c 0,0,0
 235.26 1002.03 235.26 1002.03 240.575 1025.05 c 0,0,0
 245.89 1048.07 245.89 1048.07 251.87 1082 c 1,0,0
 553.53 1082 l 1,0,0
 551.88 1080.62 551.88 1080.62 544.74 1038.49 c 0,0,0
 537.6 996.36 537.6 996.36 529.79 951.72 c 0,0,0
 521.98 907.08 521.98 907.08 516.66 897 c 1,0,0
 519.66 897 l 1,0,0
 593.35 1001.36 593.35 1001.36 686.16 1051.18 c 0,0,0
 778.97 1101 778.97 1101 895.3 1101 c 0,0,0
 1048.62 1101 1048.62 1101 1126.445 1028 c 0,0,0
 1204.27 955 1204.27 955 1204.27 817 c 0,0,0
 1204.27 800.96 1204.27 800.96 1201.265 770.6 c 0,0,0
 1198.26 740.24 1198.26 740.24 1195.24 718.17 c 2,0,0
EndSplineSet
EndChar

StartChar: Ohorn
Encoding: 416 416 353
Width: 1732
GlyphClass: 2
Flags: HW
LayerCount: 2
Fore
SplineSet
924.7 1430 m 0,0,0
 1188.28 1430 1188.28 1430 1356.905 1305.705 c 0,0,0
 1525.53 1181.41 1525.53 1181.41 1559.56 953.82 c 1,0,0
 1634.3 975.55 1634.3 975.55 1667.67 1017.58 c 0,0,0
 1701.04 1059.61 1701.04 1059.61 1713.05 1118.31 c 1,0,0
 1573.18 1118.31 l 1,0,0
 1629.46 1409 l 1,0,0
 1946.82 1409 l 1,0,0
 1898.22 1162.02 l 2,0,0
 1870.55 1018.37 1870.55 1018.37 1790.57 926.72 c 0,0,0
 1710.59 835.07 1710.59 835.07 1568.24 798.67 c 1,0,0
 1567.58 789.63 1567.58 789.63 1566.42 777.775 c 0,0,0
 1565.26 765.92 1565.26 765.92 1563.93 752.58 c 0,0,0
 1554.62 670.34 1554.62 670.34 1537.02 594.79 c 0,0,0
 1519.42 519.24 1519.42 519.24 1493.54 443.13 c 0,0,0
 1389.19 219.72 1389.19 219.72 1190.8 99.86 c 0,0,0
 992.41 -20 992.41 -20 732.94 -20 c 0,0,0
 553.81 -20 553.81 -20 413.12 40.45 c 0,0,0
 258.91 111.46 258.91 111.46 177.64 249.59 c 0,0,0
 96.37 387.72 96.37 387.72 96.37 573 c 0,0,0
 96.37 807.68 96.37 807.68 202.37 1011.67 c 0,0,0
 307.37 1215.66 307.37 1215.66 493.71 1322.83 c 0,0,0
 680.05 1430 680.05 1430 924.7 1430 c 0,0,0
909.05 1170.93 m 0,0,0
 791.27 1170.93 791.27 1170.93 693.11 1135.2 c 0,0,0
 609.52 1089.82 609.52 1089.82 551.57 1004.815 c 0,0,0
 493.62 919.81 493.62 919.81 462.98 811.675 c 0,0,0
 432.34 703.54 432.34 703.54 432.34 586.94 c 0,0,0
 432.34 409.86 432.34 409.86 516.895 323.635 c 0,0,0
 601.45 237.41 601.45 237.41 748.59 237.41 c 0,0,0
 897.71 237.41 897.71 237.41 1003.46 308.45 c 0,0,0
 1074.18 355.81 1074.18 355.81 1123.885 435.355 c 0,0,0
 1173.59 514.9 1173.59 514.9 1199.445 614.29 c 0,0,0
 1225.3 713.68 1225.3 713.68 1225.3 820.4 c 0,0,0
 1225.3 986.17 1225.3 986.17 1144.73 1078.55 c 0,0,0
 1064.16 1170.93 1064.16 1170.93 909.05 1170.93 c 0,0,0
EndSplineSet
EndChar

StartChar: ohorn
Encoding: 417 417 354
Width: 1420
GlyphClass: 2
Flags: HW
LayerCount: 2
Fore
SplineSet
549.52 -20 m 0,0,0
 324.26 -20 324.26 -20 192.97 97 c 0,0,0
 61.68 214 61.68 214 61.68 419 c 0,0,0
 61.68 625.28 61.68 625.28 145.64 776.98 c 0,0,0
 229.6 929.01 229.6 929.01 383.365 1015.005 c 0,0,0
 537.13 1101 537.13 1101 724.46 1101 c 0,0,0
 972.31 1101 972.31 1101 1100.93 984.9 c 0,0,0
 1229.55 868.8 1229.55 868.8 1222.95 658.58 c 0,0,0
 1222.62 648.25 1222.62 648.25 1221.79 636.59 c 0,0,0
 1220.96 624.93 1220.96 624.93 1220.63 613.6 c 1,0,0
 1292.62 625.33 1292.62 625.33 1328.465 665.355 c 0,0,0
 1364.31 705.38 1364.31 705.38 1378.64 789.33 c 1,0,0
 1265.37 789.33 l 1,0,0
 1321.65 1080.02 l 1,0,0
 1612.41 1080.02 l 1,0,0
 1563.81 833.04 l 2,0,0
 1529.83 660.49 1529.83 660.49 1438.895 565.185 c 0,0,0
 1347.96 469.88 1347.96 469.88 1197.02 453.11 c 1,0,0
 1161.76 305.84 1161.76 305.84 1077.2 204.105 c 0,0,0
 992.64 102.37 992.64 102.37 872.09 44.29 c 0,0,0
 718.77 -20 718.77 -20 549.52 -20 c 0,0,0
891.99 655.07 m 0,0,0
 891.99 889.2 891.99 889.2 697.19 889.2 c 0,0,0
 587.46 889.2 587.46 889.2 523.75 829.51 c 0,0,0
 481.72 788.83 481.72 788.83 452.53 722.96 c 0,0,0
 423.34 657.09 423.34 657.09 408.16 581.875 c 0,0,0
 392.98 506.66 392.98 506.66 392.98 435.95 c 0,0,0
 392.98 311.89 392.98 311.89 441.02 251.68 c 0,0,0
 489.06 191.47 489.06 191.47 587.12 191.47 c 0,0,0
 627.61 191.47 627.61 191.47 666.17 199.205 c 0,0,0
 704.73 206.94 704.73 206.94 733.11 220.09 c 0,0,0
 781.07 254.46 781.07 254.46 816.71 315.655 c 0,0,0
 852.35 376.85 852.35 376.85 872.17 462.67 c 0,0,0
 891.99 548.49 891.99 548.49 891.99 655.07 c 0,0,0
EndSplineSet
EndChar

StartChar: uni01A2
Encoding: 418 418 355
Width: 1875
GlyphClass: 2
Flags: HW
LayerCount: 2
Fore
SplineSet
678.41 -20 m 0,0,0
 402.39 -20 402.39 -20 251.375 130.185 c 0,0,0
 100.36 280.37 100.36 280.37 100.36 553.05 c 0,0,0
 100.36 818.32 100.36 818.32 199.71 1018.32 c 0,0,0
 299.39 1215.66 299.39 1215.66 487.725 1322.83 c 0,0,0
 676.06 1430 676.06 1430 936.67 1430 c 0,0,0
 1042.62 1430 1042.62 1430 1151.06 1405.845 c 0,0,0
 1259.5 1381.69 1259.5 1381.69 1322.88 1345.02 c 1,0,0
 1866.35 1425.66 l 1,0,0
 1949.25 1425.66 l 1,0,0
 1588.92 -425.33 l 1,0,0
 1273.26 -425.33 l 1,0,0
 1582.62 1167.8 l 1,0,0
 1318.05 1167.14 l 1,0,0
 1104.69 58.7 l 1,0,0
 1066.6 39.33 1066.6 39.33 993.285 20.825 c 0,0,0
 919.97 2.32 919.97 2.32 836.185 -8.84 c 0,0,0
 752.4 -20 752.4 -20 678.41 -20 c 0,0,0
1004.72 1174.8 m 1,0,0
 958.6 1178.91 958.6 1178.91 922.35 1178.91 c 0,0,0
 812.55 1178.91 812.55 1178.91 709.07 1133.87 c 0,0,0
 621.49 1081.84 621.49 1081.84 560.88 997.5 c 0,0,0
 500.27 913.16 500.27 913.16 468.965 803.03 c 0,0,0
 437.66 692.9 437.66 692.9 437.66 561.67 c 0,0,0
 437.66 393.57 437.66 393.57 513.9 312.165 c 0,0,0
 590.14 230.76 590.14 230.76 743.93 230.76 c 0,0,0
 778.19 230.76 778.19 230.76 821.67 234.2 c 1,0,0
 1004.72 1174.8 l 1,0,0
EndSplineSet
EndChar

StartChar: uni01A3
Encoding: 419 419 356
Width: 1546
GlyphClass: 2
Flags: HW
LayerCount: 2
Fore
SplineSet
522.92 -20 m 0,0,0
 313.62 -20 313.62 -20 196.96 98.995 c 0,0,0
 80.3 217.99 80.3 217.99 80.3 420.33 c 0,0,0
 80.3 622.62 80.3 622.62 161.6 776.98 c 0,0,0
 241.57 930.34 241.57 930.34 388.685 1016.335 c 0,0,0
 535.8 1102.33 535.8 1102.33 727.12 1102.33 c 0,0,0
 838.05 1102.33 838.05 1102.33 938.985 1074.685 c 0,0,0
 1039.92 1047.04 1039.92 1047.04 1085.64 1010.37 c 1,0,0
 1502.14 1104.97 l 1,0,0
 1590.36 1104.97 l 1,0,0
 1292.7 -425 l 1,0,0
 1013.96 -425 l 1,0,0
 1264.32 863.47 l 1,0,0
 1068.67 863.47 l 1,0,0
 922.27 55.29 l 1,0,0
 744.76 -20 744.76 -20 522.92 -20 c 0,0,0
791.61 882.17 m 1,0,0
 776.83 889.2 776.83 889.2 707.83 889.2 c 0,0,0
 626.03 889.2 626.03 889.2 555.67 826.85 c 0,0,0
 508.32 784.84 508.32 784.84 473.81 722.96 c 0,0,0
 439.3 661.08 439.3 661.08 421.46 582.54 c 0,0,0
 403.62 504 403.62 504 403.62 410.68 c 0,0,0
 403.62 299.92 403.62 299.92 444.345 245.695 c 0,0,0
 485.07 191.47 485.07 191.47 568.5 191.47 c 0,0,0
 628.83 191.47 628.83 191.47 659.21 197.15 c 1,0,0
 791.61 882.17 l 1,0,0
EndSplineSet
EndChar

StartChar: uni01A4
Encoding: 420 420 357
Width: 1522
GlyphClass: 2
Flags: HW
LayerCount: 2
Fore
SplineSet
1036.53 1409 m 2,0,0
 1287.48 1409 1287.48 1409 1424.475 1294.36 c 0,0,0
 1561.47 1179.72 1561.47 1179.72 1561.47 976.11 c 0,0,0
 1561.47 824.79 1561.47 824.79 1491.805 712.805 c 0,0,0
 1422.14 600.82 1422.14 600.82 1295.97 539.665 c 0,0,0
 1169.8 478.51 1169.8 478.51 999.12 478.51 c 2,0,0
 689.5 478.51 l 1,0,0
 594.14 0 l 1,0,0
 266.15 0 l 1,0,0
 492.86 1173.22 l 1,0,0
 465.89 1173.22 l 2,0,0
 401.15 1173.22 401.15 1173.22 365.955 1139.51 c 0,0,0
 330.76 1105.8 330.76 1105.8 330.76 1041.73 c 0,0,0
 330.43 1020.75 330.43 1020.75 334.09 992.79 c 0,0,0
 337.75 964.83 337.75 964.83 345.4 929.22 c 1,0,0
 94.99 912.22 l 1,0,0
 93.65 932.87 93.65 932.87 92.315 956.515 c 0,0,0
 90.98 980.16 90.98 980.16 90.98 1008.79 c 0,0,0
 90.98 1217.36 90.98 1217.36 186.8 1313.18 c 0,0,0
 282.62 1409 282.62 1409 489.2 1409 c 2,0,0
 1036.53 1409 l 2,0,0
736.79 730.59 m 1,0,0
 941.58 730.59 l 2,0,0
 1083.37 730.59 1083.37 730.59 1155.595 781.99 c 0,0,0
 1227.82 833.39 1227.82 833.39 1227.82 957.8 c 0,0,0
 1227.82 1054.19 1227.82 1054.19 1168.77 1104.555 c 0,0,0
 1109.72 1154.92 1109.72 1154.92 1000.94 1154.92 c 2,0,0
 819.52 1154.92 l 1,0,0
 736.79 730.59 l 1,0,0
EndSplineSet
EndChar

StartChar: uni01A5
Encoding: 421 421 358
Width: 1287
GlyphClass: 2
Flags: HW
LayerCount: 2
Fore
SplineSet
697.64 -20 m 0,0,0
 571.98 -20 571.98 -20 493.815 32 c 0,0,0
 415.65 84 415.65 84 383.65 178 c 1,0,0
 382.64 178 l 1,0,0
 382.63 169.28 382.63 169.28 380.79 158.565 c 0,0,0
 378.95 147.85 378.95 147.85 377.94 136.47 c 0,0,0
 381.21 155.12 381.21 155.12 354.55 14.005 c 0,0,0
 327.89 -127.11 327.89 -127.11 270.31 -425 c 1,0,0
 -43.02 -425 l 1,0,0
 260.02 1167.8 l 2,0,0
 290.34 1330.39 290.34 1330.39 385.965 1404.885 c 0,0,0
 481.59 1479.38 481.59 1479.38 662.44 1479.38 c 0,0,0
 740.42 1479.38 740.42 1479.38 859.26 1459.71 c 1,0,0
 815.63 1238.22 l 1,0,0
 739.7 1251.57 739.7 1251.57 707.37 1251.57 c 0,0,0
 649.69 1251.57 649.69 1251.57 613.19 1220.86 c 0,0,0
 576.69 1190.15 576.69 1190.15 564.34 1127.73 c 2,0,0
 522 909.04 l 1,0,0
 526.66 909.04 l 1,0,0
 599 1014.68 599 1014.68 684.155 1058.34 c 0,0,0
 769.31 1102 769.31 1102 883.31 1102 c 0,0,0
 1042.97 1102 1042.97 1102 1132.465 1007.5 c 0,0,0
 1221.96 913 1221.96 913 1221.96 748 c 0,0,0
 1221.96 547.99 1221.96 547.99 1159.63 355 c 0,0,0
 1097.3 162.34 1097.3 162.34 984.635 71.17 c 0,0,0
 871.97 -20 871.97 -20 697.64 -20 c 0,0,0
740.87 888.52 m 0,0,0
 595.09 888.52 595.09 888.52 518.37 754.45 c 0,0,0
 493.02 708.43 493.02 708.43 474.34 646.065 c 0,0,0
 455.66 583.7 455.66 583.7 445.155 520.83 c 0,0,0
 434.65 457.96 434.65 457.96 434.65 408.92 c 0,0,0
 434.65 307.86 434.65 307.86 484.185 250.33 c 0,0,0
 533.72 192.8 533.72 192.8 622.78 192.8 c 0,0,0
 719.18 192.8 719.18 192.8 774.55 255.16 c 0,0,0
 811.91 297.84 811.91 297.84 837.6 373.715 c 0,0,0
 863.29 449.59 863.29 449.59 876.805 534.475 c 0,0,0
 890.32 619.36 890.32 619.36 890.32 686.74 c 0,0,0
 890.32 787.13 890.32 787.13 854.625 837.825 c 0,0,0
 818.93 888.52 818.93 888.52 740.87 888.52 c 0,0,0
EndSplineSet
EndChar

StartChar: uni01A6
Encoding: 422 422 359
Width: 1366
GlyphClass: 2
Flags: HW
LayerCount: 2
Fore
SplineSet
962.03 -332.3 m 1,0,0
 629.58 335.24 l 1,0,0
 423.45 335.24 l 1,0,0
 356.41 0 l 1,0,0
 27.09 0 l 1,0,0
 297.43 1410.33 l 1,0,0
 614.77 1410.33 l 1,0,0
 580.78 1227.07 l 1,0,0
 828.1 1227.07 l 2,0,0
 984.47 1227.07 984.47 1227.07 1095.49 1184.34 c 0,0,0
 1218.06 1135.01 1218.06 1135.01 1281.02 1039.555 c 0,0,0
 1343.98 944.1 1343.98 944.1 1343.98 813.18 c 0,0,0
 1343.98 655.77 1343.98 655.77 1235.315 539.12 c 0,0,0
 1126.65 422.47 1126.65 422.47 948.9 394.8 c 1,0,0
 1327.63 -332.3 l 1,0,0
 962.03 -332.3 l 1,0,0
739.76 591.31 m 2,0,0
 872.88 591.31 872.88 591.31 941.605 644.2 c 0,0,0
 1010.33 697.09 1010.33 697.09 1010.33 795.52 c 0,0,0
 1010.33 880.92 1010.33 880.92 950.46 926.955 c 0,0,0
 890.59 972.99 890.59 972.99 786.48 972.99 c 2,0,0
 547.8 972.99 l 1,0,0
 473.4 591.31 l 1,0,0
 739.76 591.31 l 2,0,0
EndSplineSet
EndChar

StartChar: uni01A7
Encoding: 423 423 360
Width: 1366
GlyphClass: 2
Flags: HW
LayerCount: 2
Fore
SplineSet
1044.59 1071.06 m 0,0,0
 1044.59 1136.13 1044.59 1136.13 991.195 1167.84 c 0,0,0
 937.8 1199.55 937.8 1199.55 827.05 1199.55 c 0,0,0
 710.62 1199.55 710.62 1199.55 642.205 1158.005 c 0,0,0
 573.79 1116.46 573.79 1116.46 539.07 1038 c 1,0,0
 228.73 1078.98 l 1,0,0
 279.42 1208.98 279.42 1208.98 359.92 1285.32 c 0,0,0
 440.42 1361.66 440.42 1361.66 562.9 1395.83 c 0,0,0
 685.38 1430 685.38 1430 860.34 1430 c 0,0,0
 1090.98 1430 1090.98 1430 1229.445 1337.515 c 0,0,0
 1367.91 1245.03 1367.91 1245.03 1367.91 1085.37 c 0,0,0
 1367.91 996.05 1367.91 996.05 1345.24 931.225 c 0,0,0
 1322.57 866.4 1322.57 866.4 1283.23 818.41 c 0,0,0
 1242.22 769.75 1242.22 769.75 1191.84 739.4 c 0,0,0
 1156.48 718.06 1156.48 718.06 1115.775 699.56 c 0,0,0
 1075.07 681.06 1075.07 681.06 1015 661.895 c 0,0,0
 954.93 642.73 954.93 642.73 858.15 620.05 c 0,0,0
 769.48 597.73 769.48 597.73 682.53 579.55 c 0,0,0
 595.58 561.37 595.58 561.37 526.97 535.69 c 0,0,0
 461.99 512.32 461.99 512.32 420.03 475.62 c 0,0,0
 378.07 438.92 378.07 438.92 378.07 378.58 c 0,0,0
 378.07 290.54 378.07 290.54 440.47 257.65 c 0,0,0
 502.87 224.76 502.87 224.76 630.6 224.76 c 0,0,0
 778.22 224.76 778.22 224.76 867.89 273.72 c 0,0,0
 905.36 297.41 905.36 297.41 934.78 330.99 c 0,0,0
 964.2 364.57 964.2 364.57 982.62 401.79 c 1,0,0
 1308.91 350.8 l 1,0,0
 1233.86 171.01 1233.86 171.01 1052.07 75.505 c 0,0,0
 870.28 -20 870.28 -20 590.34 -20 c 0,0,0
 332.71 -20 332.71 -20 191.23 77.825 c 0,0,0
 49.75 175.65 49.75 175.65 49.75 345.33 c 0,0,0
 49.75 474.89 49.75 474.89 98.03 570.15 c 0,0,0
 146.31 665.41 146.31 665.41 258.81 730.7 c 0,0,0
 299.16 750.77 299.16 750.77 349.86 768.645 c 0,0,0
 400.56 786.52 400.56 786.52 461.27 802.21 c 0,0,0
 478.3 805.56 478.3 805.56 489.885 809.245 c 0,0,0
 501.47 812.93 501.47 812.93 510.6 813.96 c 2,0,0
 680.39 850.58 l 2,0,0
 772.75 870.58 772.75 870.58 834.275 886.92 c 0,0,0
 895.8 903.26 895.8 903.26 925.16 916.27 c 0,0,0
 982.55 941.29 982.55 941.29 1013.57 977.655 c 0,0,0
 1044.59 1014.02 1044.59 1014.02 1044.59 1071.06 c 0,0,0
EndSplineSet
EndChar

StartChar: uni01A8
Encoding: 424 424 361
Width: 1176
GlyphClass: 2
Flags: HW
LayerCount: 2
Fore
SplineSet
660.13 900.82 m 0,0,0
 562.43 900.82 562.43 900.82 511.405 869.645 c 0,0,0
 460.38 838.47 460.38 838.47 437.36 776.09 c 1,0,0
 162.34 794.83 l 1,0,0
 219.96 948.75 219.96 948.75 350.235 1025.875 c 0,0,0
 480.51 1103 480.51 1103 695.41 1103 c 0,0,0
 897.35 1103 897.35 1103 1006.485 1028.675 c 0,0,0
 1115.62 954.35 1115.62 954.35 1115.62 801.41 c 0,0,0
 1115.62 696.47 1115.62 696.47 1061.665 624.01 c 0,0,0
 1007.71 551.55 1007.71 551.55 908.43 506.22 c 0,0,0
 811.47 462.55 811.47 462.55 507.48 400.25 c 0,0,0
 406.3 382.17 406.3 382.17 355.95 347.52 c 0,0,0
 338.19 334.15 338.19 334.15 329.145 316.275 c 0,0,0
 320.1 298.4 320.1 298.4 320.1 280.65 c 0,0,0
 320.1 180.85 320.1 180.85 511.19 180.85 c 0,0,0
 614.57 180.85 614.57 180.85 678.58 211.2 c 0,0,0
 742.59 241.55 742.59 241.55 786.89 316.24 c 1,0,0
 1057.58 285.51 l 1,0,0
 986.66 116.63 986.66 116.63 858.705 48.315 c 0,0,0
 730.75 -20 730.75 -20 490.23 -20 c 0,0,0
 276.61 -20 276.61 -20 154.32 58.82 c 0,0,0
 32.03 137.64 32.03 137.64 32.03 270.33 c 0,0,0
 32.03 387.26 32.03 387.26 79.35 463.23 c 0,0,0
 111.34 512.88 111.34 512.88 159 549.54 c 0,0,0
 206.66 586.2 206.66 586.2 292.305 614.875 c 0,0,0
 377.95 643.55 377.95 643.55 519.9 668.24 c 2,0,0
 654.8 691.25 l 1,0,0
 743.55 702.99 743.55 702.99 787.885 729.51 c 0,0,0
 832.22 756.03 832.22 756.03 832.22 799.75 c 0,0,0
 832.22 861.42 832.22 861.42 789.525 881.12 c 0,0,0
 746.83 900.82 746.83 900.82 660.13 900.82 c 0,0,0
EndSplineSet
EndChar

StartChar: uni01AA
Encoding: 426 426 363
Width: 755
GlyphClass: 2
Flags: HW
LayerCount: 2
Fore
SplineSet
144.08 1252.4 m 0,0,0
 144.08 1368.02 144.08 1368.02 217.565 1424.525 c 0,0,0
 291.05 1481.03 291.05 1481.03 431.3 1481.03 c 0,0,0
 580.53 1481.03 580.53 1481.03 659.64 1404.255 c 0,0,0
 738.75 1327.48 738.75 1327.48 738.75 1194.89 c 0,0,0
 738.75 1121.64 738.75 1121.64 725.42 1059.97 c 2,0,0
 507.66 -49.52 l 2,0,0
 502.66 -72.21 502.66 -72.21 502.66 -99.52 c 0,0,0
 502.66 -189.86 502.66 -189.86 598.99 -189.86 c 0,0,0
 613.69 -189.86 613.69 -189.86 658.645 -185.53 c 0,0,0
 703.6 -181.2 703.6 -181.2 718.96 -178.19 c 1,0,0
 674.33 -406.68 l 1,0,0
 599.02 -425 599.02 -425 471.17 -425 c 0,0,0
 321.62 -425 321.62 -425 249.155 -367.995 c 0,0,0
 176.69 -310.99 176.69 -310.99 176.69 -192.69 c 0,0,0
 176.69 -155.35 176.69 -155.35 188.35 -90.06 c 2,0,0
 415.4 1073.52 l 1,0,0
 376.05 1068.46 376.05 1068.46 327.02 1068.46 c 0,0,0
 250.36 1068.46 250.36 1068.46 197.22 1118.445 c 0,0,0
 144.08 1168.43 144.08 1168.43 144.08 1252.4 c 0,0,0
373.36 1353.82 m 0,0,0
 335.32 1353.82 335.32 1353.82 314.115 1333.11 c 0,0,0
 292.91 1312.4 292.91 1312.4 292.91 1274.69 c 0,0,0
 292.91 1232.69 292.91 1232.69 318.57 1206.7 c 0,0,0
 344.23 1180.71 344.23 1180.71 386.23 1180.71 c 0,0,0
 423.61 1180.71 423.61 1180.71 444.485 1201.75 c 0,0,0
 465.36 1222.79 465.36 1222.79 465.36 1260.83 c 0,0,0
 465.36 1302.83 465.36 1302.83 440.03 1328.325 c 0,0,0
 414.7 1353.82 414.7 1353.82 373.36 1353.82 c 0,0,0
EndSplineSet
EndChar

StartChar: uni01AB
Encoding: 427 427 364
Width: 719
GlyphClass: 2
Flags: HW
LayerCount: 2
Fore
SplineSet
179.21 -427.66 m 0,0,0
 98.25 -427.66 98.25 -427.66 0.37 -407.99 c 1,0,0
 42.67 -191.15 l 1,0,0
 118.6 -204.5 118.6 -204.5 158.91 -204.5 c 0,0,0
 207.28 -204.5 207.28 -204.5 248.09 -179.78 c 0,0,0
 288.9 -155.06 288.9 -155.06 304.57 -79.67 c 2,0,0
 318.56 -8.03 l 1,0,0
 226.91 10.59 226.91 10.59 175.25 66.245 c 0,0,0
 123.59 121.9 123.59 121.9 123.59 223.19 c 0,0,0
 123.59 303.46 123.59 303.46 139.92 389.1 c 2,0,0
 234 872.53 l 1,0,0
 78.41 872.53 l 1,0,0
 119.04 1082 l 1,0,0
 292.59 1082 l 1,0,0
 440.15 1339.96 l 1,0,0
 634.63 1339.96 l 1,0,0
 586.3 1082 l 1,0,0
 788.96 1082 l 1,0,0
 750.99 872.53 l 1,0,0
 544.34 872.53 l 1,0,0
 447.27 373.83 l 2,0,0
 436.6 316.49 436.6 316.49 436.6 286.81 c 0,0,0
 436.6 240.15 436.6 240.15 460.43 217.485 c 0,0,0
 484.26 194.82 484.26 194.82 522.61 194.82 c 0,0,0
 554.96 194.82 554.96 194.82 633.25 207.49 c 1,0,0
 570.63 -113.11 l 2,0,0
 539.99 -259.08 539.99 -259.08 442.55 -343.37 c 0,0,0
 345.11 -427.66 345.11 -427.66 179.21 -427.66 c 0,0,0
EndSplineSet
EndChar

StartChar: uni01AC
Encoding: 428 428 365
Width: 1251
GlyphClass: 2
Flags: HW
LayerCount: 2
Fore
SplineSet
931.15 1157.24 m 1,0,0
 705.77 0 l 1,0,0
 376.12 0 l 1,0,0
 601.5 1157.24 l 1,0,0
 424.77 1157.24 l 2,0,0
 288.65 1157.24 288.65 1157.24 288.65 1041.73 c 0,0,0
 288.32 1012.77 288.32 1012.77 291.98 980.155 c 0,0,0
 295.64 947.54 295.64 947.54 303.29 911.93 c 1,0,0
 52.88 894.93 l 1,0,0
 48.87 935.57 48.87 935.57 48.87 1008.79 c 0,0,0
 48.87 1217.36 48.87 1217.36 144.69 1313.18 c 0,0,0
 240.51 1409 240.51 1409 447.09 1409 c 2,0,0
 1402.59 1409 l 1,0,0
 1353.97 1157.24 l 1,0,0
 931.15 1157.24 l 1,0,0
EndSplineSet
EndChar

StartChar: uni01AD
Encoding: 429 429 366
Width: 719
GlyphClass: 2
Flags: HW
LayerCount: 2
Fore
SplineSet
409.33 -14.68 m 0,0,0
 272.46 -14.68 272.46 -14.68 198.025 46.295 c 0,0,0
 123.59 107.27 123.59 107.27 123.59 223.19 c 0,0,0
 123.59 303.46 123.59 303.46 139.92 389.1 c 2,0,0
 234 872.53 l 1,0,0
 78.41 872.53 l 1,0,0
 119.04 1082 l 1,0,0
 274.3 1082 l 1,0,0
 290.33 1168.46 l 2,0,0
 320.32 1332.04 320.32 1332.04 417.1 1405.71 c 0,0,0
 513.88 1479.38 513.88 1479.38 693.41 1479.38 c 0,0,0
 771.39 1479.38 771.39 1479.38 890.23 1459.71 c 1,0,0
 846.6 1251.52 l 1,0,0
 770.67 1264.87 770.67 1264.87 738.34 1264.87 c 0,0,0
 680.66 1264.87 680.66 1264.87 643.995 1234.325 c 0,0,0
 607.33 1203.78 607.33 1203.78 595.31 1142.35 c 2,0,0
 586.3 1082 l 1,0,0
 788.96 1082 l 1,0,0
 750.99 872.53 l 1,0,0
 544.34 872.53 l 1,0,0
 447.27 373.83 l 2,0,0
 436.6 316.49 436.6 316.49 436.6 286.81 c 0,0,0
 436.6 240.15 436.6 240.15 460.43 217.485 c 0,0,0
 484.26 194.82 484.26 194.82 522.61 194.82 c 0,0,0
 554.96 194.82 554.96 194.82 633.25 207.49 c 1,0,0
 596.96 9.32 l 1,0,0
 521.9 -14.68 521.9 -14.68 409.33 -14.68 c 0,0,0
EndSplineSet
EndChar

StartChar: uni01AE
Encoding: 430 430 367
Width: 1251
GlyphClass: 2
Flags: HW
LayerCount: 2
Fore
SplineSet
132.13 1157.24 m 1,0,0
 180.75 1409 l 1,0,0
 1402.59 1409 l 1,0,0
 1353.97 1157.24 l 1,0,0
 907.21 1157.24 l 1,0,0
 676.79 -19.89 l 2,0,0
 670.12 -48.26 670.12 -48.26 670.12 -80.58 c 0,0,0
 670.12 -175.56 670.12 -175.56 769.74 -175.56 c 0,0,0
 790.17 -175.56 790.17 -175.56 863.78 -163.55 c 1,0,0
 816.82 -404.01 l 1,0,0
 711.9 -425 711.9 -425 636.6 -425 c 0,0,0
 483.38 -425 483.38 -425 408.925 -360.19 c 0,0,0
 334.47 -295.38 334.47 -295.38 334.47 -151.16 c 0,0,0
 334.47 -75.92 334.47 -75.92 349.13 -9.27 c 2,0,0
 577.56 1157.24 l 1,0,0
 132.13 1157.24 l 1,0,0
EndSplineSet
EndChar

StartChar: Uhorn
Encoding: 431 431 368
Width: 1666
GlyphClass: 2
Flags: HW
LayerCount: 2
Fore
SplineSet
677.94 -20 m 0,0,0
 403.38 -20 403.38 -20 255.58 96.675 c 0,0,0
 107.78 213.35 107.78 213.35 107.78 431 c 0,0,0
 107.78 517 107.78 517 130.78 635 c 2,0,0
 278.12 1409 l 1,0,0
 607.44 1409 l 1,0,0
 457.41 609.89 l 2,0,0
 439.08 523.88 439.08 523.88 439.08 428.32 c 0,0,0
 439.08 336.21 439.08 336.21 507.295 286.145 c 0,0,0
 575.51 236.08 575.51 236.08 693.94 236.08 c 0,0,0
 850.03 236.08 850.03 236.08 925.63 303.665 c 0,0,0
 1001.23 371.25 1001.23 371.25 1033.91 541 c 2,0,0
 1201.91 1409 l 1,0,0
 1531.56 1409 l 1,0,0
 1434.94 914.23 l 1,0,0
 1686.59 941.61 1686.59 941.61 1711.63 1118.31 c 1,0,0
 1571.76 1118.31 l 1,0,0
 1628.04 1409 l 1,0,0
 1945.4 1409 l 1,0,0
 1896.47 1160.37 l 2,0,0
 1861.8 984.7 1861.8 984.7 1741.18 880.395 c 0,0,0
 1620.56 776.09 1620.56 776.09 1404.97 758.06 c 1,0,0
 1360.23 530 l 2,0,0
 1303.91 245.04 1303.91 245.04 1139.9 112.52 c 0,0,0
 975.89 -20 975.89 -20 677.94 -20 c 0,0,0
EndSplineSet
EndChar

